<?xml version="1.0" encoding="utf-8"?>
<!-- Generator: Adobe Illustrator 16.0.0, SVG Export Plug-In . SVG Version: 6.00 Build 0)  -->
<!DOCTYPE svg PUBLIC "-//W3C//DTD SVG 1.1//EN" "http://www.w3.org/Graphics/SVG/1.1/DTD/svg11.dtd">
<svg version="1.1" id="圖層_1" xmlns="http://www.w3.org/2000/svg" xmlns:xlink="http://www.w3.org/1999/xlink" x="0px" y="0px"
	 width="45.149px" height="45.149px" viewBox="0 0 45.149 45.149" enable-background="new 0 0 45.149 45.149" xml:space="preserve">
<g>
	<path fill-rule="evenodd" clip-rule="evenodd" fill="#767676" d="M13.519,25.197c-3.46-3.924-4.913-8.201-3.668-13.15
		c0.761-3.02,2.417-5.492,4.938-7.328c5.099-3.71,11.648-3.385,16.224,0.794c2.838,2.593,4.24,5.872,4.386,9.681
		c0.146,3.825-1.456,7.001-4.011,9.948c0.438,0.025,0.702,0.05,0.966,0.053c1.503,0.011,3.013-0.048,4.512,0.039
		c2.375,0.14,3.972,1.593,4.405,3.923c0.574,3.102,1.134,6.206,1.673,9.314c0.527,3.028-1.572,5.468-4.719,5.475
		C32,43.96,25.776,43.951,19.554,43.951c-4.234,0-8.467,0.007-12.701-0.003c-2.283-0.005-4.047-1.193-4.59-3.296
		c-0.225-0.872-0.135-1.874,0.014-2.784c0.503-3.061,1.055-6.117,1.671-9.158c0.393-1.938,2.021-3.326,3.975-3.444
		c1.5-0.09,3.007-0.052,4.511-0.068C12.7,25.193,12.969,25.197,13.519,25.197z M22.517,40.294c5.154,0,10.308,0,15.461-0.001
		c1.219,0,1.514-0.328,1.308-1.525c-0.508-2.934-1.028-5.866-1.557-8.796c-0.176-0.98-0.393-1.15-1.371-1.152
		c-2.346-0.003-4.694,0.012-7.04-0.012c-0.462-0.005-0.749,0.145-1.016,0.506c-1.36,1.846-2.74,3.679-4.118,5.513
		c-1.143,1.521-2.384,1.521-3.514,0.012c-1.359-1.815-2.736-3.619-4.071-5.452c-0.303-0.416-0.61-0.586-1.128-0.58
		c-2.193,0.029-4.388,0.011-6.582,0.013c-1.165,0-1.326,0.117-1.529,1.233c-0.531,2.93-1.055,5.861-1.57,8.794
		c-0.205,1.165,0.05,1.446,1.267,1.447C12.209,40.295,17.363,40.294,22.517,40.294z M22.383,31.071
		c0.111-0.106,0.215-0.179,0.286-0.275c2.506-3.375,5.054-6.717,7.491-10.139c1.429-2.005,1.89-4.297,1.496-6.758
		c-0.819-5.101-5.534-8.739-10.46-8.041c-6.843,0.969-10.461,9.197-6.471,14.872C17.185,24.229,19.812,27.61,22.383,31.071z"/>
	<path fill-rule="evenodd" clip-rule="evenodd" fill="#767676" d="M22.535,20.135c-3.311-0.028-5.944-2.717-5.905-6.029
		c0.039-3.268,2.744-5.926,5.984-5.881c3.302,0.045,5.995,2.792,5.92,6.033C28.455,17.542,25.78,20.163,22.535,20.135z
		 M24.901,14.197c-0.016-1.294-1.044-2.305-2.346-2.302c-1.262,0.003-2.295,1.017-2.302,2.261c-0.008,1.311,1.09,2.399,2.379,2.36
		C23.862,16.478,24.914,15.402,24.901,14.197z"/>
</g>
</svg>
