<?xml version="1.0" encoding="utf-8"?>
<!-- Generator: Adobe Illustrator 25.2.0, SVG Export Plug-In . SVG Version: 6.00 Build 0)  -->
<svg version="1.1" id="圖層_1" xmlns="http://www.w3.org/2000/svg" xmlns:xlink="http://www.w3.org/1999/xlink" x="0px" y="0px"
	 viewBox="0 0 41.2 41.2" style="enable-background:new 0 0 41.2 41.2;" xml:space="preserve">
<style type="text/css">
	.st0{fill:url(#SVGID_1_);}
	.st1{fill:#FFFFFF;}
</style>
<g>
	
		<radialGradient id="SVGID_1_" cx="-343.1231" cy="520.0112" r="5.915888e-02" gradientTransform="matrix(758.68 0 0 -758.6786 260328.5938 394562.375)" gradientUnits="userSpaceOnUse">
		<stop  offset="0" style="stop-color:#358CCC"/>
		<stop  offset="0.6098" style="stop-color:#6C4B9B"/>
		<stop  offset="0.9348" style="stop-color:#E9537A"/>
		<stop  offset="1" style="stop-color:#EC6D5F"/>
	</radialGradient>
	<path class="st0" d="M20.6,0C9,0,0,8.5,0,20c0,6,2.5,11.2,6.5,14.8C6.8,35.1,7,35.5,7,35.9l0.1,3.7c0,1.2,1.2,1.9,2.3,1.5l4.1-1.8
		c0.3-0.2,0.7-0.2,1.1-0.1c1.9,0.5,3.9,0.8,6,0.8c11.6,0,20.6-8.5,20.6-20S32.2,0,20.6,0z"/>
	<path class="st1" d="M8.2,25.8l6-9.6c1-1.5,3-1.9,4.5-0.8l4.8,3.6c0.4,0.3,1,0.3,1.5,0l6.5-4.9c0.9-0.7,2,0.4,1.4,1.3L26.9,25
		c-1,1.5-3,1.9-4.5,0.8l-4.8-3.6c-0.4-0.3-1-0.3-1.5,0l-6.5,4.9C8.8,27.8,7.7,26.7,8.2,25.8z"/>
</g>
</svg>
