<?xml version="1.0" encoding="utf-8"?>
<!-- Generator: Adobe Illustrator 25.2.0, SVG Export Plug-In . SVG Version: 6.00 Build 0)  -->
<svg version="1.1" id="svg7898" xmlns="http://www.w3.org/2000/svg" xmlns:xlink="http://www.w3.org/1999/xlink" x="0px" y="0px"
	 viewBox="0 0 300 300" style="enable-background:new 0 0 300 300;" xml:space="preserve">
<style type="text/css">
	.st0{fill:#00B900;}
	.st1{fill:#FFFFFF;}
</style>
<g>
	<g id="g7958" transform="matrix(1.6639441,0,0,1.6639441,535.69699,483.72129)">
		<path id="path7960" class="st0" d="M-174.6-290.1h-114.1c-17.9,0-32.6,14.5-32.6,32.4v114.1c0,17.9,14.5,32.6,32.4,32.6h114.1
			c17.9,0,32.6-14.5,32.6-32.4v-114.1C-142.2-275.4-156.7-290.1-174.6-290.1"/>
	</g>
	<g id="g7962" transform="matrix(1.6639441,0,0,1.6639441,546.02809,375.00068)">
		<path id="path7964" class="st1" d="M-173.1-143.1c0-29.2-29.2-52.9-65.2-52.9c-36,0-65.2,23.7-65.2,52.9
			c0,26.2,23.2,48.1,54.5,52.2c2.1,0.5,5,1.4,5.7,3.2c0.7,1.6,0.4,4.2,0.2,5.9c0,0-0.8,4.6-0.9,5.6c-0.3,1.6-1.3,6.4,5.6,3.5
			c7-2.9,37.6-22.1,51.2-37.9h0C-177.6-120.9-173.1-131.4-173.1-143.1"/>
	</g>
	<g id="g7966" transform="matrix(1.6639441,0,0,1.6639441,441.5933,393.76931)">
		<path id="path7968" class="st0" d="M-188.8-168.5h-4.6c-0.7,0-1.3,0.6-1.3,1.3v28.4c0,0.7,0.6,1.3,1.3,1.3h4.6
			c0.7,0,1.3-0.6,1.3-1.3v-28.4C-187.5-167.9-188.1-168.5-188.8-168.5"/>
	</g>
	<g id="g7970" transform="matrix(1.6639441,0,0,1.6639441,483.49956,393.76931)">
		<path id="path7972" class="st0" d="M-182.5-168.5h-4.6c-0.7,0-1.3,0.6-1.3,1.3v16.9l-13-17.6c0,0-0.1-0.1-0.1-0.1l0,0
			c0,0-0.1-0.1-0.1-0.1c0,0,0,0,0,0c0,0,0,0-0.1-0.1c0,0,0,0,0,0c0,0,0,0-0.1,0c0,0,0,0,0,0c0,0,0,0-0.1,0c0,0,0,0,0,0
			c0,0,0,0-0.1,0c0,0,0,0,0,0c0,0,0,0-0.1,0c0,0,0,0,0,0c0,0,0,0-0.1,0c0,0,0,0-0.1,0c0,0,0,0-0.1,0c0,0,0,0-0.1,0c0,0,0,0,0,0h-4.6
			c-0.7,0-1.3,0.6-1.3,1.3v28.4c0,0.7,0.6,1.3,1.3,1.3h4.6c0.7,0,1.3-0.6,1.3-1.3v-16.9l13,17.6c0.1,0.1,0.2,0.2,0.3,0.3
			c0,0,0,0,0,0c0,0,0.1,0,0.1,0c0,0,0,0,0,0c0,0,0,0,0.1,0c0,0,0,0,0.1,0c0,0,0,0,0,0c0,0,0.1,0,0.1,0c0,0,0,0,0,0
			c0.1,0,0.2,0,0.3,0h4.6c0.7,0,1.3-0.6,1.3-1.3v-28.4C-181.2-167.9-181.8-168.5-182.5-168.5"/>
	</g>
	<g id="g7974" transform="matrix(1.6639441,0,0,1.6639441,426.91715,362.04388)">
		<path id="path7976" class="st0" d="M-191-125.6h-12.4v-22.6c0-0.7-0.6-1.3-1.3-1.3h-4.6c-0.7,0-1.3,0.6-1.3,1.3v28.4v0
			c0,0.3,0.1,0.7,0.4,0.9c0,0,0,0,0,0c0,0,0,0,0,0c0.2,0.2,0.5,0.4,0.9,0.4h0h18.3c0.7,0,1.3-0.6,1.3-1.3v-4.6
			C-189.7-125-190.3-125.6-191-125.6"/>
	</g>
	<g id="g7978" transform="matrix(1.6639441,0,0,1.6639441,517.12172,384.29914)">
		<path id="path7980" class="st0" d="M-177.4-155.7c0.7,0,1.3-0.6,1.3-1.3v-4.6c0-0.7-0.6-1.3-1.3-1.3h-18.3h0
			c-0.3,0-0.7,0.1-0.9,0.4c0,0,0,0,0,0c0,0,0,0,0,0c-0.2,0.2-0.4,0.5-0.4,0.9v0v28.4v0c0,0.3,0.1,0.7,0.4,0.9c0,0,0,0,0,0
			c0,0,0,0,0,0c0.2,0.2,0.5,0.4,0.9,0.4h0h18.3c0.7,0,1.3-0.6,1.3-1.3v-4.6c0-0.7-0.6-1.3-1.3-1.3h-12.4v-4.8h12.4
			c0.7,0,1.3-0.6,1.3-1.3v-4.6c0-0.7-0.6-1.3-1.3-1.3h-12.4v-4.8H-177.4z"/>
	</g>
</g>
</svg>
