<?xml version="1.0" encoding="utf-8"?>
<!-- Generator: Adobe Illustrator 16.0.0, SVG Export Plug-In . SVG Version: 6.00 Build 0)  -->
<!DOCTYPE svg PUBLIC "-//W3C//DTD SVG 1.1//EN" "http://www.w3.org/Graphics/SVG/1.1/DTD/svg11.dtd">
<svg version="1.1" id="圖層_1" xmlns="http://www.w3.org/2000/svg" xmlns:xlink="http://www.w3.org/1999/xlink" x="0px" y="0px"
	 width="45.149px" height="45.149px" viewBox="0 0 45.149 45.149" enable-background="new 0 0 45.149 45.149" xml:space="preserve">
<path fill-rule="evenodd" clip-rule="evenodd" fill="#767676" d="M7.643,12.31c0,1.184,0.018,2.368-0.017,3.549
	c-0.006,0.223-0.188,0.472-0.352,0.649c-0.239,0.258-0.536,0.462-0.868,0.739c5.449,4.235,10.83,8.417,16.271,12.646
	C28,25.704,33.313,21.521,38.611,17.351c-0.028-0.097-0.027-0.169-0.057-0.184c-1.139-0.591-1.192-1.607-1.107-2.711
	c0.055-0.69,0.011-1.389,0.011-2.263c1.087,0.846,2.049,1.589,3.005,2.344c0.322,0.254,0.619,0.542,0.938,0.803
	c1.444,1.184,2.121,2.722,2.121,4.573c0.001,5.837,0.009,11.674-0.002,17.511c-0.006,2.782-1.754,4.65-4.519,4.875
	c-0.24,0.019-0.483,0.024-0.726,0.024c-10.486,0.001-20.974-0.006-31.46,0.007c-1.83,0.002-3.458-0.462-4.421-2.102
	c-0.457-0.778-0.771-1.762-0.781-2.658c-0.067-5.957-0.045-11.915-0.028-17.873c0.004-1.567,0.537-2.953,1.735-4.004
	c1.359-1.192,2.757-2.34,4.137-3.507C7.519,12.227,7.581,12.268,7.643,12.31z M17.135,29.685c-3.194,3.126-6.333,6.197-9.58,9.373
	c10.063,0,19.958,0,30.024,0c-3.242-3.173-6.364-6.229-9.479-9.278c-0.104,0.063-0.172,0.094-0.229,0.139
	c-1.297,1.011-2.593,2.025-3.89,3.036c-0.981,0.765-1.62,0.77-2.601,0.015C19.982,31.893,18.589,30.81,17.135,29.685z M4.92,37.132
	c3.28-3.214,6.445-6.316,9.646-9.454c-3.237-2.521-6.392-4.977-9.646-7.51C4.92,25.855,4.92,31.4,4.92,37.132z M40.179,37.095
	c0-5.697,0-11.218,0-16.879c-3.233,2.54-6.368,5.002-9.547,7.499C33.835,30.861,36.953,33.925,40.179,37.095z"/>
<path fill-rule="evenodd" clip-rule="evenodd" fill="#767676" d="M32.979,5.933c-7.002,0-13.87,0-20.814,0c0,4.542,0,9.049,0,13.716
	c-0.976-0.757-1.84-1.403-2.668-2.092c-0.149-0.124-0.21-0.423-0.211-0.643C9.272,12.848,9.271,8.779,9.28,4.712
	c0.002-1.046,0.504-1.555,1.539-1.624c0.193-0.013,0.388-0.007,0.581-0.007c7.434,0,14.867,0,22.3,0
	c1.715,0,2.125,0.417,2.126,2.146c0,3.85-0.01,7.7,0.012,11.55c0.002,0.486-0.136,0.811-0.526,1.097
	c-0.758,0.555-1.486,1.152-2.332,1.814C32.979,15.057,32.979,10.529,32.979,5.933z"/>
<path fill-rule="evenodd" clip-rule="evenodd" fill="#767676" d="M23.851,12.818c0.526-0.992,1.371-0.317,2.066-0.558
	c-0.114,1.311-0.228,2.51-0.316,3.711c-0.033,0.456-0.07,0.926-0.001,1.373c0.113,0.727,0.743,0.927,1.261,0.399
	c0.262-0.266,0.483-0.624,0.591-0.979c0.965-3.196-0.459-6.319-4.516-6.297c-3.813,0.021-6.437,3.663-5.346,7.319
	c0.556,1.866,2.225,3.208,4.273,3.223c1.402,0.011,2.807-0.216,4.28-0.343c-0.062-0.132-0.025-0.089-0.025-0.047
	c-0.006,1.583,0.316,1.374-1.32,1.712c-1.724,0.356-3.469,0.369-5.16-0.209c-5.068-1.736-5.007-7.567-2.734-10.424
	c2.719-3.417,8.07-3.312,10.705-1.269c2.566,1.99,2.816,6.471,0.376,8.264c-0.572,0.42-1.341,0.669-2.053,0.779
	c-1.16,0.179-1.785-0.292-2.224-1.444c-0.4,0.747-0.884,1.352-1.785,1.456c-1.155,0.133-2.138-0.38-2.622-1.403
	c-0.759-1.608-0.244-4.054,1.098-5.211C21.511,11.911,22.861,11.889,23.851,12.818z M23.916,15.259
	c-0.118-0.945-0.405-1.495-0.96-1.634c-0.687-0.171-1.359,0.175-1.647,1.068c-0.229,0.708-0.285,1.492-0.301,2.244
	c-0.011,0.532,0.301,0.979,0.889,1.08c0.585,0.1,1.093-0.132,1.323-0.662C23.515,16.684,23.689,15.96,23.916,15.259z"/>
</svg>
