<?xml version="1.0" encoding="utf-8"?>
<!-- Generator: Adobe Illustrator 16.0.0, SVG Export Plug-In . SVG Version: 6.00 Build 0)  -->
<!DOCTYPE svg PUBLIC "-//W3C//DTD SVG 1.1//EN" "http://www.w3.org/Graphics/SVG/1.1/DTD/svg11.dtd">
<svg version="1.1" id="圖層_1" xmlns="http://www.w3.org/2000/svg" xmlns:xlink="http://www.w3.org/1999/xlink" x="0px" y="0px"
	 width="167.988px" height="102.666px" viewBox="0 0 167.988 102.666" enable-background="new 0 0 167.988 102.666"
	 xml:space="preserve">
<g>
	<g>
		<path fill="#666666" d="M40.779,97.435c0-0.877,0.022-1.64-0.004-2.399c-0.053-1.576-1.11-2.677-2.546-2.681
			c-1.448-0.006-2.506,1.078-2.564,2.66c-0.029,0.762-0.005,1.527-0.005,2.42c-0.407,0-0.748,0-1.088,0
			c-7.969,0-15.938,0-23.907-0.002c-3.51,0-5.58-2.088-5.581-5.617c-0.001-7.072,0.04-14.146-0.027-21.222
			c-0.018-1.896,0.663-3.208,2.218-4.247c4.154-2.785,6.702-6.666,7.691-11.574c1.343-6.666-1.667-14.125-7.37-17.837
			c-1.808-1.177-2.572-2.588-2.545-4.746c0.087-7.136,0.029-14.274,0.034-21.412c0.001-2.849,2.15-5.115,4.988-5.126
			c8.386-0.033,16.772-0.012,25.157-0.009c0.092,0,0.186,0.026,0.428,0.064c0,0.703-0.012,1.423,0.002,2.143
			c0.032,1.764,1.016,2.852,2.56,2.849c1.54-0.003,2.538-1.108,2.563-2.853c0.009-0.697,0.001-1.396,0.001-2.208
			c0.417,0,0.758,0,1.099,0c38.535,0,77.07-0.001,115.605,0c3.573,0,5.646,2.082,5.646,5.667c0,26.853,0,53.707,0,80.56
			c0,3.439-2.115,5.568-5.548,5.568c-38.602,0.002-77.199,0.002-115.8,0.002C41.501,97.435,41.216,97.435,40.779,97.435z
			 M101.878,87.06c15.363,0,30.726,0.002,46.09,0c2.061,0,2.851-0.783,2.851-2.832c0.002-21.795,0.002-43.593,0-65.389
			c0-2.043-0.798-2.83-2.857-2.83c-30.662,0-61.323,0-91.985,0c-2.12,0-2.879,0.763-2.879,2.887c0,21.732,0,43.464,0,65.198
			c0,2.255,0.715,2.966,2.982,2.966C71.343,87.062,86.61,87.06,101.878,87.06z M35.66,36.217c0.001,0,0.003,0,0.004,0
			c0,0.861-0.041,1.726,0.009,2.584c0.091,1.525,1.163,2.564,2.563,2.55c1.405-0.014,2.489-1.073,2.531-2.585
			c0.046-1.69,0.055-3.383-0.005-5.072c-0.053-1.529-1.133-2.536-2.564-2.528c-1.435,0.009-2.466,1.034-2.53,2.563
			C35.631,34.557,35.66,35.388,35.66,36.217z M35.661,66.798c0.004,0,0.007,0,0.012,0c0,0.893-0.055,1.791,0.011,2.678
			c0.113,1.508,1.127,2.437,2.551,2.426c1.41-0.008,2.47-0.977,2.524-2.457c0.063-1.721,0.06-3.446,0.002-5.168
			c-0.051-1.486-1.198-2.571-2.563-2.559c-1.37,0.014-2.466,1.115-2.529,2.592C35.632,65.138,35.661,65.97,35.661,66.798z
			 M40.779,20.907c-0.002,0-0.006,0-0.009,0c0-0.861,0.053-1.727-0.011-2.583c-0.106-1.418-1.257-2.484-2.568-2.465
			c-1.33,0.019-2.468,1.099-2.515,2.512c-0.055,1.689-0.057,3.383-0.001,5.072c0.054,1.61,1.108,2.591,2.614,2.561
			c1.433-0.029,2.426-1.055,2.483-2.608C40.805,22.567,40.779,21.737,40.779,20.907z M35.659,82.071c0.002,0,0.003,0,0.006,0
			c0,0.859-0.042,1.726,0.009,2.582c0.091,1.509,1.193,2.576,2.567,2.557c1.382-0.02,2.486-1.113,2.526-2.602
			c0.044-1.657,0.05-3.319-0.002-4.976c-0.051-1.579-1.14-2.597-2.622-2.567c-1.421,0.027-2.426,1.07-2.479,2.613
			C35.636,80.476,35.659,81.272,35.659,82.071z M35.659,51.439c0.006,0,0.012,0.001,0.018,0.001c0,0.928-0.065,1.86,0.014,2.782
			c0.128,1.494,1.196,2.414,2.62,2.365c1.362-0.046,2.396-1.016,2.448-2.457c0.063-1.727,0.066-3.458-0.003-5.185
			c-0.06-1.471-1.159-2.473-2.539-2.472c-1.424,0.001-2.485,1.049-2.551,2.566C35.631,49.837,35.659,50.64,35.659,51.439z"/>
		<path fill="#666666" d="M125.436,67.755c5.853,0,11.704-0.007,17.557,0.005c1.953,0.005,3.116,1.224,3.051,3.13
			c-0.049,1.399-0.972,2.56-2.212,2.766c-0.283,0.047-0.571,0.064-0.857,0.064c-11.732,0.002-23.466,0.006-35.199,0
			c-1.622-0.001-2.54-0.658-2.958-2.058c-0.526-1.761,0.477-3.593,2.119-3.843c0.397-0.06,0.801-0.061,1.202-0.061
			C113.902,67.755,119.667,67.755,125.436,67.755z"/>
		<path fill="#666666" d="M125.262,46.766c-5.909-0.001-11.818,0.007-17.727-0.004c-1.772-0.004-2.875-1.207-2.855-3.041
			c0.015-1.448,0.968-2.636,2.315-2.878c0.253-0.045,0.513-0.042,0.771-0.042c11.733-0.002,23.464-0.003,35.198,0
			c1.756,0,2.963,1.091,3.072,2.749c0.116,1.817-1.006,3.193-2.703,3.207c-3.327,0.027-6.654,0.01-9.981,0.011
			C130.657,46.767,127.958,46.767,125.262,46.766z"/>
		<path fill="#666666" d="M119.812,29.348c4.045,0,8.091-0.006,12.135,0.004c1.565,0.004,2.474,0.652,2.904,2.016
			c0.554,1.748-0.436,3.607-2.081,3.877c-0.395,0.064-0.801,0.067-1.2,0.067c-7.804,0.003-15.604,0.003-23.411-0.001
			c-0.4,0-0.804-0.02-1.198-0.082c-1.435-0.227-2.319-1.436-2.277-3.07c0.038-1.452,1.03-2.605,2.392-2.767
			c0.343-0.041,0.688-0.042,1.03-0.043C112.008,29.347,115.909,29.348,119.812,29.348z"/>
		<path fill="#666666" d="M119.94,56.304c4.016,0,8.034,0.055,12.049-0.022c1.958-0.04,3.039,1.561,3.023,3.003
			c-0.021,1.767-1.241,2.982-3.053,2.984c-8.063,0.006-16.125,0.01-24.189-0.004c-2.328-0.002-3.75-2.113-2.868-4.231
			c0.515-1.235,1.438-1.738,2.641-1.734C111.676,56.312,115.807,56.304,119.94,56.304z"/>
	</g>
	<g>
		<path fill="#DA541A" d="M78.591,34.542c0.699,0.033,1.218,0.507,1.572,1.228c1.308,2.654,2.622,5.307,3.934,7.959
			c0.059,0.12,0.134,0.235,0.177,0.359c0.165,0.484,0.477,0.667,1.007,0.738c3.067,0.411,6.125,0.889,9.188,1.32
			c0.903,0.126,1.573,0.577,1.873,1.398c0.298,0.817-0.072,1.504-0.689,2.1c-2.257,2.18-4.49,4.384-6.744,6.569
			c-0.256,0.25-0.367,0.479-0.301,0.849c0.561,3.176,1.11,6.356,1.641,9.539c0.125,0.752-0.144,1.405-0.766,1.863
			c-0.646,0.475-1.35,0.504-2.055,0.139c-1.964-1.024-3.922-2.061-5.883-3.093c-0.912-0.479-1.831-0.948-2.73-1.452
			c-0.303-0.17-0.528-0.16-0.834,0.002c-2.798,1.49-5.603,2.965-8.41,4.438c-1.105,0.582-2.138,0.384-2.694-0.582
			c-0.205-0.353-0.331-0.847-0.27-1.24c0.499-3.149,1.043-6.292,1.595-9.432c0.079-0.454,0.008-0.771-0.343-1.106
			c-2.273-2.191-4.528-4.402-6.777-6.618c-0.901-0.888-0.896-2.209,0.015-2.92c0.274-0.214,0.64-0.371,0.983-0.423
			c3.172-0.481,6.347-0.947,9.525-1.38c0.413-0.056,0.595-0.237,0.755-0.566c1.384-2.81,2.779-5.613,4.158-8.425
			C76.917,34.99,77.518,34.525,78.591,34.542z"/>
	</g>
</g>
</svg>
