<?xml version="1.0" encoding="utf-8"?>
<!-- Generator: Adobe Illustrator 25.2.0, SVG Export Plug-In . SVG Version: 6.00 Build 0)  -->
<svg version="1.1" id="圖層_1" xmlns="http://www.w3.org/2000/svg" xmlns:xlink="http://www.w3.org/1999/xlink" x="0px" y="0px"
	 viewBox="0 0 166.5 130.3" style="enable-background:new 0 0 166.5 130.3;" xml:space="preserve">
<style type="text/css">
	.st0{fill-rule:evenodd;clip-rule:evenodd;fill:#AEADAD;}
	.st1{fill:#AEADAD;}
	.st2{fill:#9A1F25;}
	.st3{fill:#CF2629;}
	.st4{fill:#DE3532;}
	.st5{fill:#F0EFEF;}
	.st6{fill:#FFFFFF;}
</style>
<g>
	<path class="st0" d="M42.2,130.3c0-1.2,0-2.2,0-3.2c-0.1-2.1-1.1-3.6-2.6-3.6c-1.5,0-2.5,1.5-2.6,3.6c0,1,0,2.1,0,3.3
		c-0.4,0-0.8,0-1.1,0c-8.1,0-16.2,0-24.3,0c-3.6,0-5.7-2.8-5.7-7.6c0-9.6,0-19.2,0-28.7c0-2.6,0.7-4.3,2.3-5.8
		c4.2-3.8,6.8-9,7.8-15.7c1.4-9-1.7-19.1-7.5-24.2c-1.8-1.6-2.6-3.5-2.6-6.4c0.1-9.7,0-19.3,0-29C6,9.1,8.1,6,11,6
		c8.5,0,17,0,25.6,0c0.1,0,0.2,0,0.4,0.1C37,7,37,8,37,9c0,2.4,1,3.9,2.6,3.9c1.6,0,2.6-1.5,2.6-3.9c0-0.9,0-1.9,0-3
		c0.4,0,0.8,0,1.1,0c39.2,0,78.3,0,117.5,0c3.6,0,5.7,2.8,5.7,7.7c0,36.4,0,72.7,0,109.1c0,4.7-2.1,7.5-5.6,7.5
		c-39.2,0-78.4,0-117.7,0C43,130.3,42.7,130.3,42.2,130.3z M104.3,116.2c15.6,0,31.2,0,46.8,0c2.1,0,2.9-1.1,2.9-3.8
		c0-29.5,0-59,0-88.6c0-2.8-0.8-3.8-2.9-3.8c-31.2,0-62.3,0-93.5,0c-2.2,0-2.9,1-2.9,3.9c0,29.4,0,58.9,0,88.3c0,3.1,0.7,4,3,4
		C73.3,116.2,88.8,116.2,104.3,116.2z M37,47.4C37,47.4,37,47.4,37,47.4c0,1.2,0,2.3,0,3.5c0.1,2.1,1.2,3.5,2.6,3.5
		c1.4,0,2.5-1.5,2.6-3.5c0-2.3,0.1-4.6,0-6.9c-0.1-2.1-1.2-3.4-2.6-3.4c-1.5,0-2.5,1.4-2.6,3.5C37,45.1,37,46.3,37,47.4z M37,88.8
		C37,88.8,37,88.8,37,88.8c0,1.2,0,2.4,0,3.6c0.1,2,1.1,3.3,2.6,3.3c1.4,0,2.5-1.3,2.6-3.3c0.1-2.3,0.1-4.7,0-7
		c-0.1-2-1.2-3.5-2.6-3.5c-1.4,0-2.5,1.5-2.6,3.5C37,86.6,37,87.7,37,88.8z M42.2,26.7C42.2,26.7,42.2,26.7,42.2,26.7
		c0-1.2,0-2.3,0-3.5c-0.1-1.9-1.3-3.4-2.6-3.3c-1.4,0-2.5,1.5-2.6,3.4c-0.1,2.3-0.1,4.6,0,6.9c0.1,2.2,1.1,3.5,2.7,3.5
		c1.5,0,2.5-1.4,2.5-3.5C42.2,28.9,42.2,27.8,42.2,26.7z M37,109.5C37,109.5,37,109.5,37,109.5c0,1.2,0,2.3,0,3.5
		c0.1,2,1.2,3.5,2.6,3.5c1.4,0,2.5-1.5,2.6-3.5c0-2.2,0-4.5,0-6.7c-0.1-2.1-1.2-3.5-2.7-3.5c-1.4,0-2.5,1.5-2.5,3.5
		C37,107.3,37,108.4,37,109.5z M37,68C37,68,37,68,37,68c0,1.3,0,2.5,0,3.8c0.1,2,1.2,3.3,2.7,3.2c1.4-0.1,2.4-1.4,2.5-3.3
		c0.1-2.3,0.1-4.7,0-7c-0.1-2-1.2-3.3-2.6-3.3c-1.4,0-2.5,1.4-2.6,3.5C37,65.8,37,66.9,37,68z"/>
	<path class="st1" d="M113.2,46.2v-6.3c0-1.6,1.2-2.9,2.6-2.9c1.4,0,2.6,1.3,2.6,2.9v6.3c0,1.6-1.2,2.9-2.6,2.9
		C114.3,49.1,113.2,47.8,113.2,46.2z M83,86.6c-0.6,0-1.1-0.5-1.1-1.1V58.8h40.2v7.9c1.6,0.1,3.1,0.4,4.6,0.8v-8.7V47.6
		c0-3.2-2.6-5.7-5.7-5.7h-0.1v4.4c0,3-2.3,5.4-5.1,5.4c-2.8,0-5.1-2.4-5.1-5.4v-4.4H93.2v4.4c0,3-2.3,5.4-5.1,5.4
		c-2.8,0-5.1-2.4-5.1-5.4v-4.4H83c-3.2,0-5.7,2.6-5.7,5.7v11.3v26.7c0,3.2,2.6,5.7,5.7,5.7h22.9c-0.7-1.4-1.2-3-1.5-4.6L83,86.6
		L83,86.6z M104.9,61.5H99c-0.9,0-1.7,0.8-1.7,1.7v5.9c0,0.9,0.8,1.7,1.7,1.7h5.9c0.9,0,1.7-0.8,1.7-1.7v-5.9
		C106.6,62.3,105.8,61.5,104.9,61.5z M104.9,74H99c-0.9,0-1.7,0.8-1.7,1.7v5.9c0,0.9,0.8,1.7,1.7,1.7h5.2c0.1-3,0.9-5.8,2.3-8.2
		C106.3,74.5,105.7,74,104.9,74z M117.7,61.5h-5.9c-0.9,0-1.7,0.8-1.7,1.7v5.9c0,0.5,0.2,1,0.6,1.3c2.5-2,5.5-3.3,8.8-3.7v-3.6
		C119.4,62.3,118.6,61.5,117.7,61.5z M92.1,74h-5.9c-0.9,0-1.7,0.8-1.7,1.7v5.9c0,0.9,0.8,1.7,1.7,1.7h5.9c0.9,0,1.7-0.8,1.7-1.7
		v-5.9C93.9,74.8,93.1,74,92.1,74z M88.1,49.1c1.4,0,2.6-1.3,2.6-2.9v-6.3c0-1.6-1.2-2.9-2.6-2.9c-1.4,0-2.6,1.3-2.6,2.9v6.3
		C85.5,47.8,86.7,49.1,88.1,49.1z M130,82.3c-0.8,0-1.5,0.7-1.5,1.5c0,0.8,0.7,1.5,1.5,1.5c0.8,0,1.5-0.7,1.5-1.5
		C131.6,82.9,130.9,82.3,130,82.3z M111,83.8c0,0.8,0.7,1.5,1.5,1.5c0.8,0,1.5-0.7,1.5-1.5c0-0.8-0.7-1.5-1.5-1.5
		C111.7,82.3,111,82.9,111,83.8z M121.3,76.5c0.8,0,1.5-0.7,1.5-1.5c0-0.8-0.7-1.5-1.5-1.5c-0.8,0-1.5,0.7-1.5,1.5
		C119.8,75.9,120.4,76.5,121.3,76.5z M121.3,91c-0.8,0-1.5,0.7-1.5,1.5c0,0.8,0.7,1.5,1.5,1.5c0.8,0,1.5-0.7,1.5-1.5
		C122.8,91.7,122.1,91,121.3,91z M135.5,83.8c0,7.9-6.4,14.3-14.3,14.3c-7.9,0-14.3-6.4-14.3-14.3c0-7.9,6.4-14.3,14.3-14.3
		C129.2,69.5,135.5,75.9,135.5,83.8z M132.4,83.8c0-6.1-5-11.1-11.1-11.1c-6.1,0-11.1,5-11.1,11.1c0,6.1,5,11.1,11.1,11.1
		C127.4,94.9,132.4,89.9,132.4,83.8z M121.3,81.7c-1.1,0-2.1,0.9-2.1,2.1c0,1.1,0.9,2.1,2.1,2.1c0.2,0,0.3,0,0.5-0.1L125,89
		c0.2,0.2,0.5,0.3,0.7,0.3c0.3,0,0.5-0.1,0.7-0.3c0.4-0.4,0.4-1.1,0-1.5l-3.3-3.3c0-0.2,0.1-0.3,0.1-0.5c0-0.3-0.1-0.5-0.2-0.8
		l4.9-4.9c0.3-0.3,0.3-0.8,0-1.1c-0.2-0.2-0.4-0.2-0.6-0.2c-0.2,0-0.4,0.1-0.6,0.2l-4.9,4.9C121.8,81.8,121.6,81.7,121.3,81.7z"/>
</g>
<g>
	<g>
		<path class="st2" d="M6,104.5v14.9l-4.3-3.6c-0.5-0.4-0.9-1-1.2-1.6c-0.3-0.7-0.5-1.7-0.5-3L6,104.5z"/>
		<path class="st2" d="M116.8,6h14.9l-4-4.8c0,0-1.2-1.2-4.2-1.2L116.8,6z"/>
		<path class="st3" d="M121.8,1.5c-1.8,1.7-3.2,2.9-3.2,2.9L121.8,1.5z"/>
		<polygon class="st3" points="121.8,1.5 121.8,1.5 121.8,1.5 		"/>
		<path class="st3" d="M0.2,112.9C0.2,112.9,0.2,112.9,0.2,112.9C0.2,112.9,0.2,112.9,0.2,112.9z"/>
		<path class="st3" d="M2.8,57.3l67-55.5C71.2,0.6,73,0,74.8,0H121h2.5c0.7,0,1.3,0.1,1.8,0.2c-0.2,0-1.8-0.2-3.5,1.3l0,0l-120,108
			c-1.8,1.7-1.7,3-1.7,3.4c-0.1-0.5-0.2-1.1-0.2-1.7l0,0V63.3C0,61,1,58.8,2.8,57.3z"/>
		<polygon class="st4" points="67.7,3.5 101.8,19.5 86,33.7 51.1,17.3 		"/>
		<polygon class="st4" points="43.4,23.7 78.7,40.3 68.8,49.2 32.9,32.4 		"/>
		<path class="st3" d="M118.2,0.7L119,0h0C118.7,0.2,118.4,0.5,118.2,0.7L118.2,0.7z"/>
		<path class="st3" d="M116,2.7l0.4-0.4l0,0C116.1,2.5,116,2.7,116,2.7z"/>
		<g>
			
				<rect x="51.8" y="59.1" transform="matrix(0.7435 -0.6687 0.6687 0.7435 -26.1058 50.6598)" class="st5" width="2.4" height="0.6"/>
			<polygon class="st5" points="0.5,107 0,107.4 0,106.6 0.1,106.5 			"/>
			
				<rect x="37.5" y="71.9" transform="matrix(0.7435 -0.6687 0.6687 0.7435 -38.3651 44.4026)" class="st5" width="2.4" height="0.6"/>
			
				<rect x="41.1" y="68.7" transform="matrix(0.7431 -0.6691 0.6691 0.7431 -35.3148 46.0098)" class="st5" width="2.4" height="0.6"/>
			
				<rect x="44.6" y="65.5" transform="matrix(0.7437 -0.6685 0.6685 0.7437 -32.23 47.5107)" class="st5" width="2.4" height="0.6"/>
			
				<rect x="33.9" y="75.1" transform="matrix(0.7433 -0.6689 0.6689 0.7433 -41.4427 42.8592)" class="st5" width="2.4" height="0.6"/>
			
				<rect x="48.2" y="62.3" transform="matrix(0.7435 -0.6687 0.6687 0.7435 -29.1721 49.0962)" class="st5" width="2.4" height="0.6"/>
			
				<rect x="58.9" y="52.6" transform="matrix(0.7431 -0.6691 0.6691 0.7431 -19.9752 53.8325)" class="st5" width="2.4" height="0.6"/>
			
				<rect x="55.4" y="55.8" transform="matrix(0.7431 -0.6691 0.6691 0.7431 -23.043 52.2677)" class="st5" width="2.4" height="0.6"/>
			
				<rect x="30.4" y="78.3" transform="matrix(0.7435 -0.6687 0.6687 0.7435 -44.4989 41.2751)" class="st5" width="2.4" height="0.6"/>
			
				<rect x="26.8" y="81.6" transform="matrix(0.7437 -0.6685 0.6685 0.7437 -47.5498 39.6904)" class="st5" width="2.4" height="0.6"/>
			
				<rect x="5.4" y="100.8" transform="matrix(0.7431 -0.6691 0.6691 0.7431 -65.9942 30.3634)" class="st5" width="2.4" height="0.6"/>
			
				<rect x="8.9" y="97.6" transform="matrix(0.7433 -0.6689 0.6689 0.7433 -62.9087 31.9087)" class="st5" width="2.4" height="0.6"/>
			
				<rect x="1.8" y="104.1" transform="matrix(0.7431 -0.6691 0.6691 0.7431 -69.0627 28.7989)" class="st5" width="2.4" height="0.6"/>
			
				<rect x="12.5" y="94.4" transform="matrix(0.7435 -0.6687 0.6687 0.7435 -59.8261 33.4529)" class="st5" width="2.4" height="0.6"/>
			
				<rect x="19.6" y="88" transform="matrix(0.7435 -0.6687 0.6687 0.7435 -53.6917 36.5825)" class="st5" width="2.4" height="0.6"/>
			<polygon class="st5" points="118.4,0.9 116.6,2.5 116.4,2.3 116.4,2.3 116.2,2.1 118,0.5 118.2,0.7 118.2,0.7 			"/>
			
				<rect x="62.5" y="49.4" transform="matrix(0.7433 -0.6689 0.6689 0.7433 -16.9087 55.3759)" class="st5" width="2.4" height="0.6"/>
			
				<rect x="16.1" y="91.2" transform="matrix(0.7433 -0.6689 0.6689 0.7433 -56.7752 35.0371)" class="st5" width="2.4" height="0.6"/>
			
				<rect x="23.2" y="84.8" transform="matrix(0.7431 -0.6691 0.6691 0.7431 -50.6548 38.1864)" class="st5" width="2.4" height="0.6"/>
			<rect x="87.5" y="26.9" transform="matrix(0.7431 -0.6691 0.6691 0.7431 4.5685 66.349)" class="st5" width="2.4" height="0.6"/>
			
				<rect x="66.1" y="46.2" transform="matrix(0.7437 -0.6685 0.6685 0.7437 -13.8465 56.8954)" class="st5" width="2.4" height="0.6"/>
			<rect x="83.9" y="30.1" transform="matrix(0.7432 -0.669 0.669 0.7432 1.4966 64.7723)" class="st5" width="2.4" height="0.6"/>
			
				<rect x="98.2" y="17.3" transform="matrix(0.7433 -0.6689 0.6689 0.7433 13.7576 71.0198)" class="st5" width="2.4" height="0.6"/>
			
				<rect x="94.7" y="20.5" transform="matrix(0.7436 -0.6686 0.6686 0.7436 10.6719 69.4207)" class="st5" width="2.4" height="0.6"/>
			<rect x="91.1" y="23.7" transform="matrix(0.7433 -0.6689 0.6689 0.7433 7.6247 67.891)" class="st5" width="2.4" height="0.6"/>
			
				<rect x="80.4" y="33.4" transform="matrix(0.7433 -0.6689 0.6689 0.7433 -1.5758 63.1982)" class="st5" width="2.4" height="0.6"/>
			
				<rect x="69.6" y="43" transform="matrix(0.7434 -0.6688 0.6688 0.7434 -10.7767 58.4933)" class="st5" width="2.4" height="0.6"/>
			
				<rect x="108.9" y="7.6" transform="matrix(0.7434 -0.6688 0.6688 0.7434 22.949 75.7008)" class="st5" width="2.4" height="0.6"/>
			<rect x="73.2" y="39.8" transform="matrix(0.7432 -0.669 0.669 0.7432 -7.7057 60.0791)" class="st5" width="2.4" height="0.6"/>
			
				<rect x="112.5" y="4.4" transform="matrix(0.7436 -0.6686 0.6686 0.7436 25.9948 77.2422)" class="st5" width="2.4" height="0.6"/>
			
				<rect x="101.8" y="14.1" transform="matrix(0.7431 -0.6691 0.6691 0.7431 16.8399 72.6072)" class="st5" width="2.4" height="0.6"/>
			
				<rect x="76.8" y="36.6" transform="matrix(0.7431 -0.6691 0.6691 0.7431 -4.6354 61.655)" class="st5" width="2.4" height="0.6"/>
			
				<rect x="105.4" y="10.9" transform="matrix(0.7432 -0.669 0.669 0.7432 19.9004 74.1597)" class="st5" width="2.4" height="0.6"/>
			
				<rect x="10.8" y="52.5" transform="matrix(0.7706 -0.6373 0.6373 0.7706 -30.9244 19.7828)" class="st5" width="2.4" height="0.6"/>
			<path class="st5" d="M2,61.5L0.2,63L0,62.8c0-0.2,0-0.3,0-0.5L1.7,61L2,61.5z"/>
			
				<rect x="47.8" y="21.9" transform="matrix(0.7703 -0.6377 0.6377 0.7703 -2.8959 36.3654)" class="st5" width="2.4" height="0.6"/>
			
				<rect x="36.7" y="31.1" transform="matrix(0.7701 -0.6379 0.6379 0.7701 -11.3105 31.41)" class="st5" width="2.4" height="0.6"/>
			<rect x="40.4" y="28" transform="matrix(0.7703 -0.6377 0.6377 0.7703 -8.5057 33.0535)" class="st5" width="2.4" height="0.6"/>
			<rect x="44.1" y="25" transform="matrix(0.7704 -0.6375 0.6375 0.7704 -5.7037 34.6962)" class="st5" width="2.4" height="0.6"/>
			<rect x="33" y="34.2" transform="matrix(0.77 -0.6381 0.6381 0.77 -14.1154 29.7657)" class="st5" width="2.4" height="0.6"/>
			<rect x="18.2" y="46.4" transform="matrix(0.77 -0.6381 0.6381 0.77 -25.3425 23.1406)" class="st5" width="2.4" height="0.6"/>
			
				<rect x="25.6" y="40.3" transform="matrix(0.7703 -0.6377 0.6377 0.7703 -19.7238 26.4292)" class="st5" width="2.4" height="0.6"/>
			
				<rect x="14.5" y="49.5" transform="matrix(0.7698 -0.6383 0.6383 0.7698 -28.1574 21.4938)" class="st5" width="2.4" height="0.6"/>
			
				<rect x="21.9" y="43.4" transform="matrix(0.7701 -0.6379 0.6379 0.7701 -22.5301 24.7853)" class="st5" width="2.4" height="0.6"/>
			
				<rect x="29.3" y="37.2" transform="matrix(0.7703 -0.6377 0.6377 0.7703 -16.9193 28.0857)" class="st5" width="2.4" height="0.6"/>
			
				<rect x="3.4" y="58.7" transform="matrix(0.7698 -0.6383 0.6383 0.7698 -36.5827 16.5257)" class="st5" width="2.4" height="0.6"/>
			
				<rect x="51.5" y="18.8" transform="matrix(0.7701 -0.6379 0.6379 0.7701 -8.737224e-02 38.0356)" class="st5" width="2.4" height="0.6"/>
			<path class="st5" d="M75.6,0.6l-1.4,1.1l-0.4-0.5l1.4-1.1c0.1,0,0.1-0.1,0.2-0.1h0.5L76,0.2C75.9,0.4,75.7,0.5,75.6,0.6z"/>
			<rect x="70" y="3.5" transform="matrix(0.7703 -0.6377 0.6377 0.7703 13.9365 46.3051)" class="st5" width="2.4" height="0.6"/>
			
				<rect x="7.1" y="55.6" transform="matrix(0.7703 -0.6377 0.6377 0.7703 -33.7483 18.1538)" class="st5" width="2.4" height="0.6"/>
			
				<rect x="58.9" y="12.7" transform="matrix(0.7704 -0.6375 0.6375 0.7704 5.5098 41.3196)" class="st5" width="2.4" height="0.6"/>
			
				<rect x="55.2" y="15.8" transform="matrix(0.7701 -0.6379 0.6379 0.7701 2.7182 39.6923)" class="st5" width="2.4" height="0.6"/>
			
				<rect x="66.3" y="6.6" transform="matrix(0.7703 -0.6377 0.6377 0.7703 11.1314 44.6486)" class="st5" width="2.4" height="0.6"/>
			<rect x="62.6" y="9.6" transform="matrix(0.77 -0.6381 0.6381 0.77 8.3372 43.0149)" class="st5" width="2.4" height="0.6"/>
		</g>
	</g>
	<g>
		<g>
			<g>
				<path class="st6" d="M24.7,51.3c0.4-0.3,0.8-0.5,1.3-0.4s0.9,0.3,1.2,0.7l3.9,4.7c0.2,0.2,0.3,0.5,0.4,0.7
					c0.1,0.3,0.1,0.5,0.1,0.8c0,0.3-0.1,0.5-0.2,0.8c-0.1,0.3-0.3,0.5-0.5,0.7L20.5,68l4.8,5.8c0.2,0.3,0.5,0.4,0.8,0.5
					c0.3,0,0.6,0,0.9-0.3l9.7-8.1c0.5-0.4,0.8-0.8,1-1.3c0.2-0.4,0.3-0.8,0.3-1.2c0-0.4-0.1-0.8-0.2-1.2l0.9-0.3
					c0.4,0.8,0.5,1.5,0.5,2.1s-0.2,1.1-0.4,1.5c-0.2,0.5-0.6,0.9-1,1.2l-10,8.4c-0.3,0.3-0.7,0.5-1.1,0.6c-0.4,0.1-0.8,0.2-1.2,0.1
					c-0.4,0-0.8-0.1-1.1-0.3c-0.4-0.2-0.7-0.4-0.9-0.8l-6.9-8.3L18,65l2,2.4l9.7-8.1c0.2-0.2,0.4-0.5,0.4-0.8c0-0.3-0.1-0.6-0.3-0.8
					l-4.4-5.3c-0.1-0.1-0.2-0.2-0.4-0.2c-0.2,0-0.3,0-0.4,0.1l-11.8,9.9l-0.5-0.6L24.7,51.3z"/>
				<path class="st6" d="M39.9,48.4c0-1,0-2-0.2-3.1c-0.1-0.9-0.3-2-0.6-3.1c-0.3-1.1-0.7-2.3-1.2-3.4l1.8-1
					c0.3,0.6,0.6,1.2,0.8,1.9c0.2,0.6,0.4,1.2,0.5,1.6c0.1,0.6,0.2,1.1,0.3,1.6L52,55.7l-1.5,1.2l-9.4-11.2c0,0.4-0.1,0.8-0.1,1.1
					s-0.1,0.7-0.2,0.9c-0.1,0.3-0.2,0.6-0.2,0.9L39.9,48.4z M54.1,46.4c0-0.3-0.1-0.7-0.2-1.1c-0.1-0.3-0.2-0.7-0.4-1.2
					c-0.2-0.4-0.5-0.9-0.8-1.4l-4.7,3.9l-4-4.8l1.4-1.2l0.3,0.4c0.1-0.3,0.2-0.5,0.3-0.8c0.1-0.3,0.3-0.5,0.6-0.7l2.1-1.7l-1.9-2.2
					l-5.1,4.2l-0.5-0.6l5.1-4.2l-1.5-1.8l1.5-1.2l1.5,1.8l5.1-4.2l0.5,0.6l-5.1,4.2l1.9,2.2l3.2-2.7c0.4-0.3,0.9-0.5,1.4-0.4
					c0.5,0,0.9,0.3,1.3,0.7l1.6,1.9c0.3,0.4,0.5,0.9,0.4,1.4c0,0.5-0.3,0.9-0.7,1.3l-3.2,2.7c1,1.4,1.5,2.9,1.6,4.5
					c0.3,0,0.7-0.1,1.3-0.2c0.6-0.1,1.2-0.3,2-0.6c0.8-0.3,1.6-0.6,2.5-1c0.9-0.4,1.9-0.9,2.9-1.4l0.7,1.9c-1.2,0.6-2.4,1.2-3.6,1.5
					s-2.2,0.7-3,0.9c-1,0.2-2,0.4-2.9,0.5c-0.1,0.7-0.2,1.4-0.4,2.2c-0.2,0.7-0.4,1.4-0.7,2.3c-0.3,0.8-0.8,1.7-1.3,2.6l-0.7-0.3
					c0.3-0.6,0.6-1.3,0.8-2c0.2-0.6,0.4-1.3,0.6-2.1s0.3-1.6,0.3-2.5c-0.6,0-1.2,0-1.8-0.1c-0.6-0.1-1.2-0.1-1.6-0.2
					c-0.6-0.1-1.1-0.2-1.6-0.3l0.1-0.9c0.7,0.1,1.4,0.1,2,0.1c0.6,0,1.1,0,1.6,0C53.2,46.4,53.6,46.4,54.1,46.4z M52.2,42.1l-3-3.6
					l-2.1,1.7c-0.2,0.2-0.4,0.4-0.5,0.7c-0.1,0.3-0.3,0.6-0.3,0.8l2.6,3.2L52.2,42.1z M53.6,40.9l2.8-2.3c0.1-0.1,0.2-0.2,0.2-0.4
					c0-0.2,0-0.3-0.1-0.4L54.2,35c-0.1-0.1-0.2-0.2-0.4-0.2c-0.2,0-0.3,0-0.5,0.1l-2.8,2.3L53.6,40.9z"/>
				<path class="st6" d="M85.1,20.6c0.4,0.5,0.8,1.1,1,1.8c0.1,0.3,0.2,0.6,0.2,0.9c0.1,0.3,0.1,0.7,0.1,1c0,0.4,0,0.8-0.1,1.1
					c-0.1,0.4-0.2,0.8-0.4,1.2l-0.8-0.1c0.1-0.4,0-0.9,0-1.4c-0.1-0.4-0.2-0.9-0.4-1.4c-0.2-0.5-0.5-1-0.9-1.6l-2.1-2.5l-4.8,4
					l4.9,5.8l-1.5,1.3l-4.9-5.8l-4.7,3.9c0.4,0.6,0.9,1.2,1.3,1.9c0.4,0.7,0.7,1.4,0.9,2.1c0.2,0.7,0.4,1.5,0.4,2.3
					c0,0.8,0,1.6-0.3,2.5l-0.8,0c0-1-0.2-1.8-0.4-2.6c-0.2-0.8-0.6-1.6-1-2.4c-0.4-0.8-1-1.6-1.7-2.5c-0.7-0.9-1.5-1.9-2.4-3
					l-5.5-6.6l1.5-1.3l0.6,0.7c0.1-0.4,0.3-0.8,0.5-1.2c0.2-0.4,0.5-0.8,0.9-1.1l9.2-7.7c0.4-0.3,0.8-0.5,1.3-0.4s0.9,0.3,1.2,0.7
					L85.1,20.6z M65.4,18.1c-0.5,0.4-0.8,0.9-1,1.4s-0.4,1-0.4,1.3l2.5,2.9l4.6-3.9l-3.2-3.8L65.4,18.1z M67.7,25.4
					c0.4,0.4,0.8,0.9,1.2,1.4c0.4,0.5,0.9,1,1.3,1.6l4.6-3.9l-3.4-4.1l-4.6,3.9L67.7,25.4z M69.4,14.8l3.2,3.8l4.8-4l-2.8-3.4
					c-0.1-0.1-0.2-0.2-0.4-0.2c-0.2,0-0.3,0-0.5,0.1L69.4,14.8z M76.4,23.2l4.8-4l-3.4-4.1l-4.8,4L76.4,23.2z"/>
			</g>
		</g>
	</g>
</g>
</svg>
