<?xml version="1.0" encoding="utf-8"?>
<!-- Generator: Adobe Illustrator 16.0.0, SVG Export Plug-In . SVG Version: 6.00 Build 0)  -->
<!DOCTYPE svg PUBLIC "-//W3C//DTD SVG 1.1//EN" "http://www.w3.org/Graphics/SVG/1.1/DTD/svg11.dtd">
<svg version="1.1" id="圖層_1" xmlns="http://www.w3.org/2000/svg" xmlns:xlink="http://www.w3.org/1999/xlink" x="0px" y="0px"
	 width="35px" height="35px" viewBox="0 0 35 35" enable-background="new 0 0 35 35" xml:space="preserve">
<g display="none">
	<path display="inline" fill-rule="evenodd" clip-rule="evenodd" fill="#232323" d="M29.281,13.712
		c0.013,0.929-0.288,2.114-0.713,3.275c-1.167,3.196-2.862,6.119-4.763,8.917c-1.715,2.525-3.542,4.976-5.338,7.445
		c-0.566,0.777-1.354,0.832-1.927,0.083c-3.744-4.885-7.361-9.853-9.792-15.563C4.792,13.275,5.682,9.137,8.956,5.498
		c4.121-4.581,11.574-4.931,16.193-0.852C27.785,6.974,29.159,9.882,29.281,13.712z M17.478,31.201
		c1.107-1.548,2.155-2.971,3.159-4.421c2.13-3.08,4.151-6.228,5.622-9.692c0.733-1.729,1.093-3.49,0.696-5.385
		c-1.105-5.277-6.086-8.356-10.894-7.648C11.685,4.7,8.08,8.582,7.865,13.018c-0.08,1.649,0.444,3.141,1.083,4.604
		c1.461,3.34,3.447,6.377,5.499,9.37C15.401,28.382,16.417,29.731,17.478,31.201z"/>
	<path display="inline" fill-rule="evenodd" clip-rule="evenodd" fill="#232323" d="M17.51,8.232
		c2.948,0.005,5.353,2.412,5.35,5.354c-0.003,2.941-2.402,5.349-5.35,5.364c-2.956,0.017-5.377-2.412-5.376-5.394
		C12.135,10.628,14.558,8.227,17.51,8.232z M14.306,13.569c-0.01,1.765,1.4,3.195,3.161,3.212c1.753,0.016,3.208-1.41,3.22-3.154
		c0.012-1.797-1.414-3.246-3.192-3.246C15.739,10.382,14.316,11.805,14.306,13.569z"/>
</g>
<g display="none">
	<path display="inline" fill-rule="evenodd" clip-rule="evenodd" fill="#232323" d="M29.725,11.445
		c-1.005,1.117-1.984,2.258-3.021,3.344c-0.875,0.914-1.83,1.752-2.726,2.648c-0.96,0.961-1.897,1.947-2.837,2.93
		c-0.548,0.568-1.045,1.197-1.649,1.701c-0.166,0.137-0.739,0.031-0.941-0.162c-1.582-1.498-3.123-3.041-4.667-4.578
		c-0.339-0.338-0.354-0.732-0.007-1.076c3.397-3.357,6.797-6.714,10.213-10.052C24.225,6.067,24.651,6,24.748,6.098
		c1.733,1.746,3.438,3.521,5.144,5.294c0.054,0.055,0.04,0.174,0.058,0.262C29.875,11.583,29.799,11.513,29.725,11.445z"/>
	<path display="inline" fill-rule="evenodd" clip-rule="evenodd" fill="#232323" d="M32.137,9.353
		c-0.25-0.186-0.454-0.3-0.613-0.461c-1.506-1.518-2.989-3.058-4.514-4.559c-0.466-0.459-0.408-0.796,0.051-1.158
		c0.47-0.374,0.929-0.766,1.436-1.083c0.183-0.115,0.588-0.148,0.718-0.028c1.489,1.373,3.001,2.729,4.384,4.204
		c0.63,0.673,0.383,1.257-0.613,2.292C32.724,8.83,32.436,9.073,32.137,9.353z"/>
	<path display="inline" fill-rule="evenodd" clip-rule="evenodd" fill="#232323" d="M9.523,26.304
		c0.211-0.779,0.352-1.305,0.493-1.83c0.393-1.457,0.778-2.914,1.184-4.367c0.067-0.242,0.178-0.525,0.362-0.664
		c0.1-0.076,0.455,0.061,0.601,0.199c1.536,1.467,3.052,2.951,4.693,4.549C14.387,24.904,12.105,25.56,9.523,26.304z"/>
</g>
<g>
	<path fill-rule="evenodd" clip-rule="evenodd" fill="#222222" d="M27.992,3.341c0.448,0.244,0.518,0.166,0.881,0.501
		c0.984,0.908,1.915,1.875,2.846,2.839c0.892,0.922,0.905,2.016,0.01,2.917c-5.117,5.158-10.25,10.307-15.383,15.451
		c-0.137,0.137-0.338,0.232-0.526,0.291c-1.776,0.549-3.554,1.092-5.333,1.621c-1.249,0.369-2.134-0.465-1.786-1.719
		c0.505-1.818,1.052-3.625,1.597-5.428c0.057-0.189,0.192-0.369,0.333-0.512C15.731,14.179,20.836,9.06,25.938,3.938
		c0.429-0.428,0.89-0.763,1.539-0.697C27.5,3.193,27.968,3.389,27.992,3.341z M16.124,23.281c4.027-4.127,8.077-8.277,12.081-12.381
		c-1.146-1.146-2.386-2.388-3.595-3.596c-4.048,4.075-8.132,8.184-12.214,12.293C13.601,20.789,14.86,22.031,16.124,23.281z
		 M25.604,6.056c1.32,1.333,2.564,2.59,3.872,3.91c0.381-0.406,0.795-0.841,1.206-1.28c0.384-0.411,0.396-0.713-0.011-1.13
		c-0.896-0.92-1.811-1.822-2.712-2.736c-0.348-0.35-0.701-0.341-1.045-0.025C26.458,5.217,26.017,5.657,25.604,6.056z
		 M11.312,21.205c-0.115,0.389-0.244,0.816-0.369,1.244c-0.432,1.469-0.436,1.473,0.723,2.451c0.121,0.104,0.348,0.174,0.495,0.133
		c0.787-0.205,1.563-0.453,2.268-0.662C13.389,23.314,12.354,22.261,11.312,21.205z"/>
	<path fill-rule="evenodd" clip-rule="evenodd" fill="#222222" stroke="#232323" stroke-width="0.6923" stroke-miterlimit="10" d="
		M21.953,3.673c0,0.534-1.478,1.188-1.784,1.634c-0.293,0-3.221,0-3.471,0c-3.142,0-6.285-0.001-9.427,0
		C5.824,5.31,5.24,5.884,5.239,7.316c-0.001,6.922-0.002,13.846,0,20.77c0,1.48,0.525,1.996,2.009,1.996
		c6.885,0,13.771,0.002,20.656,0c1.293,0,1.891-0.604,1.893-1.92c0.003-3.17,0.001-6.34,0.001-9.512c0-0.254,0-2.309,0-2.621
		c0.578-0.418,1.661-2.197,1.625-0.898c0.012,0.234,0.033,3.16,0.033,3.385c0.002,3.219,0.005,6.436,0.001,9.652
		c-0.003,2.225-1.375,3.6-3.593,3.6c-6.932,0-13.864,0-20.795,0c-2.116,0-3.484-1.35-3.486-3.465
		c-0.005-7.135-0.005-14.268,0.001-21.4C3.587,5.144,5,3.651,6.717,3.638c3.489-0.024,11.438-0.007,14.926-0.004
		C21.733,3.634,21.822,3.656,21.953,3.673z"/>
	<path fill-rule="evenodd" clip-rule="evenodd" fill="#222222" d="M24.643,10.148c-0.208,0.287-0.335,0.533-0.527,0.723
		c-2.693,2.721-5.394,5.436-8.095,8.15c-0.529,0.529-0.852,0.594-1.191,0.232c-0.305-0.326-0.221-0.727,0.27-1.219
		c1.866-1.869,3.736-3.732,5.603-5.605c0.881-0.877,1.742-1.777,2.647-2.631c0.176-0.164,0.537-0.221,0.789-0.18
		C24.313,9.646,24.444,9.927,24.643,10.148z"/>
</g>
</svg>
