<?xml version="1.0" encoding="utf-8"?>
<!-- Generator: Adobe Illustrator 16.0.0, SVG Export Plug-In . SVG Version: 6.00 Build 0)  -->
<!DOCTYPE svg PUBLIC "-//W3C//DTD SVG 1.1//EN" "http://www.w3.org/Graphics/SVG/1.1/DTD/svg11.dtd">
<svg version="1.1" id="圖層_1" xmlns="http://www.w3.org/2000/svg" xmlns:xlink="http://www.w3.org/1999/xlink" x="0px" y="0px"
	 width="20.123px" height="22.764px" viewBox="0 0 20.123 22.764" enable-background="new 0 0 20.123 22.764" xml:space="preserve">
<g>
	<path fill-rule="evenodd" clip-rule="evenodd" fill="#3A3A3A" d="M12.655,17.467c0.27,0.644,0.507,1.204,0.739,1.766
		c0.16,0.393,0.057,0.578-0.329,0.578c-1.936,0.003-3.872,0.003-5.807,0c-0.386,0-0.488-0.186-0.327-0.58
		c0.231-0.562,0.469-1.121,0.738-1.764c-0.191,0-0.325,0-0.459,0c-1.9,0-3.8,0.001-5.701-0.001
		c-0.627-0.001-0.866-0.263-0.866-0.955c-0.001-4.121-0.001-8.243,0-12.364c0-0.671,0.262-0.955,0.875-0.955
		c5.76-0.001,11.52-0.001,17.279,0c0.632,0,0.885,0.282,0.885,0.991c0.002,4.108,0.002,8.215,0,12.324
		c0,0.682-0.253,0.959-0.866,0.96c-1.889,0.003-3.777,0.001-5.666,0.001C13.009,17.467,12.87,17.467,12.655,17.467z M10.158,4.534
		c-2.635,0-5.271,0-7.906,0c-0.48,0-0.48,0.001-0.48,0.553c0,2.94,0,5.881,0,8.821c0,0.557,0.005,0.563,0.489,0.563
		c5.271,0,10.542,0,15.813,0c0.472,0,0.482-0.009,0.482-0.532c0-2.966-0.009-5.934,0.008-8.9c0.002-0.404-0.105-0.515-0.464-0.513
		C15.452,4.541,12.805,4.534,10.158,4.534z"/>
	<path fill-rule="evenodd" clip-rule="evenodd" fill="#3A3A3A" d="M17.097,12.044c0,0.217,0,0.348,0,0.542c-0.14,0-0.277,0-0.414,0
		c-2.149,0-4.299,0.008-6.447-0.008c-0.352-0.001-0.658,0.057-0.904,0.342c-0.283,0.33-0.579,0.322-0.927,0.121
		c-0.31-0.179-0.646-0.307-1.019-0.479c-0.039,0.316-0.07,0.583-0.107,0.887c-0.214,0-0.413,0-0.612,0
		c-1.294,0-2.588-0.008-3.882,0.007c-0.25,0.002-0.334-0.103-0.348-0.358c-0.034-0.646-0.093-1.293-0.115-1.941
		c-0.029-0.875,0.387-1.394,1.172-1.541c0.252-0.046,0.494-0.161,0.79-0.263c0.246,0.764,0.498,1.549,0.75,2.335
		c0.038,0.005,0.076,0.01,0.114,0.015c0.26-0.788,0.519-1.576,0.769-2.333C6.18,9.458,6.401,9.576,6.63,9.597
		c0.42,0.044,0.726,0.26,1.003,0.601c0.383,0.469,0.804,0.899,1.196,1.361c0.146,0.173,0.276,0.199,0.467,0.104
		c0.335-0.166,0.685-0.296,1.02-0.46c0.201-0.1,0.343-0.12,0.47,0.135c0.119,0.241,0.04,0.366-0.135,0.485
		c-0.057,0.038-0.102,0.098-0.229,0.221C12.7,12.044,14.885,12.044,17.097,12.044z"/>
	<path fill-rule="evenodd" clip-rule="evenodd" fill="#3A3A3A" d="M14.697,5.837c0,0.557,0,1.093,0,1.657c-1.661,0-3.304,0-4.966,0
		c0-0.563,0-1.1,0-1.657C11.392,5.837,13.035,5.837,14.697,5.837z"/>
	<path fill-rule="evenodd" clip-rule="evenodd" fill="#3A3A3A" d="M17.094,8.73c0,0.181,0,0.312,0,0.478c-2.448,0-4.894,0-7.361,0
		c0-0.151,0-0.302,0-0.478C12.188,8.73,14.624,8.73,17.094,8.73z"/>
	<path fill-rule="evenodd" clip-rule="evenodd" fill="#3A3A3A" d="M15.818,10.371c0,0.182,0,0.333,0,0.509c-2.027,0-4.038,0-6.078,0
		c0-0.166,0-0.327,0-0.509C11.761,10.371,13.772,10.371,15.818,10.371z"/>
	<path fill-rule="evenodd" clip-rule="evenodd" fill="#3A3A3A" d="M5.093,11.282c-0.173-0.474-0.441-0.852-0.18-1.313
		c0.041-0.074,0.121-0.151,0.191-0.161c0.05-0.009,0.129,0.084,0.166,0.151C5.513,10.417,5.277,10.807,5.093,11.282z"/>
	<ellipse fill-rule="evenodd" clip-rule="evenodd" fill="#3A3A3A" cx="5.088" cy="7.713" rx="1.225" ry="1.496"/>
</g>
</svg>
