<?xml version="1.0" encoding="utf-8"?>
<!-- Generator: Adobe Illustrator 16.0.0, SVG Export Plug-In . SVG Version: 6.00 Build 0)  -->
<!DOCTYPE svg PUBLIC "-//W3C//DTD SVG 1.1//EN" "http://www.w3.org/Graphics/SVG/1.1/DTD/svg11.dtd">
<svg version="1.1" id="圖層_1" xmlns="http://www.w3.org/2000/svg" xmlns:xlink="http://www.w3.org/1999/xlink" x="0px" y="0px"
	 width="35px" height="35px" viewBox="0 0 35 35" enable-background="new 0 0 35 35" xml:space="preserve">
<g>
	<path fill-rule="evenodd" clip-rule="evenodd" fill="#222222" d="M10.791,24.636c0.259-1.114,0.613-2.476,0.865-3.851
		c0.062-0.345-0.095-0.864-0.344-1.105c-0.833-0.812-1.753-1.534-2.641-2.289c-0.666-0.568-1.115-1.207-0.831-2.147
		c0.287-0.949,0.941-1.376,1.897-1.446c1.163-0.088,2.32-0.252,3.483-0.292c0.606-0.021,0.91-0.229,1.12-0.788
		c0.417-1.123,0.91-2.216,1.362-3.325c0.346-0.846,0.924-1.32,1.88-1.304c0.915,0.014,1.454,0.495,1.782,1.293
		c0.468,1.141,0.904,2.296,1.442,3.401c0.152,0.314,0.592,0.625,0.937,0.676c1.321,0.19,2.657,0.282,3.989,0.395
		c0.834,0.074,1.41,0.594,1.498,1.323c0.072,0.601-0.088,1.419-0.473,1.85c-0.861,0.962-1.903,1.773-2.918,2.589
		c-0.439,0.353-0.572,0.684-0.429,1.22c0.282,1.056,0.525,2.125,0.761,3.193c0.206,0.937,0.271,1.863-0.645,2.511
		c-0.896,0.633-1.743,0.348-2.576-0.18c-0.897-0.567-1.829-1.084-2.703-1.686c-0.508-0.348-0.901-0.308-1.392,0.01
		c-1.065,0.688-2.133,1.378-3.251,1.971C12.192,27.405,10.699,26.449,10.791,24.636z M22.524,25.151
		c-0.366-1.573-0.616-2.879-0.982-4.153c-0.32-1.117,0.013-1.911,0.884-2.61c1.03-0.825,2.008-1.709,3.207-2.735
		c-1.514-0.125-2.765-0.284-4.018-0.318c-1.244-0.031-2.067-0.512-2.507-1.714c-0.45-1.229-0.996-2.425-1.589-3.848
		c-0.603,1.458-1.134,2.68-1.612,3.92c-0.423,1.097-1.187,1.588-2.352,1.64c-1.292,0.054-2.581,0.212-4.123,0.345
		c0.883,0.752,1.519,1.435,2.281,1.92c1.8,1.146,2.325,2.618,1.54,4.629c-0.329,0.845-0.424,1.781-0.682,2.916
		c1.402-0.852,2.551-1.526,3.678-2.241c0.878-0.552,1.717-0.552,2.595,0.003C19.969,23.615,21.116,24.293,22.524,25.151z"/>
</g>
<circle fill-rule="evenodd" clip-rule="evenodd" fill="none" stroke="#444344" stroke-width="2" stroke-miterlimit="10" cx="17.5" cy="17.5" r="15.75"/>
</svg>
