<?xml version="1.0" encoding="utf-8"?>
<!-- Generator: Adobe Illustrator 16.0.0, SVG Export Plug-In . SVG Version: 6.00 Build 0)  -->
<!DOCTYPE svg PUBLIC "-//W3C//DTD SVG 1.1//EN" "http://www.w3.org/Graphics/SVG/1.1/DTD/svg11.dtd">
<svg version="1.1" id="圖層_1" xmlns="http://www.w3.org/2000/svg" xmlns:xlink="http://www.w3.org/1999/xlink" x="0px" y="0px"
	 width="20.123px" height="22.764px" viewBox="0 0 20.123 22.764" enable-background="new 0 0 20.123 22.764" xml:space="preserve">
<g>
	<path fill-rule="evenodd" clip-rule="evenodd" fill="#3A3A3A" d="M10.013,14.909c0.495-0.98,0.893-1.704,1.232-2.456
		c0.36-0.796,0.922-0.942,1.717-0.728c1.922,0.519,3.201,1.962,3.287,3.954c0.076,1.75,0.013,3.509,0.028,5.265
		c0.008,0.771-0.351,1.124-1.115,1.122c-3.423-0.005-6.846-0.007-10.268,0.002C4.133,22.07,3.76,21.739,3.767,20.96
		c0.017-1.799-0.05-3.602,0.041-5.396c0.097-1.916,1.268-3.197,3.121-3.79c0.917-0.296,1.516-0.111,1.914,0.783
		C9.162,13.271,9.538,13.958,10.013,14.909z"/>
	<path fill-rule="evenodd" clip-rule="evenodd" fill="#3A3A3A" d="M10.008,1.3c2.712-0.002,4.838,2.116,4.84,4.821
		c0.001,2.67-2.172,4.862-4.827,4.867c-2.647,0.005-4.827-2.185-4.832-4.855C5.185,3.415,7.291,1.302,10.008,1.3z"/>
</g>
</svg>
