<?xml version="1.0" encoding="utf-8"?>
<!-- Generator: Adobe Illustrator 16.0.0, SVG Export Plug-In . SVG Version: 6.00 Build 0)  -->
<!DOCTYPE svg PUBLIC "-//W3C//DTD SVG 1.1//EN" "http://www.w3.org/Graphics/SVG/1.1/DTD/svg11.dtd">
<svg version="1.1" id="圖層_1" xmlns="http://www.w3.org/2000/svg" xmlns:xlink="http://www.w3.org/1999/xlink" x="0px" y="0px"
	 width="20.123px" height="22.764px" viewBox="0 0 20.123 22.764" enable-background="new 0 0 20.123 22.764" xml:space="preserve">
<g>
	<path fill-rule="evenodd" clip-rule="evenodd" fill="#3A3A3A" d="M15.863,12.199c2.421,0.277,4.126,2.329,4.044,4.813
		c-0.07,2.093-1.723,4.008-3.718,4.282c-1.664,0.229-3.038-0.337-4.104-1.693c-0.146-0.185-0.287-0.266-0.523-0.264
		c-2.884,0.01-5.768,0.006-8.652,0.005c-1.598,0-2.699-1.152-2.699-2.827c-0.001-3.204-0.001-6.409,0-9.613
		c0-1.487,1.129-2.681,2.552-2.702c0.174-0.002,0.349,0,0.563,0c0,0.414-0.003,0.801,0,1.189c0.007,0.652,0.45,1.149,1.03,1.162
		c0.599,0.013,1.074-0.48,1.09-1.139c0.008-0.39,0.001-0.78,0.001-1.19c1.731,0,3.437,0,5.175,0c0,0.388-0.004,0.765,0.001,1.142
		c0.009,0.694,0.465,1.195,1.075,1.187c0.594-0.008,1.039-0.508,1.044-1.182c0.005-0.377,0.002-0.755,0.002-1.127
		c1.688-0.277,3.101,0.95,3.114,2.692c0.012,1.625,0.002,3.25,0.002,4.876C15.863,11.932,15.863,12.058,15.863,12.199z M1.127,7.663
		c0,0.146,0,0.259,0,0.372c0,2.813-0.001,5.626,0,8.439c0.001,1.243,0.65,1.914,1.851,1.914c2.686,0,5.372,0,8.057,0
		c0.109,0,0.218,0,0.359,0c-0.415-1.402-0.36-2.732,0.365-3.983c0.724-1.25,1.816-1.938,3.163-2.188c0-1.537,0-3.04,0-4.554
		C10.323,7.663,5.75,7.663,1.127,7.663z M15.522,20.393c1.917-0.005,3.465-1.604,3.469-3.579c0.002-2.04-1.555-3.679-3.497-3.679
		c-1.887,0-3.474,1.674-3.46,3.648C12.046,18.784,13.607,20.398,15.522,20.393z"/>
	<path fill-rule="evenodd" clip-rule="evenodd" fill="#3A3A3A" d="M3.8,4.625c0-0.276-0.008-0.55,0.002-0.826
		c0.013-0.367,0.255-0.627,0.571-0.632C4.691,3.162,4.96,3.41,4.972,3.772c0.019,0.563,0.019,1.125,0,1.688
		C4.96,5.815,4.677,6.069,4.366,6.059C4.054,6.047,3.813,5.781,3.802,5.417C3.793,5.154,3.8,4.891,3.8,4.625z"/>
	<path fill-rule="evenodd" clip-rule="evenodd" fill="#3A3A3A" d="M12.274,4.603c0,0.276,0.008,0.551-0.001,0.826
		c-0.014,0.361-0.26,0.624-0.576,0.628c-0.314,0.005-0.584-0.249-0.594-0.611c-0.018-0.562-0.018-1.125,0-1.686
		c0.013-0.357,0.296-0.609,0.609-0.593c0.302,0.014,0.537,0.269,0.563,0.609c0.002,0.022,0.001,0.045,0.001,0.068
		C12.275,4.099,12.275,4.35,12.274,4.603z"/>
	<path fill-rule="evenodd" clip-rule="evenodd" fill="#3A3A3A" d="M15.722,15.826c-0.28,0.974,0.209,1.462,1.018,1.753
		c0.1,0.038,0.191,0.104,0.283,0.162c0.237,0.153,0.301,0.412,0.159,0.615c-0.099,0.144-0.399,0.288-0.524,0.231
		c-0.578-0.265-1.136-0.582-1.677-0.921c-0.114-0.07-0.177-0.314-0.182-0.479c-0.02-0.76-0.007-1.522-0.009-2.282
		c0-0.345,0.133-0.597,0.483-0.592c0.333,0.005,0.451,0.258,0.451,0.581C15.722,15.204,15.722,15.515,15.722,15.826z"/>
	<g>
		<path fill-rule="evenodd" clip-rule="evenodd" fill="#3A3A3A" d="M5.161,13.067c0,0.478,0,1.459,0,3.047c-0.987,0-1.958,0-2.964,0
			c0-1.015,0-2.011,0-3.047C3.188,13.067,4.161,13.067,5.161,13.067z"/>
		<path fill-rule="evenodd" clip-rule="evenodd" fill="#3A3A3A" d="M6.384,13.122c0.878,0,1.714-0.021,2.581,0.019
			c0.144,0.007,0.389,0.258,0.396,0.407c0.042,0.763,0.038,1.527,0.005,2.291c-0.008,0.148-0.207,0.406-0.327,0.414
			c-0.875,0.034-1.749,0.019-2.655,0.019C6.384,15.197,6.384,14.204,6.384,13.122z"/>
		<path fill-rule="evenodd" clip-rule="evenodd" fill="#3A3A3A" d="M13.851,12.029c-0.92,0-1.755,0.022-2.591-0.016
			c-0.147-0.011-0.401-0.254-0.407-0.401c-0.043-0.782-0.038-1.571-0.004-2.355c0.006-0.133,0.24-0.359,0.375-0.365
			c0.856-0.03,1.711-0.019,2.627-0.019C13.851,10.561,13.851,10.327,13.851,12.029z"/>
		<path fill-rule="evenodd" clip-rule="evenodd" fill="#3A3A3A" d="M2.169,8.836c1.043,0,1.996,0,3.022,0
			c0,0.948,0.011,1.863-0.017,2.77c-0.003,0.12-0.218,0.324-0.341,0.33c-0.754,0.027-1.512,0.036-2.263-0.004
			c-0.142-0.009-0.377-0.264-0.384-0.413C2.15,10.651,2.169,9.78,2.169,8.836z"/>
		<path fill-rule="evenodd" clip-rule="evenodd" fill="#3A3A3A" d="M6.349,12.025c0-1.072,0-2.067,0-3.149
			c0.912,0,1.806-0.011,2.698,0.02c0.102,0.004,0.277,0.252,0.282,0.393c0.107,2.771,0.157-0.49-0.006,2.296
			c-0.008,0.156-0.283,0.412-0.442,0.424C8.065,12.051,7.248,12.025,6.349,12.025z"/>
	</g>
</g>
</svg>
