<?xml version="1.0" encoding="utf-8"?>
<!-- Generator: Adobe Illustrator 16.0.0, SVG Export Plug-In . SVG Version: 6.00 Build 0)  -->
<!DOCTYPE svg PUBLIC "-//W3C//DTD SVG 1.1//EN" "http://www.w3.org/Graphics/SVG/1.1/DTD/svg11.dtd">
<svg version="1.1" id="圖層_1" xmlns="http://www.w3.org/2000/svg" xmlns:xlink="http://www.w3.org/1999/xlink" x="0px" y="0px"
	 width="29.809px" height="35.053px" viewBox="0 0 29.809 35.053" enable-background="new 0 0 29.809 35.053" xml:space="preserve">
<g>
	<path fill-rule="evenodd" clip-rule="evenodd" fill="#3E3A39" d="M4.397,14.303c7.092,0,14.079,0,21.145,0
		c-0.18,1.753-0.353,3.465-0.532,5.176c-0.352,3.341-0.705,6.681-1.06,10.023c-0.051,0.477-0.085,0.959-0.172,1.429
		c-0.229,1.204-1.251,2.109-2.567,2.12c-4.165,0.033-8.33,0.038-12.494-0.003c-1.418-0.014-2.417-0.979-2.571-2.374
		c-0.443-4.001-0.855-8.007-1.281-12.01C4.714,17.234,4.559,15.806,4.397,14.303z M10.78,22.475c0-1.224,0.001-2.45,0-3.674
		c0-0.55-0.127-1.082-0.781-1.079c-0.617,0.003-0.73,0.529-0.731,1.042c-0.004,2.449-0.005,4.898,0,7.348
		c0.001,0.521,0.137,1.01,0.773,0.988c0.621-0.021,0.739-0.508,0.739-1.029C10.78,24.872,10.78,23.674,10.78,22.475z M14.215,22.385
		c0,1.252-0.004,2.503,0.001,3.755c0.003,0.492,0.151,0.943,0.727,0.959c0.63,0.019,0.787-0.453,0.789-0.979
		c0.007-2.45,0.005-4.899,0.001-7.35c0-0.514-0.123-1.035-0.729-1.05c-0.662-0.017-0.787,0.522-0.789,1.068
		C14.21,19.988,14.214,21.188,14.215,22.385z M19.169,22.388c0,1.198,0.002,2.396-0.001,3.595c-0.001,0.537,0.057,1.086,0.731,1.114
		c0.689,0.03,0.782-0.518,0.784-1.056c0.004-2.424,0.005-4.846-0.001-7.27c-0.001-0.507-0.104-1.041-0.723-1.049
		c-0.654-0.008-0.789,0.518-0.789,1.071C19.169,19.99,19.169,21.189,19.169,22.388z"/>
	<path fill-rule="evenodd" clip-rule="evenodd" fill="#3E3A39" d="M19.713,7.842c1.207,0,2.326-0.056,3.439,0.012
		c2.279,0.139,3.666,1.961,3.465,4.491c-0.012,0.15-0.266,0.316-0.441,0.404c-0.129,0.065-0.315,0.017-0.475,0.017
		c-7.156,0-14.312-0.009-21.469,0.015c-0.725,0.002-0.964-0.178-0.937-0.931c0.091-2.525,1.531-3.996,4.074-4.046
		C8.298,7.786,9.229,7.802,9.95,7.802c0.48-1.013,0.844-1.907,1.325-2.733c0.197-0.34,0.605-0.635,0.983-0.779
		c1.806-0.685,3.667-0.747,5.44,0.016C19.105,4.912,19.609,6.225,19.713,7.842z M11.819,7.745c2.136,0,4.226,0,6.311,0
		c0.066-1.339-0.782-2.348-2.037-2.42c-0.744-0.042-1.494-0.042-2.236,0C12.601,5.396,11.75,6.405,11.819,7.745z"/>
</g>
</svg>
