<?xml version="1.0" encoding="utf-8"?>
<!-- Generator: Adobe Illustrator 16.0.0, SVG Export Plug-In . SVG Version: 6.00 Build 0)  -->
<!DOCTYPE svg PUBLIC "-//W3C//DTD SVG 1.1//EN" "http://www.w3.org/Graphics/SVG/1.1/DTD/svg11.dtd">
<svg version="1.1" id="圖層_1" xmlns="http://www.w3.org/2000/svg" xmlns:xlink="http://www.w3.org/1999/xlink" x="0px" y="0px"
	 width="30px" height="30px" viewBox="0 0 30 30" enable-background="new 0 0 30 30" xml:space="preserve">
<g display="none">
	<path display="inline" fill-rule="evenodd" clip-rule="evenodd" fill="#A5A5A5" d="M14.988,16.229
		c-0.839,0.055-1.475-0.287-2.063-0.74c-0.964-0.743-1.94-1.471-2.896-2.221c-1.337-1.047-2.654-2.113-3.988-3.162
		c-1.123-0.884-2.229-1.784-3.394-2.62C1.864,6.922,1.51,6.178,1.493,5.354C1.476,4.472,1.858,3.658,2.729,3.143
		C3.731,2.55,4.796,2.355,5.857,3.014c0.599,0.371,1.153,0.803,1.709,1.228c0.997,0.763,1.979,1.541,2.97,2.312
		c1.36,1.061,2.726,2.116,4.084,3.18c0.364,0.285,0.445,0.295,0.821-0.003c1.533-1.217,3.062-2.438,4.602-3.648
		c1.166-0.915,2.346-1.814,3.517-2.723c1.228-0.951,2.842-1.049,4.118,0.137c1.121,1.042,1.078,2.569,0.15,3.537
		c-0.636,0.664-1.442,1.15-2.15,1.742c-0.811,0.678-1.647,1.332-2.485,1.983c-1.127,0.875-2.271,1.732-3.399,2.607
		c-0.872,0.676-1.713,1.385-2.6,2.045C16.555,15.889,15.868,16.318,14.988,16.229z"/>
	<path display="inline" fill-rule="evenodd" clip-rule="evenodd" fill="#A5A5A5" d="M15.03,21.309
		c0.78-0.598,1.536-1.174,2.287-1.756c0.827-0.641,1.651-1.283,2.472-1.932c0.853-0.672,1.693-1.355,2.548-2.025
		c0.472-0.369,0.942-0.743,1.444-1.078c1.073-0.718,2.363-0.756,3.548-0.046c0.94,0.563,1.397,1.748,1.117,2.762
		c-0.228,0.818-0.847,1.322-1.483,1.834c-1.008,0.807-2.042,1.588-3.063,2.383c-1.546,1.203-3.092,2.404-4.633,3.611
		c-0.82,0.643-1.631,1.293-2.443,1.943c-0.597,0.479-1.335,0.518-2.072,0.514c-0.754-0.004-1.353-0.344-1.905-0.781
		c-0.971-0.768-1.967-1.508-2.942-2.271c-2.281-1.781-4.56-3.566-6.83-5.359c-0.326-0.258-0.624-0.551-0.906-0.85
		c-1.237-1.313-0.696-2.99,0.614-3.828c0.383-0.245,0.831-0.382,1.351-0.408c1.055-0.054,1.875,0.276,2.647,0.893
		c1.646,1.316,3.339,2.582,5.002,3.876c0.924,0.719,1.825,1.459,2.741,2.186C14.67,21.094,14.841,21.188,15.03,21.309z"/>
</g>
<path fill-rule="evenodd" clip-rule="evenodd" fill="#686868" d="M23.309,28.74c-5.565-4.541-11.131-9.08-16.755-13.668
	c0.128-0.168,0.22-0.337,0.334-0.435c0.813-0.687,1.632-1.368,2.455-2.032c0.798-0.643,1.606-1.252,2.403-1.897
	c0.548-0.442,1.075-0.937,1.623-1.38c0.584-0.476,1.183-0.91,1.769-1.382c0.495-0.401,0.979-0.847,1.474-1.25
	c0.849-0.692,1.706-1.36,2.553-2.05c0.798-0.649,1.588-1.315,2.382-1.972c0.501-0.417,1-0.837,1.505-1.244
	c0.098-0.079,0.214-0.095,0.395-0.169c-0.097,0.322-0.159,0.583-0.247,0.824c-0.547,1.495-1.099,2.984-1.652,4.472
	c-0.525,1.407-1.055,2.812-1.582,4.216c-0.464,1.241-0.931,2.479-1.391,3.723c-0.116,0.313-0.125,0.623,0.005,0.963
	c0.619,1.623,1.233,3.25,1.839,4.886c0.42,1.139,0.814,2.301,1.235,3.436c0.515,1.389,1.051,2.76,1.57,4.146
	c0.078,0.205,0.124,0.444,0.185,0.668C23.375,28.64,23.341,28.692,23.309,28.74z"/>
</svg>
