<?xml version="1.0" encoding="utf-8"?>
<!-- Generator: Adobe Illustrator 16.0.0, SVG Export Plug-In . SVG Version: 6.00 Build 0)  -->
<!DOCTYPE svg PUBLIC "-//W3C//DTD SVG 1.1//EN" "http://www.w3.org/Graphics/SVG/1.1/DTD/svg11.dtd">
<svg version="1.1" id="圖層_1" xmlns="http://www.w3.org/2000/svg" xmlns:xlink="http://www.w3.org/1999/xlink" x="0px" y="0px"
	 width="35px" height="35px" viewBox="0 0 35 35" enable-background="new 0 0 35 35" xml:space="preserve">
<g>
	<g>
		<path fill="#3E3A39" d="M30.027,24.178c0-3.004,0.012-5.926-0.011-8.848c-0.004-0.529,0.115-0.78,0.677-0.925
			c0.66-0.17,1.274-0.525,1.96-0.823c0,4.363,0,8.714,0,13.131c-10.126,0-20.255,0-30.473,0c-0.011-0.242-0.034-0.506-0.034-0.77
			C2.144,19.6,2.143,13.251,2.145,6.906c0-1.653,0.777-2.439,2.423-2.44c5.672-0.004,11.343-0.002,17.015,0
			c0.196,0,0.392,0.018,0.606,0.028c-0.236,0.858-0.465,1.687-0.721,2.615c-5.471,0-11.029,0-16.648,0c0,5.733,0,11.382,0,17.07
			C13.217,24.178,21.575,24.178,30.027,24.178z"/>
		<path fill="#3E3A39" d="M0.465,27.938c4.464,0,8.654,0,12.87,0c0.037,0.106,0.09,0.193,0.097,0.284
			c0.096,1.336,0.094,1.336,1.417,1.338c1.773,0,3.545,0,5.319-0.002c1.244-0.001,1.26-0.017,1.297-1.229
			c0.003-0.098,0.018-0.196,0.032-0.356c4.21,0,8.405,0,12.6,0c0.08,2.018-1.592,4.001-3.526,4.216
			c-0.421,0.049-0.848,0.075-1.271,0.075c-7.941,0.006-15.882-0.009-23.823,0.014c-1.809,0.005-3.307-0.544-4.234-2.151
			C0.883,29.507,0.747,28.76,0.465,27.938z"/>
		<path fill="#3E3A39" d="M28.422,13.645c-3.53-0.211-5.964-2.968-5.735-6.495c0.194-3,3.081-5.534,6.123-5.373
			c3.403,0.18,5.906,2.981,5.715,6.396C34.352,11.233,31.459,13.826,28.422,13.645z M26.811,7.721c0.003,0,0.006,0,0.007,0
			c0,0.674-0.036,1.351,0.01,2.022c0.059,0.852,0.771,1.25,1.481,0.813c1.063-0.652,2.104-1.342,3.123-2.059
			c0.634-0.446,0.608-1.169-0.033-1.604c-0.992-0.67-1.994-1.329-3.015-1.954c-0.797-0.488-1.52-0.096-1.566,0.834
			C26.785,6.421,26.811,7.072,26.811,7.721z"/>
	</g>
	<g>
		<path fill="#3E3A39" d="M17.973,18.523c0.603-0.436,1.18-0.825,1.725-1.257c0.53-0.418,1.087-0.572,1.774-0.315
			c0.652-1.276,1.293-2.547,1.952-3.809c0.142-0.273,0.214-0.782,0.671-0.555c0.442,0.22,0.121,0.588-0.023,0.875
			c-0.607,1.208-1.238,2.405-1.832,3.62c-0.11,0.228-0.145,0.53-0.11,0.782c0.084,0.604-0.104,1.068-0.56,1.449
			c-0.767,0.637-1.529,1.28-2.299,1.915c-1.027,0.847-1.983,0.749-2.83-0.285c-0.092-0.113-0.188-0.226-0.356-0.43
			c-0.019,0.263-0.042,0.419-0.042,0.575c-0.004,0.943-0.006,1.884-0.004,2.825c0.001,0.451-0.195,0.721-0.666,0.721
			c-1.826,0.004-3.653,0.005-5.479,0c-0.464-0.002-0.731-0.282-0.658-0.723C9.354,23.204,9,22.794,8.494,22.412
			c-0.419-0.318-0.813-0.671-1.207-1.019c-0.661-0.586-0.786-1.362-0.274-2.065c0.896-1.231,1.817-2.446,2.754-3.646
			c0.402-0.515,0.976-0.756,1.634-0.761c0.903-0.007,1.807-0.008,2.711,0c0.681,0.005,1.243,0.276,1.667,0.809
			C16.502,16.642,17.218,17.561,17.973,18.523z"/>
		<path fill="#3E3A39" d="M15.907,11.879c0.005,1.412-1.037,2.48-2.429,2.493c-1.406,0.012-2.536-1.095-2.533-2.477
			c0.003-1.338,1.149-2.488,2.486-2.497C14.787,9.388,15.903,10.507,15.907,11.879z"/>
	</g>
</g>
</svg>
