<?xml version="1.0" encoding="utf-8"?>
<!-- Generator: Adobe Illustrator 16.0.0, SVG Export Plug-In . SVG Version: 6.00 Build 0)  -->
<!DOCTYPE svg PUBLIC "-//W3C//DTD SVG 1.1//EN" "http://www.w3.org/Graphics/SVG/1.1/DTD/svg11.dtd">
<svg version="1.1" id="圖層_1" xmlns="http://www.w3.org/2000/svg" xmlns:xlink="http://www.w3.org/1999/xlink" x="0px" y="0px"
	 width="23.912px" height="23.912px" viewBox="0 0 23.912 23.912" enable-background="new 0 0 23.912 23.912" xml:space="preserve">
<g>
	<path fill-rule="evenodd" clip-rule="evenodd" fill="#3E3A39" d="M6.893,22.271C5.505,21.01,4.68,19.489,4.517,17.56
		c-0.217,0.322-0.383,0.594-0.57,0.849c-0.406,0.542-0.749,1.14-1.343,1.509c-0.153,0.095-0.297,0.034-0.316-0.13
		c-0.043-0.387-0.104-0.771-0.092-1.155c0.011-0.357,0.099-0.716,0.164-1.07c0.067-0.366,0.129-0.734,0.219-1.098
		c0.102-0.411,0.224-0.815,0.348-1.221c0.102-0.328,0.215-0.657,0.331-0.981c0.144-0.405,0.292-0.81,0.447-1.21
		c0.207-0.539,0.419-1.077,0.633-1.613c0.102-0.256,0.219-0.507,0.32-0.765c0.048-0.125,0.1-0.256,0.104-0.385
		C4.788,9.65,4.781,9.007,4.825,8.369C4.862,7.827,4.917,7.281,5.03,6.751c0.122-0.576,0.286-1.146,0.493-1.697
		C5.706,4.575,5.95,4.114,6.208,3.667C6.701,2.819,7.36,2.1,8.158,1.535c0.52-0.366,1.106-0.638,1.729-0.836
		c0.827-0.263,1.668-0.397,2.526-0.36c0.611,0.025,1.225,0.099,1.832,0.251c0.628,0.162,1.219,0.406,1.763,0.731
		c0.682,0.406,1.289,0.936,1.743,1.599c0.318,0.459,0.631,0.927,0.898,1.416c0.187,0.343,0.311,0.726,0.438,1.101
		c0.143,0.413,0.26,0.837,0.38,1.259c0.049,0.173,0.083,0.353,0.105,0.532c0.042,0.32,0.087,0.639,0.1,0.959
		c0.03,0.705,0.022,1.41,0.068,2.113c0.017,0.235,0.146,0.468,0.233,0.696c0.123,0.32,0.256,0.634,0.387,0.95
		c0.189,0.468,0.395,0.932,0.569,1.404c0.155,0.406,0.275,0.829,0.412,1.243c0.155,0.464,0.326,0.92,0.467,1.388
		c0.093,0.313,0.154,0.632,0.209,0.952c0.104,0.581,0.201,1.164,0.273,1.747c0.026,0.212-0.012,0.433-0.04,0.647
		c-0.024,0.17-0.063,0.341-0.114,0.505c-0.072,0.223-0.189,0.16-0.34,0.055c-0.471-0.323-0.767-0.803-1.111-1.237
		c-0.213-0.271-0.399-0.561-0.595-0.844c-0.032-0.049-0.04-0.115-0.061-0.172c-0.024-0.008-0.048-0.012-0.07-0.02
		c-0.026,0.076-0.062,0.151-0.074,0.227c-0.04,0.326-0.021,0.671-0.129,0.974c-0.19,0.562-0.422,1.115-0.695,1.638
		c-0.337,0.642-0.823,1.179-1.362,1.665c-0.046,0.045-0.099,0.079-0.155,0.121c0.473,0.195,0.924,0.352,1.343,0.568
		c0.347,0.177,0.705,0.369,0.866,0.776c0.074,0.192-0.15,0.466-0.418,0.484c-0.482,0.035-0.978,0.021-1.448,0.118
		c-0.669,0.142-1.332,0.068-1.999,0.068c-0.908,0.002-1.823-0.004-2.723-0.11c-0.475-0.054-0.951-0.114-1.407-0.052
		c-0.832,0.116-1.669-0.017-2.487,0.1c-0.751,0.109-1.494,0.045-2.24,0.063c-0.476,0.015-0.957-0.04-1.431-0.095
		c-0.231-0.026-0.457-0.116-0.683-0.19c-0.136-0.045-0.18-0.268-0.136-0.404c0.15-0.492,0.611-0.63,0.978-0.847
		C6.097,22.517,6.496,22.422,6.893,22.271z"/>
</g>
</svg>
