<?xml version="1.0" encoding="utf-8"?>
<!-- Generator: Adobe Illustrator 16.0.0, SVG Export Plug-In . SVG Version: 6.00 Build 0)  -->
<!DOCTYPE svg PUBLIC "-//W3C//DTD SVG 1.1//EN" "http://www.w3.org/Graphics/SVG/1.1/DTD/svg11.dtd">
<svg version="1.1" id="圖層_1" xmlns="http://www.w3.org/2000/svg" xmlns:xlink="http://www.w3.org/1999/xlink" x="0px" y="0px"
	 width="23.912px" height="23.912px" viewBox="0 0 23.912 23.912" enable-background="new 0 0 23.912 23.912" xml:space="preserve">
<g>
	<path fill-rule="evenodd" clip-rule="evenodd" fill="#3E3A39" d="M11.982,4.462c3.428,0,6.856,0,10.286,0
		c1.101,0.001,1.592,0.655,1.285,1.727c-0.026,0.097-0.138,0.188-0.231,0.246c-3.354,2.071-6.708,4.146-10.074,6.201
		c-0.859,0.526-1.769,0.525-2.627-0.001C7.256,10.579,3.9,8.506,0.549,6.427C0.429,6.352,0.38,6.154,0.312,6.008
		C0.289,5.958,0.308,5.89,0.308,5.83c-0.001-1.151,0.21-1.368,1.342-1.368c1.596,0,3.191,0,4.786,0
		C8.284,4.462,10.133,4.462,11.982,4.462z"/>
	<path fill-rule="evenodd" clip-rule="evenodd" fill="#3E3A39" d="M1.57,19.294c0.957-0.593,1.912-1.185,2.869-1.774
		c1.71-1.054,3.424-2.104,5.131-3.164c0.234-0.146,0.417-0.18,0.689-0.054c1.113,0.515,2.241,0.492,3.372,0.012
		c0.161-0.066,0.42-0.088,0.556-0.004c2.658,1.614,5.305,3.25,7.952,4.881c0.057,0.034,0.106,0.08,0.241,0.183
		c-6.994,0-13.886,0-20.776,0C1.593,19.348,1.583,19.319,1.57,19.294z"/>
	<path fill-rule="evenodd" clip-rule="evenodd" fill="#3E3A39" d="M8.327,13.188c-2.693,1.656-5.313,3.265-7.987,4.908
		c0-3.305,0-6.537,0-9.839C3.007,9.904,5.633,11.525,8.327,13.188z"/>
	<path fill-rule="evenodd" clip-rule="evenodd" fill="#3E3A39" d="M15.547,13.187c2.688-1.659,5.307-3.276,7.977-4.925
		c0,3.282,0,6.518,0,9.822C20.875,16.459,18.246,14.844,15.547,13.187z"/>
</g>
</svg>
