<?xml version="1.0" encoding="utf-8"?>
<!-- Generator: Adobe Illustrator 16.0.0, SVG Export Plug-In . SVG Version: 6.00 Build 0)  -->
<!DOCTYPE svg PUBLIC "-//W3C//DTD SVG 1.1//EN" "http://www.w3.org/Graphics/SVG/1.1/DTD/svg11.dtd">
<svg version="1.1" id="圖層_1" xmlns="http://www.w3.org/2000/svg" xmlns:xlink="http://www.w3.org/1999/xlink" x="0px" y="0px"
	 width="87.635px" height="89.426px" viewBox="0 0 87.635 89.426" enable-background="new 0 0 87.635 89.426" xml:space="preserve">
<g>
	<path fill="#A3A3A3" d="M80.483,50.007c-6.825,0-13.631,0-20.623,0c0,2.511,0,4.9,0,7.408c-1.758,0-3.336,0-5.084,0
		c0,2.714,0,5.313,0,8.046c-1.961,0-3.75,0-5.666,0c0,1.885,0,3.637,0,5.514c-0.543,0.025-0.961,0.061-1.377,0.061
		c-13.257,0.003-26.513,0.01-39.771-0.003c-3.539-0.003-5.923-1.604-6.718-4.526c-0.199-0.734-0.233-1.533-0.233-2.305
		c-0.014-13.04-0.016-26.08-0.006-39.12c0.003-4.314,2.547-6.76,6.875-6.757c21.849,0.013,43.699,0.011,65.548,0
		c2.524-0.001,4.771,0.645,6.094,2.922c0.604,1.036,1.013,2.345,1.025,3.535c0.085,8.203,0.044,16.408,0.038,24.612
		C80.586,49.555,80.534,49.719,80.483,50.007z M38.176,26.837c-0.023,0.498-0.053,0.876-0.056,1.256
		c-0.019,2.383-0.03,2.34-2.242,3.046c-2.968,0.948-5.112,2.797-5.52,6.017c-0.411,3.252,0.764,5.972,3.793,7.415
		c2.192,1.045,4.602,1.629,6.913,2.424c1.258,0.433,2.565,0.769,3.757,1.34c1.465,0.706,1.943,2.099,1.086,3.461
		c-0.561,0.888-1.454,1.845-2.402,2.16c-3.231,1.078-7.656,0.464-8.592-4.056c-0.061-0.291-0.563-0.717-0.834-0.699
		c-1.58,0.104-3.152,0.322-4.721,0.501c0.364,4.909,3.177,8.06,7.901,9.063c0.34,0.07,0.763,0.613,0.819,0.985
		c0.124,0.823,0.039,1.677,0.039,2.492c1.755,0,3.284,0,4.931,0c0-0.524-0.001-0.948,0-1.372c0.006-1.863,0.007-1.863,1.865-2.242
		c3.969-0.813,6.645-3.744,6.963-7.632c0.309-3.759-1.678-6.827-5.518-8.261c-1.688-0.629-3.494-0.931-5.21-1.488
		c-1.542-0.5-3.113-1.007-4.529-1.772c-1.171-0.634-1.247-2.1-0.42-3.012c2.319-2.561,7.917-1.406,9.057,1.844
		c0.115,0.33,0.517,0.8,0.782,0.798c1.625-0.014,3.253-0.143,4.947-0.238c0-0.316,0.02-0.526-0.006-0.732
		c-0.039-0.341-0.088-0.686-0.17-1.019c-0.849-3.483-3.16-5.466-6.578-6.151c-1.021-0.205-1.262-0.631-1.197-1.547
		c0.058-0.84,0.013-1.688,0.013-2.582C41.335,26.837,39.833,26.837,38.176,26.837z"/>
	<path fill="#A3A3A3" d="M86.587,52.25c0,1.734,0,3.395,0,5.127c-8.043,0-16.002,0-24.046,0c0-1.706,0-3.367,0-5.127
		C70.543,52.25,78.538,52.25,86.587,52.25z"/>
	<path fill="#A3A3A3" d="M81.337,59.693c0,1.678,0,3.262,0,4.965c-8.044,0-16.068,0-24.184,0c0-1.607,0-3.225,0-4.965
		C65.156,59.693,73.179,59.693,81.337,59.693z"/>
	<path fill="#A3A3A3" d="M51.858,72.139c0-1.729,0-3.35,0-5.046c8.027,0,15.985,0,24.039,0c0,1.665,0,3.315,0,5.046
		C67.906,72.139,59.95,72.139,51.858,72.139z"/>
</g>
</svg>
