<?xml version="1.0" encoding="utf-8"?>
<!-- Generator: Adobe Illustrator 16.0.0, SVG Export Plug-In . SVG Version: 6.00 Build 0)  -->
<!DOCTYPE svg PUBLIC "-//W3C//DTD SVG 1.1//EN" "http://www.w3.org/Graphics/SVG/1.1/DTD/svg11.dtd">
<svg version="1.1" id="圖層_1" xmlns="http://www.w3.org/2000/svg" xmlns:xlink="http://www.w3.org/1999/xlink" x="0px" y="0px"
	 width="23.912px" height="23.912px" viewBox="0 0 23.912 23.912" enable-background="new 0 0 23.912 23.912" xml:space="preserve">
<g>
	<path fill-rule="evenodd" clip-rule="evenodd" fill="#3E3A39" d="M8.596,5.315c0.265,0,0.487,0,0.749,0
		C9.35,5.444,9.362,5.568,9.362,5.691C9.364,6.753,9.36,7.815,9.364,8.878c0.003,0.971,0.445,1.45,1.334,1.45
		c3.443,0.001,6.887,0.001,10.33,0c0.867,0,1.326-0.508,1.327-1.47c0.003-1.144,0.002-2.289,0.002-3.47
		c0.409,0.14,0.616,0.447,0.716,0.846c0.045,0.179,0.051,0.374,0.052,0.561c0.003,4.309,0.002,8.618,0.001,12.925
		c0,1.031-0.446,1.523-1.38,1.523c-4.896,0.001-9.792,0-14.688,0c-0.115,0-0.23,0-0.381,0c0-0.306-0.013-0.575,0.008-0.84
		c0.006-0.076,0.103-0.17,0.178-0.204c1.197-0.563,1.735-1.58,1.734-2.984C8.593,13.402,8.596,9.59,8.596,5.777
		C8.596,5.637,8.596,5.496,8.596,5.315z M20.44,12.438c-0.845,0.002-1.523,0.744-1.52,1.657c0.006,0.949,0.692,1.703,1.535,1.685
		c0.812-0.017,1.52-0.786,1.516-1.646C21.967,13.192,21.282,12.436,20.44,12.438z M20.448,18.292c-0.356,0-0.711-0.005-1.066,0.002
		c-0.323,0.007-0.449,0.144-0.461,0.489c-0.005,0.212-0.003,0.424-0.001,0.637c0.007,0.422,0.123,0.553,0.503,0.556
		c0.516,0.004,1.033-0.011,1.548,0.003c1.102,0.028,1.008-0.065,0.999-1.186c-0.001-0.345-0.144-0.491-0.457-0.498
		C21.157,18.286,20.802,18.292,20.448,18.292z M15.878,18.31c0,0.579,0,1.116,0,1.64c0.516,0,1.004,0,1.482,0c0-0.564,0-1.1,0-1.64
		C16.854,18.31,16.374,18.31,15.878,18.31z M17.368,11.617c-0.515,0-1.001,0-1.498,0c0,0.554,0,1.078,0,1.621
		c0.506,0,0.993,0,1.498,0C17.368,12.693,17.368,12.17,17.368,11.617z M15.87,16.586c0.506,0,0.991,0,1.494,0
		c0-0.55,0-1.082,0-1.614c-0.511,0-0.996,0-1.494,0C15.87,15.517,15.87,16.04,15.87,16.586z M9.762,19.954c0.505,0,0.991,0,1.478,0
		c0-0.56,0-1.096,0-1.642c-0.501,0-0.978,0-1.478,0C9.762,18.869,9.762,19.404,9.762,19.954z M14.32,19.959
		c0-0.51,0.008-0.992-0.007-1.474c-0.002-0.066-0.107-0.181-0.167-0.183c-0.437-0.017-0.873-0.009-1.326-0.009
		c0,0.575,0,1.11,0,1.665C13.313,19.959,13.793,19.959,14.32,19.959z M9.755,13.23c0.516,0,1.002,0,1.489,0c0-0.554,0-1.079,0-1.613
		c-0.505,0-0.99,0-1.489,0C9.755,12.163,9.755,12.681,9.755,13.23z M14.302,13.238c0-0.558,0-1.082,0-1.623c-0.506,0-0.99,0-1.481,0
		c0,0.554,0,1.08,0,1.623C13.314,13.238,13.793,13.238,14.302,13.238z M9.762,14.968c0,0.549,0,1.072,0,1.614
		c0.505,0,0.989,0,1.484,0c0-0.551,0-1.073,0-1.614C10.752,14.968,10.274,14.968,9.762,14.968z M12.83,14.969
		c0,0.557,0,1.088,0,1.613c0.505,0,0.982,0,1.476,0c0-0.548,0-1.071,0-1.613C13.81,14.969,13.331,14.969,12.83,14.969z"/>
	<path fill-rule="evenodd" clip-rule="evenodd" fill="#3E3A39" d="M2.474,11.122c0-2.055,0-4.108,0-6.163
		c0.001-1.217,0.722-2.092,1.83-2.171c0.557-0.041,1.12-0.04,1.677-0.003c1.108,0.073,1.844,0.954,1.85,2.199
		c0.01,1.618,0.002,3.234,0.002,4.852c0,2.479,0,4.958-0.001,7.437c0,1.405-0.794,2.281-2.064,2.281c-0.452,0-0.905,0.001-1.356,0
		c-1.092-0.002-1.93-0.896-1.935-2.095C2.468,15.349,2.474,13.234,2.474,11.122z M4.751,4.462c0-0.301,0-0.557,0-0.81
		C3.971,3.518,3.305,3.934,3.27,4.666C3.219,5.695,3.257,6.73,3.257,7.783c0.252,0,0.481,0,0.732,0
		c0.007-0.119,0.018-0.222,0.018-0.326c0.001-0.824-0.002-1.648,0.002-2.473C4.011,4.604,4.13,4.476,4.468,4.462
		C4.554,4.459,4.638,4.462,4.751,4.462z M3.265,8.659c0,0.284,0,0.544,0,0.815c0.249,0,0.479,0,0.721,0c0-0.279,0-0.542,0-0.815
		C3.744,8.659,3.521,8.659,3.265,8.659z"/>
	<path fill-rule="evenodd" clip-rule="evenodd" fill="#3E3A39" d="M15.869,1.974c1.731,0,3.463,0,5.194,0
		c0.438,0.001,0.528,0.099,0.528,0.579c0.001,2.113,0.001,4.225,0,6.336c0,0.475-0.121,0.605-0.559,0.605
		c-3.452,0.002-6.904,0.002-10.357,0c-0.437,0-0.561-0.129-0.561-0.604c-0.002-2.124-0.002-4.247,0-6.371
		c0-0.436,0.101-0.544,0.494-0.544C12.363,1.973,14.116,1.974,15.869,1.974z M11.285,6.522c3.056,0,6.09,0,9.125,0
		c0-1.118,0-2.206,0-3.3c-3.053,0-6.08,0-9.125,0C11.285,4.322,11.285,5.401,11.285,6.522z M10.9,7.823c0,0.282,0,0.535,0,0.801
		c0.511,0,1.005,0,1.496,0c0-0.282,0-0.534,0-0.801C11.895,7.823,11.417,7.823,10.9,7.823z M14.688,7.83c-0.515,0-0.993,0-1.485,0
		c0,0.275,0,0.529,0,0.796c0.504,0,0.991,0,1.485,0C14.688,8.353,14.688,8.109,14.688,7.83z M17.015,8.631c0.261,0,0.491,0,0.728,0
		c0-0.282,0-0.543,0-0.797c-0.258,0-0.488,0-0.728,0C17.015,8.106,17.015,8.352,17.015,8.631z M20.797,8.632c0-0.291,0-0.544,0-0.8
		c-0.25,0-0.479,0-0.721,0c0,0.277,0,0.529,0,0.8C20.323,8.632,20.554,8.632,20.797,8.632z M18.564,7.828c0,0.282,0,0.541,0,0.794
		c0.254,0,0.481,0,0.7,0c0-0.283,0-0.534,0-0.794C19.018,7.828,18.798,7.828,18.564,7.828z"/>
	<path fill-rule="evenodd" clip-rule="evenodd" fill="#3E3A39" d="M1.708,5.36c0,0.199,0,0.337,0,0.476
		c0,3.789,0.005,7.579-0.002,11.367c-0.003,1.421,0.528,2.446,1.746,3.009c0.081,0.037,0.158,0.178,0.17,0.279
		c0.024,0.229,0.007,0.467,0.007,0.716c-0.613,0-1.207,0.06-1.784-0.019c-0.495-0.069-0.805-0.47-0.879-1.037
		c-0.018-0.141-0.026-0.282-0.026-0.423c-0.001-4.332,0.001-8.664-0.003-12.996C0.936,6.125,1.124,5.66,1.708,5.36z"/>
	<path fill-rule="evenodd" clip-rule="evenodd" fill="#3E3A39" d="M20.448,18.292c0.354,0,0.709-0.006,1.064,0.003
		c0.313,0.007,0.456,0.153,0.457,0.498c0.009,1.12,0.103,1.214-0.999,1.186c-0.515-0.014-1.032,0.001-1.548-0.003
		c-0.38-0.003-0.496-0.134-0.503-0.556c-0.002-0.213-0.004-0.425,0.001-0.637c0.012-0.346,0.138-0.482,0.461-0.489
		C19.737,18.287,20.092,18.292,20.448,18.292z"/>
	<path fill-rule="evenodd" clip-rule="evenodd" fill="#3E3A39" d="M4.751,4.462c-0.114,0-0.198-0.003-0.284,0
		C4.13,4.476,4.011,4.604,4.009,4.983C4.005,5.808,4.008,6.633,4.007,7.457c0,0.104-0.011,0.208-0.018,0.326c-0.25,0-0.48,0-0.732,0
		c0-1.052-0.038-2.088,0.013-3.117c0.035-0.731,0.701-1.148,1.481-1.013C4.751,3.905,4.751,4.162,4.751,4.462z"/>
	<path fill-rule="evenodd" clip-rule="evenodd" fill="#3E3A39" d="M3.265,8.659c0.256,0,0.479,0,0.721,0c0,0.273,0,0.536,0,0.815
		c-0.242,0-0.472,0-0.721,0C3.265,9.203,3.265,8.942,3.265,8.659z"/>
	<path fill-rule="evenodd" clip-rule="evenodd" fill="#3E3A39" d="M10.9,7.823c0.517,0,0.995,0,1.496,0c0,0.267,0,0.519,0,0.801
		c-0.491,0-0.984,0-1.496,0C10.9,8.358,10.9,8.105,10.9,7.823z"/>
	<path fill-rule="evenodd" clip-rule="evenodd" fill="#3E3A39" d="M14.688,7.83c0,0.279,0,0.523,0,0.796c-0.494,0-0.981,0-1.485,0
		c0-0.267,0-0.521,0-0.796C13.695,7.83,14.174,7.83,14.688,7.83z"/>
	<path fill-rule="evenodd" clip-rule="evenodd" fill="#3E3A39" d="M17.015,8.631c0-0.279,0-0.525,0-0.797c0.239,0,0.47,0,0.728,0
		c0,0.254,0,0.515,0,0.797C17.506,8.631,17.275,8.631,17.015,8.631z"/>
	<path fill-rule="evenodd" clip-rule="evenodd" fill="#3E3A39" d="M20.797,8.632c-0.243,0-0.474,0-0.721,0c0-0.271,0-0.523,0-0.8
		c0.241,0,0.471,0,0.721,0C20.797,8.088,20.797,8.341,20.797,8.632z"/>
	<path fill-rule="evenodd" clip-rule="evenodd" fill="#3E3A39" d="M18.564,7.828c0.233,0,0.453,0,0.7,0c0,0.26,0,0.511,0,0.794
		c-0.219,0-0.446,0-0.7,0C18.564,8.369,18.564,8.109,18.564,7.828z"/>
</g>
<rect x="9.755" y="11.617" fill-rule="evenodd" clip-rule="evenodd" fill="#3E3A39" width="12.221" height="8.365"/>
<rect x="11.193" y="11.718" fill-rule="evenodd" clip-rule="evenodd" fill="#FFFFFF" width="2.294" height="2.293"/>
<rect x="14.707" y="11.718" fill-rule="evenodd" clip-rule="evenodd" fill="#FFFFFF" width="2.293" height="2.292"/>
<rect x="18.222" y="11.718" fill-rule="evenodd" clip-rule="evenodd" fill="#FFFFFF" width="2.293" height="2.292"/>
<rect x="11.192" y="15.8" fill-rule="evenodd" clip-rule="evenodd" fill="#FFFFFF" width="2.294" height="2.293"/>
<rect x="14.706" y="15.8" fill-rule="evenodd" clip-rule="evenodd" fill="#FFFFFF" width="2.293" height="2.293"/>
<rect x="18.221" y="15.8" fill-rule="evenodd" clip-rule="evenodd" fill="#FFFFFF" width="2.293" height="2.293"/>
</svg>
