<?xml version="1.0" encoding="utf-8"?>
<!-- Generator: Adobe Illustrator 16.0.0, SVG Export Plug-In . SVG Version: 6.00 Build 0)  -->
<!DOCTYPE svg PUBLIC "-//W3C//DTD SVG 1.1//EN" "http://www.w3.org/Graphics/SVG/1.1/DTD/svg11.dtd">
<svg version="1.1" id="圖層_1" xmlns="http://www.w3.org/2000/svg" xmlns:xlink="http://www.w3.org/1999/xlink" x="0px" y="0px"
	 width="35px" height="35px" viewBox="0 0 35 35" enable-background="new 0 0 35 35" xml:space="preserve">
<g>
	<path fill="#3E3A39" d="M1.127,10.874c9.832,0,19.705,0,29.696,0c0,2.914,0,5.77,0,8.834c-3.215-0.906-6.268-0.747-8.849,1.577
		c-2.539,2.287-3.106,5.251-2.529,8.722c-2.5,0-4.823,0.001-7.146,0c-3.104,0-6.208-0.02-9.311,0.009
		c-1.25,0.011-2.088-0.42-2.088-1.779c-0.005-5.653,0.021-11.305,0.043-16.957C0.944,11.173,1.037,11.069,1.127,10.874z
		 M14.248,15.139c0,1.135,0,2.049,0,3.021c1.116,0,2.131,0,3.168,0c0-1.073,0-2.032,0-3.021
		C16.311,15.139,15.337,15.139,14.248,15.139z M17.437,22.636c-1.118,0-2.131,0-3.289,0c0,0.568-0.013,1.028,0.003,1.486
		c0.017,0.513,0.061,1.024,0.09,1.502C17.566,26.295,17.729,26.145,17.437,22.636z M9.095,15.197c-1.156,0-2.156,0-3.168,0
		c0,1.056,0,1.967,0,2.967c1.098,0,2.101,0,3.168,0C9.095,17.146,9.095,16.231,9.095,15.197z M25.706,18.195
		c0-1.129,0-2.082,0-3.039c-1.109,0-2.066,0-3.073,0c0,1.058,0,2.012,0,3.039C23.688,18.195,24.648,18.195,25.706,18.195z
		 M9.059,25.767c0-1.181,0-2.145,0-3.115c-1.109,0-2.112,0-3.097,0c0,1.097,0,2.06,0,3.115C7.044,25.767,8,25.767,9.059,25.767z"/>
	<path fill="#3E3A39" d="M6.584,4.087c0.356,1.686-0.598,4.05,1.734,4.069c2.403,0.02,1.359-2.525,1.912-4c1.208,0,2.418,0,3.728,0
		c0.644,1.35-0.715,4.152,2.069,3.969c2.115-0.138,1.299-2.386,1.629-3.918c1.217,0,2.468,0,3.896,0
		c0.054,0.762-0.088,1.652,0.222,2.335c0.309,0.678,1.07,1.146,1.635,1.707c0.526-0.612,1.221-1.151,1.526-1.859
		c0.254-0.59,0.052-1.378,0.052-2.296c1.486,0,2.896-0.16,4.239,0.073c0.592,0.103,1.385,0.944,1.494,1.556
		c0.229,1.301,0.069,2.671,0.069,4.127c-9.989,0-19.809,0-29.879,0c0-1.421-0.159-2.838,0.073-4.187
		C1.085,5.067,1.92,4.267,2.528,4.158C3.823,3.927,5.186,4.087,6.584,4.087z"/>
	<path fill="#3E3A39" d="M34.144,27.581c-0.021,3.711-3.007,6.649-6.729,6.615c-3.589-0.034-6.573-3.031-6.602-6.636
		c-0.026-3.61,3.108-6.775,6.709-6.771C31.161,20.795,34.163,23.874,34.144,27.581z M28.272,26.741c0-1.304,0.041-2.35-0.028-3.388
		c-0.019-0.273-0.338-0.678-0.588-0.738c-0.228-0.058-0.786,0.257-0.794,0.426c-0.068,1.569-0.076,3.147-0.018,4.717
		c0.008,0.192,0.503,0.505,0.786,0.521c1.042,0.059,2.095,0.069,3.132-0.021c0.303-0.027,0.568-0.456,0.851-0.7
		c-0.313-0.272-0.594-0.715-0.945-0.78C30.001,26.651,29.291,26.741,28.272,26.741z"/>
	<path fill="#3E3A39" d="M9.154,4.155c0,0.762,0.066,1.533-0.032,2.283c-0.041,0.315-0.511,0.86-0.646,0.82
		C8.106,7.15,7.545,6.803,7.527,6.52c-0.1-1.577-0.121-3.167-0.024-4.743C7.523,1.441,8.145,1.142,8.49,0.826
		c0.225,0.348,0.592,0.675,0.643,1.045c0.102,0.75,0.03,1.522,0.03,2.284C9.16,4.155,9.157,4.155,9.154,4.155z"/>
	<path fill="#3E3A39" d="M22.533,3.893c0-0.705-0.082-1.423,0.033-2.107c0.06-0.354,0.471-0.649,0.724-0.971
		c0.312,0.291,0.871,0.568,0.889,0.875c0.092,1.579,0.091,3.166,0.002,4.745c-0.018,0.312-0.562,0.595-0.863,0.891
		c-0.26-0.323-0.696-0.622-0.746-0.975C22.46,5.546,22.536,4.714,22.533,3.893z"/>
	<path fill="#3E3A39" d="M16.594,4.091c0,0.816,0.063,1.64-0.033,2.443c-0.035,0.288-0.457,0.528-0.702,0.791
		c-0.253-0.254-0.712-0.5-0.723-0.765c-0.071-1.627-0.083-3.263-0.005-4.891c0.013-0.3,0.514-0.577,0.791-0.865
		c0.226,0.28,0.612,0.541,0.647,0.843c0.091,0.805,0.03,1.628,0.03,2.443C16.597,4.091,16.596,4.091,16.594,4.091z"/>
</g>
</svg>
