<?xml version="1.0" encoding="utf-8"?>
<!-- Generator: Adobe Illustrator 16.0.0, SVG Export Plug-In . SVG Version: 6.00 Build 0)  -->
<!DOCTYPE svg PUBLIC "-//W3C//DTD SVG 1.1//EN" "http://www.w3.org/Graphics/SVG/1.1/DTD/svg11.dtd">
<svg version="1.1" id="圖層_1" xmlns="http://www.w3.org/2000/svg" xmlns:xlink="http://www.w3.org/1999/xlink" x="0px" y="0px"
	 width="39.068px" height="43.66px" viewBox="0 0 39.068 43.66" enable-background="new 0 0 39.068 43.66" xml:space="preserve">
<g>
	<path fill-rule="evenodd" clip-rule="evenodd" fill="#232323" d="M2.701,21.859c0-4.689,0.066-9.38-0.024-14.068
		C2.618,4.742,4.934,2.33,8.149,2.354c7.815,0.059,15.631,0.019,23.447,0.019c3.15,0.001,5.319,2.12,5.324,5.264
		c0.014,9.529,0.011,19.057,0.001,28.584c-0.003,2.708-1.659,4.691-4.284,5.194c-0.217,0.041-0.443,0.044-0.665,0.044
		c-8.114,0.002-16.228,0.003-24.341,0.001c-2.563-0.001-4.876-2.172-4.902-4.751c-0.051-4.949-0.015-9.899-0.015-14.85
		C2.71,21.859,2.706,21.859,2.701,21.859z M34.148,21.917c0-4.708,0.004-9.417-0.002-14.125c-0.001-1.752-0.896-2.635-2.65-2.635
		C23.679,5.155,15.864,5.154,8.047,5.157c-1.646,0-2.565,0.9-2.566,2.547c-0.006,9.473-0.007,18.946,0,28.419
		c0.001,1.65,0.921,2.553,2.563,2.554c7.854,0.003,15.707,0.002,23.56-0.001c0.259,0,0.526-0.009,0.773-0.074
		c1.185-0.31,1.768-1.156,1.769-2.559C34.151,31.333,34.148,26.625,34.148,21.917z"/>
	<path fill-rule="evenodd" clip-rule="evenodd" fill="#232323" d="M23.555,12.424c2.231,0,4.462-0.006,6.693,0.004
		c0.724,0.004,1.311,0.524,1.397,1.189c0.092,0.692-0.323,1.341-1.004,1.538c-0.192,0.056-0.403,0.06-0.605,0.06
		c-4.369,0.003-8.738,0.003-13.106,0.002c-0.963,0-1.593-0.554-1.598-1.394c-0.004-0.851,0.61-1.397,1.586-1.398
		C19.13,12.422,21.342,12.423,23.555,12.424z"/>
	<path fill-rule="evenodd" clip-rule="evenodd" fill="#232323" d="M23.47,31.856c-2.213,0-4.426,0-6.638,0
		c-0.897-0.001-1.491-0.54-1.499-1.355c-0.008-0.812,0.57-1.388,1.456-1.421c0.482-0.02,0.966-0.005,1.45-0.005
		c3.905,0,7.81,0,11.715,0c0.512,0,1.002,0.056,1.358,0.493c0.379,0.463,0.465,0.977,0.205,1.507
		c-0.244,0.498-0.649,0.787-1.241,0.786C28.007,31.853,25.738,31.856,23.47,31.856z"/>
	<path fill-rule="evenodd" clip-rule="evenodd" fill="#232323" d="M23.501,20.784c2.25,0,4.499-0.006,6.748,0.004
		c0.692,0.003,1.243,0.452,1.38,1.07c0.131,0.583-0.146,1.213-0.714,1.495c-0.24,0.119-0.533,0.178-0.802,0.18
		c-4.424,0.01-8.848,0.011-13.271,0.002c-0.758-0.001-1.271-0.375-1.459-0.981c-0.168-0.542-0.001-1.175,0.497-1.479
		c0.297-0.18,0.69-0.275,1.042-0.279c2.193-0.025,4.386-0.013,6.579-0.013C23.501,20.782,23.501,20.783,23.501,20.784z"/>
	<path fill-rule="evenodd" clip-rule="evenodd" fill="#232323" d="M10.524,20.783c0.408,0,0.816-0.013,1.223,0.003
		c0.688,0.027,1.215,0.552,1.266,1.235c0.054,0.734-0.37,1.398-1.071,1.453c-0.956,0.072-1.925,0.07-2.882-0.001
		c-0.7-0.053-1.14-0.728-1.084-1.446c0.053-0.671,0.594-1.212,1.269-1.24C9.671,20.768,10.098,20.783,10.524,20.783z"/>
	<path fill-rule="evenodd" clip-rule="evenodd" fill="#232323" d="M10.473,15.211c-0.39,0-0.78,0.021-1.168-0.005
		c-0.793-0.052-1.345-0.657-1.33-1.426c0.015-0.734,0.583-1.323,1.351-1.348c0.778-0.025,1.558-0.026,2.336,0
		c0.797,0.026,1.361,0.63,1.356,1.398c-0.004,0.762-0.576,1.343-1.378,1.381c-0.388,0.018-0.778,0.003-1.167,0.003
		C10.473,15.213,10.473,15.211,10.473,15.211z"/>
	<path fill-rule="evenodd" clip-rule="evenodd" fill="#232323" d="M10.504,31.856c-0.39,0-0.779,0.009-1.169-0.002
		c-0.713-0.02-1.291-0.545-1.358-1.222c-0.071-0.714,0.337-1.398,1.053-1.466c0.969-0.093,1.961-0.097,2.93-0.003
		c0.744,0.073,1.138,0.762,1.047,1.517c-0.079,0.659-0.632,1.152-1.335,1.175C11.284,31.866,10.894,31.856,10.504,31.856z"/>
</g>
</svg>
