<?xml version="1.0" encoding="utf-8"?>
<!-- Generator: Adobe Illustrator 16.0.0, SVG Export Plug-In . SVG Version: 6.00 Build 0)  -->
<!DOCTYPE svg PUBLIC "-//W3C//DTD SVG 1.1//EN" "http://www.w3.org/Graphics/SVG/1.1/DTD/svg11.dtd">
<svg version="1.1" id="圖層_1" xmlns="http://www.w3.org/2000/svg" xmlns:xlink="http://www.w3.org/1999/xlink" x="0px" y="0px"
	 width="87.635px" height="89.426px" viewBox="0 0 87.635 89.426" enable-background="new 0 0 87.635 89.426" xml:space="preserve">
<g>
	<path fill="#E65514" d="M5.972,62.314c0.336-1.52,0.636-3.047,1.015-4.555c0.631-2.508,0.438-4.123-1.436-5.766
		c-1.585-1.389-3.099-2.891-3.862-4.975c-1.056-2.886-0.25-5.294,1.732-7.438c0.802-0.866,1.625-1.722,2.509-2.502
		c1.675-1.479,1.667-3.413,1.166-5.241c-0.537-1.958-1.019-3.861-0.919-5.914c0.124-2.572,2.626-5.174,4.984-5.837
		c1.788-0.503,3.527-1.19,5.258-1.872c1.191-0.47,1.504-1.635,1.85-2.725c0.468-1.475,0.84-2.986,1.399-4.425
		c1.107-2.856,4.174-4.631,7.088-4.355c1.406,0.134,2.83,0.521,4.146,1.042c2.3,0.909,4.076,0.138,5.703-1.408
		c0.81-0.769,1.594-1.564,2.365-2.371c2.466-2.577,7.243-2.586,9.796-0.004c0.93,0.939,1.926,1.811,2.853,2.752
		C53,8.127,54.547,8.473,56.434,7.829c1.467-0.501,2.994-0.944,4.529-1.114c3.815-0.422,7.262,2.776,7.84,6.388
		c0.221,1.375,0.729,2.754,1.359,4.003c0.963,1.905,3.022,2.032,4.805,2.499c2.475,0.649,4.693,1.597,5.963,4.021
		c0.885,1.686,1.086,3.44,0.617,5.263c-0.373,1.454-0.939,2.867-1.197,4.337c-0.272,1.559,0.564,2.809,1.594,3.918
		c1.168,1.26,2.435,2.453,3.459,3.822c1.802,2.4,1.23,6.798-0.926,8.755c-1.01,0.918-1.965,1.908-2.844,2.953
		c-1.055,1.254-1.74,2.568-0.992,4.363c0.576,1.381,0.851,2.916,1.078,4.41c0.523,3.418-1.781,7.104-5.102,7.809
		c-1.474,0.311-2.89,0.883-4.328,1.348c-1.908,0.619-2.586,2.158-3.043,3.938c-0.392,1.521-0.813,3.063-1.472,4.479
		c-1.196,2.58-5.146,4.567-8.366,3.235c-1.164-0.481-2.431-0.772-3.677-1c-1.756-0.319-3.157,0.457-4.428,1.623
		c-1.416,1.302-2.738,2.815-4.387,3.728c-2.848,1.572-6.063,0.738-8.624-1.787c-0.577-0.57-1.198-1.105-1.713-1.729
		c-1.813-2.19-3.98-2.159-6.443-1.289c-1.333,0.474-2.787,0.718-4.204,0.814c-3.055,0.211-6.059-2.785-6.682-5.187
		c-0.35-1.344-0.607-2.717-1.053-4.027c-0.648-1.911-2.169-2.815-4.064-3.288c-1.376-0.343-2.768-0.734-4.048-1.33
		C7.401,67.534,6.02,65.383,5.972,62.314z M30.148,41.778c-0.056,0.109-0.111,0.218-0.168,0.327
		c-2.364-0.268-4.379,2.056-4.365,4.349c0.013,2.06,1.302,3.271,2.42,4.625c1.915,2.319,3.938,4.553,5.856,6.869
		c2.583,3.118,5.872,3.905,8.949,0.274c3.996-4.717,8.129-9.318,12.201-13.969c2.643-3.02,5.313-6.017,7.903-9.081
		c0.57-0.674,1.068-1.553,1.222-2.405c0.264-1.476-0.461-2.761-1.693-3.509c-1.652-1.003-3.311-0.687-4.707,0.66
		c-6.061,5.842-12.122,11.684-18.16,17.549c-0.729,0.709-1.198,0.816-1.974-0.002c-1.371-1.444-2.822-2.838-4.378-4.078
		C32.359,42.676,31.192,42.304,30.148,41.778z"/>
</g>
</svg>
