<?xml version="1.0" encoding="utf-8"?>
<!-- Generator: Adobe Illustrator 16.0.0, SVG Export Plug-In . SVG Version: 6.00 Build 0)  -->
<!DOCTYPE svg PUBLIC "-//W3C//DTD SVG 1.1//EN" "http://www.w3.org/Graphics/SVG/1.1/DTD/svg11.dtd">
<svg version="1.1" id="圖層_1" xmlns="http://www.w3.org/2000/svg" xmlns:xlink="http://www.w3.org/1999/xlink" x="0px" y="0px"
	 width="235px" height="237.667px" viewBox="0 0 235 237.667" enable-background="new 0 0 235 237.667" xml:space="preserve">
<g>
	<linearGradient id="SVGID_1_" gradientUnits="userSpaceOnUse" x1="21.4487" y1="180.626" x2="163.5121" y2="11.3215">
		<stop  offset="0" style="stop-color:#74903D"/>
		<stop  offset="0.098" style="stop-color:#79973E"/>
		<stop  offset="0.4817" style="stop-color:#89AF3F"/>
		<stop  offset="0.7961" style="stop-color:#94BD41"/>
		<stop  offset="1" style="stop-color:#98C341"/>
	</linearGradient>
	<path fill="url(#SVGID_1_)" d="M24.026,52.907c13.78,6.432,24.409,17.768,29.955,31.918L80.079,151.6
		c1.043,2.652,3.633,4.42,6.496,4.42h68.335c2.927,0,5.549-1.816,6.546-4.564l5.242-14.151c-2.477,0.436-5.017,0.645-7.605,0.645
		c-25.31,0-45.827-20.518-45.827-45.825c0-6.753,1.465-13.168,4.101-18.941H64.031c-7.316-14.44-19.247-26.032-34.121-32.93
		c-3.473-1.641-7.636-0.113-9.277,3.376C19.042,47.118,20.537,51.266,24.026,52.907z"/>
	<linearGradient id="SVGID_2_" gradientUnits="userSpaceOnUse" x1="48.5801" y1="203.3926" x2="190.6446" y2="34.0867">
		<stop  offset="0" style="stop-color:#74903D"/>
		<stop  offset="0.098" style="stop-color:#79973E"/>
		<stop  offset="0.4817" style="stop-color:#89AF3F"/>
		<stop  offset="0.7961" style="stop-color:#94BD41"/>
		<stop  offset="1" style="stop-color:#98C341"/>
	</linearGradient>
	<path fill="url(#SVGID_2_)" d="M119.381,7.992c-29.823,0-56.916,11.875-76.83,31.136c2.699,1.805,5.274,3.771,7.72,5.898
		c18.077-17.023,42.4-27.443,69.109-27.443c55.671,0,100.967,45.28,100.967,100.965c0,55.669-45.296,100.966-100.967,100.966
		c-55.67,0-100.965-45.297-100.965-100.966c0-18.188,4.828-35.259,13.265-50.012c-2.364-2.158-4.953-4.092-7.72-5.754
		C14.34,79.165,8.825,98.218,8.825,118.547c0,60.96,49.597,110.552,110.556,110.552c60.961,0,110.556-49.592,110.556-110.552
		C229.937,57.588,180.342,7.992,119.381,7.992z"/>
	<linearGradient id="SVGID_3_" gradientUnits="userSpaceOnUse" x1="63.7104" y1="216.0898" x2="205.7731" y2="46.7862">
		<stop  offset="0" style="stop-color:#74903D"/>
		<stop  offset="0.098" style="stop-color:#79973E"/>
		<stop  offset="0.4817" style="stop-color:#89AF3F"/>
		<stop  offset="0.7961" style="stop-color:#94BD41"/>
		<stop  offset="1" style="stop-color:#98C341"/>
	</linearGradient>
	<path fill="url(#SVGID_3_)" d="M74.755,181.176c0,10.064,8.186,18.248,18.248,18.248c10.065,0,18.251-8.184,18.251-18.248
		c0-10.063-8.187-18.248-18.251-18.248C82.941,162.928,74.755,171.113,74.755,181.176z"/>
	<linearGradient id="SVGID_4_" gradientUnits="userSpaceOnUse" x1="96.0454" y1="243.2227" x2="238.1102" y2="73.9165">
		<stop  offset="0" style="stop-color:#74903D"/>
		<stop  offset="0.098" style="stop-color:#79973E"/>
		<stop  offset="0.4817" style="stop-color:#89AF3F"/>
		<stop  offset="0.7961" style="stop-color:#94BD41"/>
		<stop  offset="1" style="stop-color:#98C341"/>
	</linearGradient>
	<path fill="url(#SVGID_4_)" d="M148.109,162.928c-10.065,0-18.252,8.186-18.252,18.248c0,10.064,8.187,18.248,18.252,18.248
		c10.063,0,18.249-8.184,18.249-18.248C166.358,171.113,158.173,162.928,148.109,162.928z"/>
	<linearGradient id="SVGID_5_" gradientUnits="userSpaceOnUse" x1="58.6348" y1="211.832" x2="200.7" y2="42.5253">
		<stop  offset="0" style="stop-color:#74903D"/>
		<stop  offset="0.098" style="stop-color:#79973E"/>
		<stop  offset="0.4817" style="stop-color:#89AF3F"/>
		<stop  offset="0.7961" style="stop-color:#94BD41"/>
		<stop  offset="1" style="stop-color:#98C341"/>
	</linearGradient>
	<path fill="url(#SVGID_5_)" d="M159.09,51.919c-22.204,0-40.207,18.002-40.207,40.204c0,22.204,18.003,40.187,40.207,40.187
		s40.187-17.982,40.187-40.187C199.276,69.921,181.294,51.919,159.09,51.919z M155.128,110.569l-17.744-17.763l7.389-7.406
		l10.355,10.354l18.187-18.204l7.443,7.444L155.128,110.569z"/>
</g>
</svg>
