<?xml version="1.0" encoding="utf-8"?>
<!-- Generator: Adobe Illustrator 16.0.0, SVG Export Plug-In . SVG Version: 6.00 Build 0)  -->
<!DOCTYPE svg PUBLIC "-//W3C//DTD SVG 1.1//EN" "http://www.w3.org/Graphics/SVG/1.1/DTD/svg11.dtd">
<svg version="1.1" id="圖層_1" xmlns="http://www.w3.org/2000/svg" xmlns:xlink="http://www.w3.org/1999/xlink" x="0px" y="0px"
	 width="80px" height="80px" viewBox="0 0 80 80" enable-background="new 0 0 80 80" xml:space="preserve">
<g>
	<path fill-rule="evenodd" clip-rule="evenodd" fill="#595757" d="M78.012,35.562c-0.037-10.461-5.311-15.747-15.878-16.336
		c-1.729-0.096-4.455-0.96-4.909-2.157c-2.406-6.335-7.183-6.94-12.885-6.49c-3.805,0.301-7.664,0.249-11.477,0.003
		c-3.821-0.247-6.409,1.023-7.8,4.678c-1.115,2.929-3.038,4.361-6.479,4.126C8.832,18.717,2.53,25.763,2.419,36.043
		c-0.07,6.49-0.031,12.982-0.005,19.474c0.03,7.441,6.053,16.063,15.264,15.707c7.479-0.287,14.978-0.057,22.467-0.053
		c3.828,0.004,7.656,0.006,11.484,0.004c3.828,0,7.657,0.059,11.483-0.018C72.227,70.977,77.898,65.232,78,56.033
		C78.076,49.211,78.036,42.385,78.012,35.562z M14.389,32.911c-1.996,0-3.614-1.618-3.614-3.615c0-1.996,1.618-3.614,3.614-3.614
		c1.997,0,3.615,1.618,3.615,3.614C18.003,31.292,16.385,32.911,14.389,32.911z M40.466,66.189
		c-11.6-0.004-20.728-9.316-20.652-21.068c0.073-11.436,9.176-20.672,20.509-20.809c11.462-0.139,20.882,9.292,20.891,20.913
		C61.221,57.006,52.129,66.193,40.466,66.189z"/>
	<path fill-rule="evenodd" clip-rule="evenodd" fill="#595757" d="M40.54,31.677c7.53,0.001,13.554,6.067,13.548,13.645
		c-0.006,7.473-6.187,13.699-13.591,13.691c-7.537-0.008-13.432-6.031-13.43-13.725C27.07,37.574,32.907,31.676,40.54,31.677z"/>
</g>
</svg>
