<?xml version="1.0" encoding="utf-8"?>
<!-- Generator: Adobe Illustrator 16.0.0, SVG Export Plug-In . SVG Version: 6.00 Build 0)  -->
<!DOCTYPE svg PUBLIC "-//W3C//DTD SVG 1.1//EN" "http://www.w3.org/Graphics/SVG/1.1/DTD/svg11.dtd">
<svg version="1.1" id="圖層_1" xmlns="http://www.w3.org/2000/svg" xmlns:xlink="http://www.w3.org/1999/xlink" x="0px" y="0px"
	 width="23.912px" height="23.912px" viewBox="0 0 23.912 23.912" enable-background="new 0 0 23.912 23.912" xml:space="preserve">
<g>
	<path fill-rule="evenodd" clip-rule="evenodd" fill="#3E3A39" d="M17.234,8.337c-0.206,0-0.383-0.011-0.556,0.001
		c-0.51,0.036-1.027,0.037-1.527,0.133c-1.113,0.214-2.185,0.583-3.137,1.201c-1.17,0.758-2.121,1.73-2.643,3.064
		C9.199,13.18,9.03,13.615,9.018,14.1c-0.009,0.403-0.098,0.807-0.078,1.207c0.02,0.366,0.125,0.729,0.217,1.088
		c0.052,0.207-0.017,0.27-0.208,0.256c-0.6-0.039-1.204-0.05-1.799-0.13c-0.427-0.059-0.841-0.21-1.26-0.321
		c-0.36-0.096-0.644,0.107-0.926,0.258c-0.567,0.299-1.11,0.641-1.673,0.947c-0.075,0.04-0.239,0.017-0.3-0.042
		c-0.079-0.076-0.153-0.229-0.132-0.327c0.084-0.394,0.204-0.78,0.313-1.168c0.031-0.107,0.09-0.207,0.11-0.316
		c0.063-0.349-0.076-0.591-0.356-0.82c-0.486-0.395-0.977-0.805-1.372-1.284c-0.41-0.498-0.737-1.064-0.99-1.678
		c-0.358-0.873-0.487-1.762-0.444-2.692c0.049-1.093,0.419-2.065,1-2.984C1.728,5.13,2.534,4.375,3.48,3.776
		C4,3.448,4.572,3.191,5.143,2.956c0.475-0.197,0.978-0.334,1.477-0.46C6.932,2.415,7.261,2.4,7.583,2.361
		c0.289-0.033,0.578-0.08,0.866-0.083c0.28-0.002,0.558,0.044,0.837,0.068c0.5,0.044,1.012,0.034,1.497,0.146
		c1.078,0.247,2.118,0.602,3.066,1.209c0.651,0.417,1.25,0.876,1.769,1.451c0.542,0.601,1.003,1.249,1.275,2.02
		c0.102,0.29,0.223,0.572,0.321,0.862C17.242,8.116,17.228,8.209,17.234,8.337z M11.604,8.322c0.565-0.001,1.148-0.586,1.149-1.155
		c0.002-0.574-0.514-1.07-1.119-1.074c-0.667-0.005-1.198,0.496-1.184,1.117C10.461,7.746,11.061,8.323,11.604,8.322z M5.87,6.097
		C5.231,6.089,4.697,6.598,4.708,7.202c0.01,0.551,0.617,1.151,1.186,1.11c0.471-0.032,1.062-0.375,1.061-1.1
		C6.954,6.543,6.514,6.053,5.87,6.097z"/>
	<path fill-rule="evenodd" clip-rule="evenodd" fill="#3E3A39" d="M9.616,14.832c-0.108-1.151,0.337-2.143,0.953-3.053
		c0.471-0.694,1.104-1.26,1.835-1.685c0.471-0.274,0.972-0.511,1.483-0.702c0.524-0.195,1.068-0.359,1.618-0.453
		c0.456-0.076,0.935-0.035,1.402-0.038c0.332-0.001,0.67-0.024,0.993,0.028c0.463,0.076,0.924,0.187,1.366,0.334
		c0.498,0.166,0.996,0.352,1.458,0.598c0.789,0.418,1.516,0.934,2.028,1.69c0.248,0.366,0.505,0.732,0.71,1.122
		c0.15,0.285,0.239,0.605,0.325,0.919c0.091,0.336,0.157,0.683,0.21,1.028c0.022,0.148-0.011,0.308-0.027,0.462
		c-0.009,0.094-0.056,0.188-0.055,0.279c0.01,0.659-0.213,1.27-0.523,1.811c-0.345,0.595-0.819,1.118-1.258,1.656
		c-0.132,0.161-0.327,0.278-0.506,0.399c-0.28,0.187-0.367,0.449-0.293,0.756c0.086,0.354,0.218,0.697,0.302,1.051
		c0.029,0.112,0.012,0.291-0.059,0.355c-0.075,0.066-0.266,0.082-0.362,0.032c-0.437-0.22-0.887-0.431-1.274-0.722
		c-0.374-0.28-0.757-0.279-1.139-0.16c-0.506,0.155-1.013,0.227-1.536,0.222c-0.546-0.007-1.098,0.037-1.638-0.023
		c-0.466-0.05-0.917-0.223-1.377-0.33c-0.623-0.145-1.19-0.42-1.728-0.754c-0.721-0.449-1.373-0.977-1.875-1.679
		c-0.343-0.479-0.652-0.972-0.801-1.54c-0.137-0.522-0.22-1.062-0.326-1.592C9.554,14.842,9.585,14.836,9.616,14.832z
		 M14.381,13.843c0.507,0,0.969-0.444,0.956-0.917c-0.013-0.453-0.508-0.971-0.948-0.936c-0.431,0.034-0.947,0.282-0.918,0.966
		C13.495,13.485,13.841,13.843,14.381,13.843z M20.053,12.956c0.006-0.547-0.383-0.976-0.889-0.978
		c-0.496-0.002-0.899,0.431-0.904,0.974c-0.004,0.468,0.366,0.884,0.794,0.891C19.673,13.852,20.045,13.521,20.053,12.956z"/>
</g>
</svg>
