<?xml version="1.0" encoding="utf-8"?>
<!-- Generator: Adobe Illustrator 16.0.0, SVG Export Plug-In . SVG Version: 6.00 Build 0)  -->
<!DOCTYPE svg PUBLIC "-//W3C//DTD SVG 1.1//EN" "http://www.w3.org/Graphics/SVG/1.1/DTD/svg11.dtd">
<svg version="1.1" id="圖層_1" xmlns="http://www.w3.org/2000/svg" xmlns:xlink="http://www.w3.org/1999/xlink" x="0px" y="0px"
	 width="30px" height="30px" viewBox="0 0 30 30" enable-background="new 0 0 30 30" xml:space="preserve">
<g>
	<path fill-rule="evenodd" clip-rule="evenodd" fill="#494949" d="M18.153,20.811c-6.724,3.353-12.586-0.364-14.66-4.313
		c-2.45-4.668-1.173-10.43,3.092-13.604c4.137-3.081,10.124-2.637,13.78,0.958c3.719,3.654,4.382,9.865,0.994,14.135
		c0.949,1.058,1.851,2.127,2.825,3.126c1.038,1.063,2.185,2.016,3.208,3.092c0.92,0.967,1.295,2.16,0.867,3.477
		c-0.633,1.952-3.072,2.374-4.785,0.837c-0.302-0.271-0.561-0.604-0.789-0.943c-1.404-2.083-2.79-4.18-4.185-6.271
		C18.389,21.133,18.267,20.971,18.153,20.811z M12.958,3.922c-4.186-0.019-7.625,3.39-7.622,7.552
		c0.006,4.129,3.347,7.489,7.502,7.543c4.148,0.055,7.622-3.332,7.649-7.455C20.519,7.372,17.135,3.941,12.958,3.922z"/>
</g>
</svg>
