<?xml version="1.0" encoding="utf-8"?>
<!-- Generator: Adobe Illustrator 16.0.0, SVG Export Plug-In . SVG Version: 6.00 Build 0)  -->
<!DOCTYPE svg PUBLIC "-//W3C//DTD SVG 1.1//EN" "http://www.w3.org/Graphics/SVG/1.1/DTD/svg11.dtd">
<svg version="1.1" id="圖層_1" xmlns="http://www.w3.org/2000/svg" xmlns:xlink="http://www.w3.org/1999/xlink" x="0px" y="0px"
	 width="70px" height="70px" viewBox="0 0 70 70" enable-background="new 0 0 70 70" xml:space="preserve">
<g>
	<g>
		<path fill-rule="evenodd" clip-rule="evenodd" fill="#9FA0A0" d="M60.153,49.621c0-5.975,0.023-11.786-0.022-17.597
			c-0.008-1.052,0.23-1.552,1.345-1.839c1.315-0.34,2.536-1.045,3.9-1.638c0,8.678,0,17.332,0,26.114c-20.14,0-40.283,0-60.604,0
			c-0.023-0.481-0.069-1.004-0.069-1.528C4.699,40.513,4.697,27.891,4.701,15.27c0.001-3.288,1.545-4.852,4.82-4.854
			c11.28-0.008,22.559-0.004,33.839-0.001c0.389,0,0.778,0.035,1.205,0.055c-0.47,1.707-0.924,3.355-1.433,5.202
			c-10.882,0-21.935,0-33.111,0c0,11.401,0,22.639,0,33.949C26.722,49.621,43.344,49.621,60.153,49.621z"/>
		<path fill-rule="evenodd" clip-rule="evenodd" fill="#9FA0A0" d="M1.359,57.101c8.879,0,17.211,0,25.594,0
			c0.075,0.212,0.18,0.386,0.193,0.564c0.191,2.657,0.188,2.657,2.818,2.659c3.526,0,7.052,0,10.579-0.002
			c2.473-0.002,2.506-0.035,2.578-2.443c0.006-0.196,0.036-0.391,0.066-0.709c8.371,0,16.716,0,25.058,0
			c0.157,4.011-3.166,7.957-7.015,8.385c-0.838,0.095-1.685,0.148-2.526,0.148c-15.793,0.01-31.587-0.017-47.38,0.027
			c-3.597,0.01-6.577-1.082-8.421-4.278C2.192,60.218,1.92,58.733,1.359,57.101z"/>
		<path fill-rule="evenodd" clip-rule="evenodd" fill="#9FA0A0" d="M56.961,28.673c-7.021-0.419-11.864-5.902-11.407-12.917
			c0.386-5.967,6.128-11.005,12.176-10.685c6.771,0.359,11.747,5.93,11.365,12.722C68.753,23.875,62.999,29.033,56.961,28.673z
			 M53.756,16.892c0.005,0,0.009,0,0.013,0c0,1.341-0.072,2.687,0.019,4.021c0.116,1.693,1.535,2.485,2.947,1.617
			c2.112-1.298,4.183-2.669,6.21-4.095c1.262-0.886,1.211-2.325-0.066-3.19c-1.973-1.334-3.964-2.644-5.995-3.887
			c-1.585-0.971-3.021-0.191-3.114,1.66C53.704,14.306,53.756,15.6,53.756,16.892z"/>
	</g>
	<g>
		<path fill-rule="evenodd" clip-rule="evenodd" fill="#9FA0A0" d="M36.18,38.374c1.198-0.866,2.348-1.64,3.432-2.499
			c1.052-0.833,2.161-1.138,3.526-0.627c1.297-2.54,2.573-5.068,3.883-7.577c0.282-0.542,0.426-1.555,1.337-1.102
			c0.879,0.437,0.239,1.17-0.047,1.738c-1.21,2.402-2.463,4.783-3.644,7.2c-0.22,0.451-0.29,1.054-0.22,1.555
			c0.167,1.199-0.207,2.126-1.114,2.881c-1.524,1.269-3.041,2.547-4.571,3.809c-2.044,1.684-3.944,1.489-5.628-0.566
			c-0.185-0.226-0.374-0.452-0.708-0.854c-0.04,0.52-0.083,0.832-0.084,1.145c-0.008,1.872-0.014,3.744-0.008,5.616
			c0.003,0.898-0.388,1.433-1.324,1.435c-3.632,0.008-7.265,0.01-10.896,0c-0.925-0.004-1.455-0.563-1.31-1.438
			c0.234-1.407-0.471-2.221-1.476-2.98c-0.834-0.633-1.618-1.334-2.401-2.028c-1.313-1.164-1.563-2.708-0.545-4.107
			c1.782-2.45,3.614-4.863,5.478-7.252c0.799-1.024,1.94-1.504,3.248-1.513c1.797-0.013,3.594-0.015,5.392-0.001
			c1.353,0.01,2.473,0.55,3.315,1.609C33.254,34.631,34.678,36.46,36.18,38.374z"/>
		<path fill-rule="evenodd" clip-rule="evenodd" fill="#9FA0A0" d="M32.071,25.16c0.01,2.808-2.062,4.933-4.831,4.958
			c-2.796,0.022-5.045-2.177-5.038-4.926c0.007-2.662,2.286-4.949,4.945-4.967C29.842,20.206,32.063,22.432,32.071,25.16z"/>
	</g>
</g>
</svg>
