<?xml version="1.0" encoding="utf-8"?>
<!-- Generator: Adobe Illustrator 16.0.0, SVG Export Plug-In . SVG Version: 6.00 Build 0)  -->
<!DOCTYPE svg PUBLIC "-//W3C//DTD SVG 1.1//EN" "http://www.w3.org/Graphics/SVG/1.1/DTD/svg11.dtd">
<svg version="1.1" id="圖層_1" xmlns="http://www.w3.org/2000/svg" xmlns:xlink="http://www.w3.org/1999/xlink" x="0px" y="0px"
	 width="20px" height="20px" viewBox="0 0 20 20" enable-background="new 0 0 20 20" xml:space="preserve">
<g>
	<path fill-rule="evenodd" clip-rule="evenodd" fill="#DA541A" d="M13.499,19.371c-0.824,0-1.646-0.002-2.47,0.001
		c-0.986,0.004-1.811-0.354-2.508-1.057c-2.347-2.357-4.705-4.703-7.057-7.057c-1.493-1.491-1.496-3.505-0.001-5.007
		C3.077,4.629,4.7,3.015,6.316,1.393C6.78,0.928,7.314,0.592,7.96,0.445c1.172-0.267,2.237-0.025,3.093,0.818
		c2.452,2.413,4.877,4.85,7.313,7.28c0.677,0.676,1.011,1.497,1.016,2.458c0.011,1.647,0.042,3.293,0.047,4.939
		c0.006,2.032-1.461,3.488-3.494,3.486c-0.813,0-1.624,0-2.436,0C13.499,19.408,13.499,19.39,13.499,19.371z M18.079,13.483
		c-0.01,0-0.023,0-0.036,0c0-0.801-0.005-1.603,0-2.401c0.005-0.655-0.221-1.202-0.701-1.657c-0.419-0.393-0.811-0.815-1.219-1.222
		c-1.944-1.946-3.89-3.892-5.837-5.834c-0.878-0.873-2.121-0.916-2.96-0.085C5.643,3.951,3.968,5.625,2.302,7.308
		C1.465,8.153,1.467,9.367,2.308,10.21c2.404,2.414,4.816,4.816,7.23,7.219c0.345,0.345,0.765,0.575,1.258,0.583
		c1.815,0.027,3.63,0.068,5.444,0.043c1.029-0.015,1.823-0.899,1.837-1.934C18.09,15.244,18.079,14.363,18.079,13.483z"/>
	<path fill-rule="evenodd" clip-rule="evenodd" fill="#DA541A" d="M11.365,13.865c-0.015-1.365,1.098-2.483,2.484-2.498
		c1.414-0.015,2.55,1.096,2.558,2.501c0.008,1.383-1.1,2.513-2.491,2.54C12.507,16.436,11.381,15.31,11.365,13.865z M13.868,15.056
		c0.644,0.006,1.189-0.527,1.194-1.167c0.005-0.653-0.509-1.182-1.164-1.188c-0.653-0.007-1.187,0.513-1.188,1.163
		C12.708,14.524,13.217,15.048,13.868,15.056z"/>
</g>
</svg>
