<?xml version="1.0" encoding="utf-8"?>
<!-- Generator: Adobe Illustrator 16.0.0, SVG Export Plug-In . SVG Version: 6.00 Build 0)  -->
<!DOCTYPE svg PUBLIC "-//W3C//DTD SVG 1.1//EN" "http://www.w3.org/Graphics/SVG/1.1/DTD/svg11.dtd">
<svg version="1.1" id="圖層_1" xmlns="http://www.w3.org/2000/svg" xmlns:xlink="http://www.w3.org/1999/xlink" x="0px" y="0px"
	 width="23.912px" height="23.912px" viewBox="0 0 23.912 23.912" enable-background="new 0 0 23.912 23.912" xml:space="preserve">
<g>
	<path fill-rule="evenodd" clip-rule="evenodd" fill="#3E3A39" d="M4.904,11.932c0-3.392,0-6.782,0-10.174
		c0-1.088,0.735-1.747,1.95-1.747c3.547-0.001,7.093-0.001,10.64,0c1.202,0,1.949,0.665,1.949,1.756
		c0.002,6.808,0.002,13.615,0,20.423c-0.001,1.034-0.759,1.709-1.914,1.71c-3.574,0.003-7.149,0.003-10.723,0
		c-1.154-0.001-1.9-0.676-1.901-1.719C4.902,18.765,4.904,15.348,4.904,11.932z M6.03,2.126c0,5.797,0,11.56,0,17.317
		c4.116,0,8.201,0,12.288,0c0-5.784,0-11.547,0-17.317C14.212,2.126,10.138,2.126,6.03,2.126z M12.187,20.512
		c-0.624-0.005-1.122,0.433-1.118,0.984c0.002,0.558,0.499,1.006,1.109,1.001c0.597-0.005,1.092-0.442,1.1-0.974
		C13.287,20.965,12.803,20.517,12.187,20.512z"/>
</g>
<rect x="6.03" y="2.126" fill-rule="evenodd" clip-rule="evenodd" fill="#3E3A39" width="1.514" height="18.498"/>
<rect x="16.807" y="1.457" fill-rule="evenodd" clip-rule="evenodd" fill="#3E3A39" width="2.638" height="18.333"/>
<rect x="6.787" y="1.457" fill-rule="evenodd" clip-rule="evenodd" fill="#3E3A39" width="11.338" height="2"/>
<circle fill-rule="evenodd" clip-rule="evenodd" fill="#FFFFFF" cx="12.248" cy="21.582" r="1.542"/>
</svg>
