<?xml version="1.0" encoding="utf-8"?>
<!-- Generator: Adobe Illustrator 16.0.0, SVG Export Plug-In . SVG Version: 6.00 Build 0)  -->
<!DOCTYPE svg PUBLIC "-//W3C//DTD SVG 1.1//EN" "http://www.w3.org/Graphics/SVG/1.1/DTD/svg11.dtd">
<svg version="1.1" id="圖層_1" xmlns="http://www.w3.org/2000/svg" xmlns:xlink="http://www.w3.org/1999/xlink" x="0px" y="0px"
	 width="28.444px" height="29.118px" viewBox="0 0 28.444 29.118" enable-background="new 0 0 28.444 29.118" xml:space="preserve">
<g>
	<path fill-rule="evenodd" clip-rule="evenodd" fill="#191919" d="M12.015,16.485c-1.749,0-3.376,0-5.004,0
		c-1.342-0.002-2.684,0.018-4.026-0.015c-1.269-0.028-2.17-0.978-2.178-2.223c-0.008-1.233,0.905-2.212,2.166-2.225
		c2.657-0.027,5.314-0.012,7.971-0.015c0.313,0,0.626,0,1.03,0c0.015-0.325,0.04-0.602,0.04-0.879
		c0.004-2.711-0.006-5.42,0.011-8.13c0.007-1.096,0.82-2.036,1.808-2.172c1.171-0.163,2.187,0.433,2.522,1.531
		C16.46,2.7,16.47,3.08,16.472,3.443c0.009,2.525,0.005,5.052,0.005,7.578c0,0.287,0,0.573,0,0.946
		c0.328,0.015,0.606,0.039,0.885,0.039c2.71,0.005,5.419-0.008,8.13,0.013c1.115,0.01,2.043,0.85,2.178,1.894
		c0.145,1.118-0.455,2.105-1.539,2.449c-0.338,0.108-0.723,0.116-1.084,0.118c-2.525,0.008-5.053,0.005-7.579,0.005
		c-0.285,0-0.572,0-0.949,0c-0.016,0.324-0.039,0.602-0.041,0.879c-0.005,2.71,0.011,5.419-0.014,8.13
		c-0.009,1.129-0.844,2.039-1.898,2.178c-1.122,0.146-2.2-0.547-2.473-1.621c-0.082-0.326-0.073-0.68-0.075-1.02
		c-0.005-2.525-0.003-5.049-0.003-7.577C12.015,17.17,12.015,16.885,12.015,16.485z"/>
</g>
</svg>
