<?xml version="1.0" encoding="utf-8"?>
<!-- Generator: Adobe Illustrator 16.0.0, SVG Export Plug-In . SVG Version: 6.00 Build 0)  -->
<!DOCTYPE svg PUBLIC "-//W3C//DTD SVG 1.1//EN" "http://www.w3.org/Graphics/SVG/1.1/DTD/svg11.dtd">
<svg version="1.1" id="圖層_1" xmlns="http://www.w3.org/2000/svg" xmlns:xlink="http://www.w3.org/1999/xlink" x="0px" y="0px"
	 width="35.144px" height="35.053px" viewBox="0 0 35.144 35.053" enable-background="new 0 0 35.144 35.053" xml:space="preserve">
<g>
	<path fill-rule="evenodd" clip-rule="evenodd" d="M26.909,2.415c0.925,0.034,1.89,0.277,2.643,0.941
		c0.884,0.781,1.75,1.609,2.481,2.532c1.385,1.748,1.205,4.299-0.373,5.884C25.245,18.21,18.81,24.627,12.394,31.064
		c-0.968,0.971-2.214,1.194-3.463,1.45c-1.899,0.39-3.798,0.775-5.695,1.173c-1.119,0.235-1.732-0.348-1.506-1.463
		c0.473-2.334,0.961-4.664,1.427-7c0.18-0.904,0.621-1.653,1.262-2.294c6.363-6.358,12.729-12.714,19.091-19.074
		C24.43,2.938,25.522,2.438,26.909,2.415z M5.374,24.322c0.783,0.781,1.535,1.531,2.224,2.219
		c5.989-5.989,12.029-12.028,18.043-18.043c-0.713-0.716-1.465-1.472-2.186-2.196C17.423,12.314,11.372,18.345,5.374,24.322z
		 M26.885,9.728c-6.024,6.028-12.061,12.07-18.048,18.063c0.721,0.725,1.473,1.48,2.271,2.282
		c5.981-6.037,11.992-12.104,17.97-18.14C28.376,11.227,27.623,10.47,26.885,9.728z M24.653,5.016
		c1.909,1.905,3.813,3.806,5.719,5.708c1.188-1.056,1.401-2.727,0.358-3.969c-0.684-0.815-1.468-1.57-2.305-2.23
		C27.257,3.602,25.569,3.886,24.653,5.016z M9.212,30.81c-1.548-1.559-3.086-3.107-4.636-4.667
		c-0.256,1.233-0.528,2.507-0.783,3.784c-0.063,0.315,1.333,1.729,1.647,1.665C6.719,31.336,7.993,31.064,9.212,30.81z"/>
</g>
</svg>
