<?xml version="1.0" encoding="utf-8"?>
<!-- Generator: Adobe Illustrator 25.2.0, SVG Export Plug-In . SVG Version: 6.00 Build 0)  -->
<svg version="1.1" id="圖層_1" xmlns="http://www.w3.org/2000/svg" xmlns:xlink="http://www.w3.org/1999/xlink" x="0px" y="0px"
	 viewBox="0 0 55 55" style="enable-background:new 0 0 55 55;" xml:space="preserve">
<style type="text/css">
	.st0{fill-rule:evenodd;clip-rule:evenodd;fill:#555656;}
</style>
<g>
	<path class="st0" d="M38.8,30.5c-5.1,0.1-9.6-4.4-9.7-9.5c0-5.3,4.3-9.6,9.6-9.6c5.2,0,9.3,4.1,9.5,9.3
		C48.2,25.9,44,30.4,38.8,30.5z M44.9,20.9c0-3.6-2.7-6.3-6.3-6.2c-3.4,0-6.2,2.7-6.3,6.1c-0.1,3.3,2.9,6.4,6.3,6.5
		C42.1,27.2,44.9,24.4,44.9,20.9z"/>
	<path class="st0" d="M52.8,46.2c-0.2,0.3-0.7,0.9-1.2,1.5c-0.7-0.6-1.7-1-2-1.7C47,37.8,43.9,35.9,35.8,37
		c-4.2,0.6-6.8,2.8-7.7,6.9c-0.2,0.8-0.2,1.7-0.6,2.3c-0.4,0.6-1.2,1-1.9,1.4c-0.4-0.7-1.3-1.5-1.1-2.1c0.5-2.2,1.1-4.5,2.2-6.5
		c2.6-4.8,10-6.8,17.3-4.9C49,35.5,52.7,40.2,52.8,46.2z"/>
	<path class="st0" d="M16.4,31.3c-4.4-0.1-7.6-3.4-7.5-7.8c0.1-4.1,3.6-7.5,7.6-7.5c4.2,0,7.7,3.6,7.7,7.8
		C24.2,28,20.8,31.3,16.4,31.3z M16.5,19.3c-2.3,0-4.4,2.1-4.3,4.5c0,2.5,2,4.3,4.4,4.3c2.5,0,4.5-2,4.4-4.4
		C21,21.4,18.8,19.2,16.5,19.3z"/>
	<path class="st0" d="M5.4,43.5c0.2-4.9,3.1-8.5,7.4-9.5c3.5-0.8,7-0.7,10.3,1.1c0.6,0.3,0.7,1.6,1,2.4c-0.8,0.1-1.6,0.5-2.4,0.4
		c-1.1-0.1-2.1-0.7-3.2-0.9c-5.6-0.7-9.2,0.8-9.9,6.1c-0.1,0.7-1.3,1.3-2,2C6.1,44.4,5.6,43.7,5.4,43.5z"/>
</g>
</svg>
