<?xml version="1.0" encoding="utf-8"?>
<!-- Generator: Adobe Illustrator 16.0.0, SVG Export Plug-In . SVG Version: 6.00 Build 0)  -->
<!DOCTYPE svg PUBLIC "-//W3C//DTD SVG 1.1//EN" "http://www.w3.org/Graphics/SVG/1.1/DTD/svg11.dtd">
<svg version="1.1" id="圖層_1" xmlns="http://www.w3.org/2000/svg" xmlns:xlink="http://www.w3.org/1999/xlink" x="0px" y="0px"
	 width="23.912px" height="23.912px" viewBox="0 0 23.912 23.912" enable-background="new 0 0 23.912 23.912" xml:space="preserve">
<g>
	<path fill-rule="evenodd" clip-rule="evenodd" fill="#3E3A39" d="M21.213,9.688c-0.068,2.99-1.148,5.663-2.755,8.113
		c-1.017,1.548-2.178,3.015-3.396,4.411c-1.45,1.665-3.747,1.937-5.466,0.654c-0.818-0.611-1.493-1.44-2.146-2.242
		c-1.827-2.248-3.355-4.678-4.188-7.481C2.463,10.454,2.431,7.811,3.72,5.224c2.847-5.71,10.888-6.734,15.069-1.922
		C20.39,5.146,21.202,7.256,21.213,9.688z M9.423,9.449c-0.003,1.426,1.117,2.554,2.56,2.579c1.318,0.021,2.492-1.156,2.505-2.515
		c0.012-1.423-1.128-2.603-2.526-2.607C10.588,6.9,9.427,8.063,9.423,9.449z"/>
</g>
</svg>
