<?xml version="1.0" encoding="utf-8"?>
<!-- Generator: Adobe Illustrator 16.0.0, SVG Export Plug-In . SVG Version: 6.00 Build 0)  -->
<!DOCTYPE svg PUBLIC "-//W3C//DTD SVG 1.1//EN" "http://www.w3.org/Graphics/SVG/1.1/DTD/svg11.dtd">
<svg version="1.1" id="圖層_1" xmlns="http://www.w3.org/2000/svg" xmlns:xlink="http://www.w3.org/1999/xlink" x="0px" y="0px"
	 width="23.912px" height="23.912px" viewBox="0 0 23.912 23.912" enable-background="new 0 0 23.912 23.912" xml:space="preserve">
<g>
	<path fill-rule="evenodd" clip-rule="evenodd" fill="#3E3A39" d="M3.573-0.055c5.565,0,11.132,0,16.698,0
		c0.418,0.125,0.857,0.202,1.25,0.383c0.744,0.343,1.344,0.886,1.785,1.578c0.352,0.555,0.605,1.145,0.604,1.837
		C23.9,9.252,23.9,14.76,23.912,20.268c0,0.565-0.189,1.058-0.441,1.532c-0.361,0.68-0.887,1.227-1.545,1.619
		c-0.521,0.311-1.072,0.549-1.713,0.547c-5.564-0.01-11.131-0.002-16.696-0.016c-0.333,0-0.686-0.092-0.994-0.223
		c-0.783-0.331-1.415-0.864-1.899-1.568c-0.485-0.705-0.77-1.486-0.772-2.336C-0.161,14.757-0.154,9.691-0.158,4.625
		c0-0.512,0.035-1.011,0.174-1.512C0.21,2.415,0.547,1.806,1.039,1.29c0.422-0.442,0.896-0.828,1.496-1.017
		C2.881,0.164,3.227,0.054,3.573-0.055z M11.906,3.825c-0.001-0.015-0.003-0.03-0.004-0.044c-0.483,0.046-0.969,0.081-1.45,0.142
		c-0.361,0.046-0.719,0.123-1.077,0.191c-0.604,0.115-1.17,0.34-1.732,0.584C6.79,5.067,6.021,5.56,5.337,6.181
		c-0.932,0.847-1.62,1.85-1.979,3.076c-0.154,0.526-0.227,1.059-0.264,1.597c-0.018,0.245,0.076,0.497,0.075,0.745
		c-0.003,0.52,0.141,1.013,0.33,1.476c0.297,0.723,0.701,1.385,1.229,1.981c0.699,0.79,1.519,1.413,2.442,1.892
		c0.517,0.267,1.086,0.438,1.64,0.629c0.342,0.119,0.695,0.201,1.048,0.289c0.292,0.072,0.588,0.135,0.885,0.188
		c0.546,0.096,0.623,0.612,0.574,0.99c-0.023,0.174-0.056,0.348-0.084,0.521c-0.009,0.056-0.022,0.111-0.028,0.167
		c-0.023,0.206-0.063,0.413-0.056,0.618c0.002,0.06,0.142,0.166,0.214,0.162c0.203-0.012,0.429-0.025,0.601-0.119
		c0.587-0.32,1.165-0.658,1.724-1.02c0.676-0.438,1.342-0.891,1.99-1.367c0.619-0.453,1.223-0.932,1.814-1.422
		c0.973-0.807,1.824-1.729,2.445-2.838c0.449-0.801,0.742-1.66,0.723-2.593c-0.012-0.501-0.025-1.008-0.111-1.5
		c-0.066-0.381-0.23-0.749-0.379-1.111c-0.25-0.614-0.609-1.165-1.039-1.666c-0.605-0.704-1.313-1.299-2.123-1.747
		c-0.561-0.311-1.156-0.572-1.758-0.797c-0.422-0.158-0.879-0.232-1.324-0.316c-0.432-0.082-0.869-0.14-1.307-0.187
		C12.383,3.804,12.144,3.825,11.906,3.825z"/>
	<path fill-rule="evenodd" clip-rule="evenodd" fill="#3E3A39" d="M13.516,11.303c0-0.68-0.006-1.356,0.004-2.032
		c0.004-0.155,0.088-0.265,0.281-0.25c0.17,0.014,0.342,0.004,0.516,0.003c0.17-0.002,0.25,0.089,0.25,0.25
		c0.002,1.219,0.008,2.438-0.01,3.657c-0.002,0.104-0.141,0.27-0.248,0.301c-0.412,0.123-0.662-0.002-0.932-0.371
		c-0.445-0.611-0.902-1.213-1.356-1.817c-0.041-0.055-0.092-0.103-0.168-0.188c-0.011,0.101-0.022,0.16-0.022,0.219
		c-0.001,0.622-0.006,1.244,0.002,1.865c0.003,0.218-0.091,0.317-0.3,0.305c-0.184-0.012-0.37-0.021-0.547-0.065
		c-0.062-0.017-0.138-0.136-0.138-0.209c-0.009-1.235-0.006-2.47-0.007-3.705c-0.001-0.164,0.074-0.24,0.234-0.24
		c0.017,0,0.033,0,0.05,0c0.672-0.019,0.672-0.019,1.062,0.523c0.405,0.563,0.808,1.127,1.216,1.687
		C13.432,11.276,13.496,11.292,13.516,11.303z"/>
	<path fill-rule="evenodd" clip-rule="evenodd" fill="#3E3A39" d="M17.922,9.025c0,0.294,0.014,0.562-0.01,0.827
		c-0.006,0.06-0.137,0.151-0.215,0.153c-0.432,0.015-0.865,0.007-1.299,0.007c-0.08,0-0.158,0-0.248,0c0,0.203,0,0.38,0,0.589
		c0.473,0,0.943,0,1.416,0c0.363,0,0.365,0,0.365,0.368c0,0.195,0,0.389,0,0.607c-0.602,0-1.17,0-1.766,0c0,0.205,0,0.387,0,0.608
		c0.34,0,0.695,0.004,1.053-0.001c0.82-0.013,0.707,0.003,0.711,0.733c0.002,0.279-0.051,0.328-0.328,0.328
		c-0.719,0.002-1.439,0.002-2.158,0c-0.219,0-0.363-0.137-0.363-0.352c-0.004-1.194-0.004-2.387,0-3.581
		c0-0.156,0.047-0.287,0.242-0.287C16.172,9.025,17.021,9.025,17.922,9.025z"/>
	<path fill-rule="evenodd" clip-rule="evenodd" fill="#3E3A39" d="M6.912,9.025c0,1.053,0,2.08,0,3.13
		c0.118,0.012,0.212,0.028,0.307,0.029c0.417,0.002,0.835,0.002,1.252,0c0.215-0.001,0.33,0.083,0.313,0.317
		c-0.012,0.154-0.007,0.311-0.001,0.467c0.009,0.195-0.088,0.278-0.273,0.278c-0.753,0-1.506,0.007-2.259-0.005
		c-0.187-0.004-0.324-0.094-0.323-0.332c0.008-1.202,0.006-2.405,0.002-3.608c-0.001-0.197,0.086-0.28,0.276-0.277
		C6.432,9.027,6.659,9.025,6.912,9.025z"/>
	<path fill-rule="evenodd" clip-rule="evenodd" fill="#3E3A39" d="M10.271,9.025c0.02,0.221,0.053,0.421,0.054,0.623
		c0.006,1.039,0.003,2.077,0.003,3.116c-0.001,0.385-0.099,0.481-0.482,0.481c-0.073,0-0.147,0.002-0.221,0
		c-0.215-0.006-0.35-0.133-0.35-0.342c-0.002-1.202,0-2.405-0.001-3.607c-0.001-0.173,0.07-0.273,0.256-0.272
		C9.758,9.026,9.986,9.025,10.271,9.025z"/>
</g>
</svg>
