<?xml version="1.0" encoding="utf-8"?>
<!-- Generator: Adobe Illustrator 16.0.0, SVG Export Plug-In . SVG Version: 6.00 Build 0)  -->
<!DOCTYPE svg PUBLIC "-//W3C//DTD SVG 1.1//EN" "http://www.w3.org/Graphics/SVG/1.1/DTD/svg11.dtd">
<svg version="1.1" id="圖層_1" xmlns="http://www.w3.org/2000/svg" xmlns:xlink="http://www.w3.org/1999/xlink" x="0px" y="0px"
	 width="87.635px" height="89.426px" viewBox="0 0 87.635 89.426" enable-background="new 0 0 87.635 89.426" xml:space="preserve">
<g>
	<path fill="#E65514" d="M71.063,11.294c-0.558,0.317-17.997,0.07-18.73,0.07c-12.679,0.001-25.357-0.007-38.036,0.005
		c-5.351,0.004-7.552,2.182-7.557,7.504c-0.014,17.18-0.014,34.359,0,51.541c0.005,5.259,2.298,7.534,7.576,7.537
		c16.263,0.009,32.523,0.01,48.786-0.001c5.288-0.003,7.467-2.22,7.477-7.573c0.012-7.534,0.019-15.066-0.007-22.602
		c-0.007-1.879,0.172-3.827,2.516-3.769c2.313,0.058,2.422,2.043,2.415,3.896c-0.021,7.717,0.031,15.434-0.021,23.15
		c-0.047,7.002-4.563,11.53-11.592,11.551c-16.813,0.045-33.626,0.047-50.438-0.002c-7.059-0.021-11.349-4.31-11.399-11.35
		C1.988,62.34,2.036,53.428,2.034,44.518C2.033,35.882,2.008,27.246,2.041,18.61C2.07,10.917,6.296,6.584,13.941,6.548
		C27.079,6.487,40.217,6.53,53.355,6.531c0.367,0,17.415-0.14,17.641,0.042"/>
	<path fill="#E65514" d="M43.531,49.654c0.227-2.922,0.337-5.861,0.726-8.762c0.162-1.205,0.695-2.502,1.438-3.464
		c8.469-10.953,16.993-21.862,25.539-32.753c2.141-2.727,4.092-2.958,6.833-0.9c2.418,1.817,4.814,3.669,7.149,5.592
		c2.248,1.853,2.506,3.665,0.734,5.948C77.124,26.687,68.262,38.03,59.36,49.34c-0.581,0.74-1.532,1.316-2.432,1.649
		c-2.658,0.991-5.368,1.846-8.068,2.713C44.173,55.209,43.319,54.55,43.531,49.654z M56.934,44.862
		c6.38-8.163,12.505-16,18.747-23.986c-2.411-1.861-4.562-3.521-6.854-5.29C62.514,23.679,56.35,31.582,50.11,39.578
		C52.492,41.424,54.579,43.039,56.934,44.862z M81.835,12.955c-2.298-1.794-4.421-3.456-6.736-5.265
		c-1.102,1.395-2.089,2.645-3.231,4.092c2.335,1.827,4.467,3.493,6.776,5.301C79.722,15.688,80.7,14.422,81.835,12.955z
		 M48.711,44.756c0,1.612,0,2.583,0,3.822c1.123-0.413,2.077-0.762,3.478-1.273C50.927,46.379,50.078,45.758,48.711,44.756z"/>
	<path fill="#E65514" d="M38.277,64.864c-5.96,0-11.922-0.011-17.882,0.008c-1.768,0.005-3.521-0.129-3.518-2.427
		c0.004-2.334,1.83-2.381,3.556-2.381c12.013,0,24.027,0.006,36.041-0.006c1.688,0,3.33,0.25,3.415,2.297
		c0.083,2.019-1.407,2.521-3.178,2.517C50.565,64.852,44.421,64.863,38.277,64.864z"/>
	<path fill="#E65514" d="M30.107,31.792c-3.398,0-6.797-0.011-10.196,0.004c-1.656,0.008-2.99-0.444-3.027-2.375
		c-0.037-1.937,1.323-2.489,2.944-2.496c6.798-0.028,13.596-0.019,20.394-0.008c1.646,0.003,3.064,0.604,3.065,2.426
		c0,1.992-1.475,2.489-3.259,2.463C36.722,31.76,33.414,31.793,30.107,31.792z"/>
	<path fill="#E65514" d="M29.342,47.669c-3.173,0-6.347-0.01-9.521,0.005c-1.546,0.008-2.791-0.443-2.825-2.375
		c-0.035-1.937,1.234-2.489,2.749-2.496c6.347-0.029,12.692-0.019,19.04-0.008c1.535,0.003,2.859,0.604,2.86,2.428
		c0.002,1.992-1.375,2.487-3.041,2.463C35.517,47.637,32.429,47.67,29.342,47.669z"/>
</g>
</svg>
