<?xml version="1.0" encoding="utf-8"?>
<!-- Generator: Adobe Illustrator 16.0.0, SVG Export Plug-In . SVG Version: 6.00 Build 0)  -->
<!DOCTYPE svg PUBLIC "-//W3C//DTD SVG 1.1//EN" "http://www.w3.org/Graphics/SVG/1.1/DTD/svg11.dtd">
<svg version="1.1" id="圖層_1" xmlns="http://www.w3.org/2000/svg" xmlns:xlink="http://www.w3.org/1999/xlink" x="0px" y="0px"
	 width="50px" height="50px" viewBox="0 0 50 50" enable-background="new 0 0 50 50" xml:space="preserve">
<g>
	<path fill-rule="evenodd" clip-rule="evenodd" fill="#A9A9A9" d="M17.439,25.775c-0.256-0.268-0.475-0.51-0.706-0.739
		c-4.186-4.146-8.366-8.295-12.564-12.427C2.93,11.388,2.326,9.996,2.896,8.281c0.848-2.557,4.001-3.516,6.042-1.752
		c1.71,1.479,3.269,3.133,4.877,4.728c3.837,3.809,7.665,7.629,11.493,11.446c2.043,2.036,2.063,4.127,0.043,6.143
		c-5.26,5.248-10.555,10.462-15.781,15.746c-2.328,2.354-6.056,1.369-6.758-1.56c-0.364-1.519,0.104-2.775,1.199-3.855
		c2.473-2.439,4.931-4.896,7.393-7.346c1.799-1.79,3.597-3.58,5.394-5.372C17.007,26.25,17.204,26.027,17.439,25.775z"/>
	<path fill-rule="evenodd" clip-rule="evenodd" fill="#A9A9A9" d="M38.771,25.711c-0.402-0.306-0.693-0.479-0.927-0.712
		c-4.229-4.184-8.456-8.371-12.67-12.57c-1.961-1.956-1.762-4.728,0.412-6.149c1.351-0.884,3.121-0.843,4.407,0.147
		c0.5,0.385,0.951,0.836,1.399,1.283c5.054,5.027,10.104,10.056,15.149,15.09c1.936,1.93,1.946,4.077,0.001,6.02
		c-5.304,5.289-10.625,10.559-15.931,15.844c-1.185,1.179-2.574,1.545-4.146,1.061c-1.413-0.437-2.262-1.461-2.554-2.901
		c-0.297-1.459,0.24-2.646,1.272-3.672c4.158-4.127,8.304-8.267,12.458-12.399C37.94,26.455,38.261,26.182,38.771,25.711z"/>
</g>
</svg>
