<?xml version="1.0" encoding="utf-8"?>
<!-- Generator: Adobe Illustrator 25.2.0, SVG Export Plug-In . SVG Version: 6.00 Build 0)  -->
<svg version="1.1" xmlns="http://www.w3.org/2000/svg" xmlns:xlink="http://www.w3.org/1999/xlink" x="0px" y="0px"
	 viewBox="0 0 50 50" style="enable-background:new 0 0 50 50;" xml:space="preserve">
<style type="text/css">
	.st0{fill-rule:evenodd;clip-rule:evenodd;fill:#222222;}
	.st1{fill-rule:evenodd;clip-rule:evenodd;fill:#727171;}
	.st2{fill:#FFFFFF;}
	.st3{fill:none;stroke:#FFFFFF;stroke-width:3;stroke-miterlimit:10;}
</style>
<g id="圖層_1">
</g>
<g id="圖層_2">
	<g>
		<path class="st0" d="M25.1,34.6c-1,0-2.1,0-3.2,0c0.5,2,0.2,3.7-1.4,5.1c-1,0.8-2.1,1.2-3.4,1.1c-2.5-0.2-4.8-2.5-3.9-6.2
			c-1.2-0.1-1.5-1-1.7-2c-1.4-5.4-2.8-10.7-4.2-16c-0.1-0.3-0.1-0.5-0.2-0.9c-1,0-2.1,0-3.2,0c-0.3,0-0.7,0-1-0.1
			c-0.8-0.2-1.2-0.7-1.2-1.5c0.1-0.8,0.6-1.3,1.4-1.3c1.7,0,3.4,0,5.1,0c0.8,0,1.2,0.5,1.4,1.2c0.3,1.1,0.6,2.2,0.9,3.3
			c0.1,0.6,0.4,0.8,1,0.8c3.8,0,7.6,0,11.4,0c0.3,0,0.6,0,1,0c-0.4,8,4.8,13.6,11.4,14.8c-0.1,1.1-0.2,1.3-1.5,1.7
			c0.5,1.9,0.2,3.5-1.2,4.9c-0.9,0.9-2.1,1.3-3.3,1.2C26.3,40.7,24.7,38.3,25.1,34.6z M31.2,36.3c0-0.9-0.7-1.6-1.6-1.7
			c-0.9,0-1.7,0.7-1.7,1.6c0,0.9,0.7,1.6,1.6,1.7C30.3,38,31.2,37.2,31.2,36.3z M19.3,36.3c0-0.9-0.8-1.7-1.7-1.6
			c-0.9,0-1.6,0.8-1.6,1.6c0,0.9,0.8,1.7,1.7,1.6C18.5,37.9,19.3,37.1,19.3,36.3z"/>
		<path class="st1" d="M48.2,19.8c0,5.8-4.7,10.6-10.6,10.6c-5.8,0-10.6-4.7-10.6-10.6S31.8,9.2,37.6,9.2
			C43.5,9.2,48.2,13.9,48.2,19.8z"/>
		<g>
			<line class="st2" x1="31.1" y1="18.9" x2="37.6" y2="24.6"/>
			<line class="st3" x1="31.1" y1="18.9" x2="37.6" y2="24.6"/>
		</g>
		<g>
			<line class="st2" x1="35.7" y1="24.9" x2="43.8" y2="14.9"/>
			<line class="st3" x1="35.7" y1="24.9" x2="43.8" y2="14.9"/>
		</g>
	</g>
</g>
</svg>
