<?xml version="1.0" encoding="utf-8"?>
<!-- Generator: Adobe Illustrator 16.0.0, SVG Export Plug-In . SVG Version: 6.00 Build 0)  -->
<!DOCTYPE svg PUBLIC "-//W3C//DTD SVG 1.1//EN" "http://www.w3.org/Graphics/SVG/1.1/DTD/svg11.dtd">
<svg version="1.1" id="圖層_1" xmlns="http://www.w3.org/2000/svg" xmlns:xlink="http://www.w3.org/1999/xlink" x="0px" y="0px"
	 width="23.912px" height="23.912px" viewBox="0 0 23.912 23.912" enable-background="new 0 0 23.912 23.912" xml:space="preserve">
<g>
	<path fill-rule="evenodd" clip-rule="evenodd" fill="#3E3A39" d="M0.712,13.087c7.525,0,15.008,0,22.5,0
		c0.02,0.075,0.05,0.133,0.049,0.188c-0.016,2.009,0.041,4.021-0.072,6.022c-0.121,2.125-2.134,3.929-4.26,3.935
		c-4.641,0.014-9.282,0.012-13.922,0c-2.337-0.006-4.208-1.883-4.319-4.422c-0.08-1.837-0.018-3.682-0.018-5.522
		C0.669,13.23,0.693,13.175,0.712,13.087z"/>
	<path fill-rule="evenodd" clip-rule="evenodd" fill="#3E3A39" d="M0.716,10.817C0.281,8.045,1.862,5.699,4.482,5.244
		C5.03,5.149,5.605,5.197,6.167,5.188c0.408-0.008,0.816-0.002,1.29-0.002c0-0.372-0.003-0.702,0.001-1.032
		C7.476,2.2,8.763,0.814,10.72,0.703c0.88-0.05,1.767-0.041,2.646,0.013c1.663,0.101,2.969,1.438,3.081,3.11
		c0.029,0.434,0.005,0.874,0.005,1.361c0.731,0,1.383,0.03,2.031-0.005c2.366-0.129,4.782,1.651,4.783,4.743
		c0,0.286,0,0.572,0,0.893C15.728,10.817,8.233,10.817,0.716,10.817z M9.716,5.159c1.532,0,2.998,0,4.518,0
		c0-0.295,0.004-0.563-0.002-0.832C14.23,4.174,14.228,4.021,14.2,3.874c-0.113-0.595-0.494-0.938-1.098-0.953
		c-0.758-0.018-1.518-0.018-2.276,0C10.229,2.935,9.794,3.298,9.727,3.87C9.678,4.285,9.716,4.71,9.716,5.159z"/>
</g>
</svg>
