<?xml version="1.0" encoding="utf-8"?>
<!-- Generator: Adobe Illustrator 16.0.0, SVG Export Plug-In . SVG Version: 6.00 Build 0)  -->
<!DOCTYPE svg PUBLIC "-//W3C//DTD SVG 1.1//EN" "http://www.w3.org/Graphics/SVG/1.1/DTD/svg11.dtd">
<svg version="1.1" id="圖層_1" xmlns="http://www.w3.org/2000/svg" xmlns:xlink="http://www.w3.org/1999/xlink" x="0px" y="0px"
	 width="70px" height="70px" viewBox="0 0 70 70" enable-background="new 0 0 70 70" xml:space="preserve">
<g>
	<path fill-rule="evenodd" clip-rule="evenodd" fill="#9FA0A0" d="M3.39,21.706c19.835,0,39.753,0,59.911,0
		c0,5.846,0,11.574,0,17.724c-6.485-1.819-12.644-1.499-17.852,3.164c-5.124,4.588-6.269,10.532-5.105,17.497
		c-5.043,0-9.729,0.002-14.415,0c-6.261,0-12.523-0.04-18.784,0.018c-2.521,0.022-4.212-0.843-4.214-3.57
		C2.921,45.197,2.973,33.859,3.018,22.52C3.019,22.308,3.206,22.097,3.39,21.706z M29.86,30.263c0,2.277,0,4.112,0,6.061
		c2.253,0,4.3,0,6.393,0c0-2.152,0-4.077,0-6.061C34.023,30.263,32.057,30.263,29.86,30.263z M36.293,45.303
		c-2.255,0-4.301,0-6.636,0c0,1.141-0.025,2.063,0.007,2.982c0.035,1.029,0.122,2.055,0.182,3.013
		C36.556,52.645,36.885,52.343,36.293,45.303z M19.464,30.38c-2.332,0-4.349,0-6.391,0c0,2.117,0,3.947,0,5.952
		c2.213,0,4.237,0,6.391,0C19.464,34.289,19.464,32.455,19.464,30.38z M52.979,36.395c0-2.266,0-4.176,0-6.097
		c-2.241,0-4.172,0-6.203,0c0,2.123,0,4.038,0,6.097C48.906,36.395,50.842,36.395,52.979,36.395z M19.392,51.586
		c0-2.371,0-4.305,0-6.252c-2.238,0-4.261,0-6.249,0c0,2.2,0,4.133,0,6.252C15.327,51.586,17.255,51.586,19.392,51.586z"/>
	<path fill-rule="evenodd" clip-rule="evenodd" fill="#9FA0A0" d="M14.398,8.09c0.718,3.382-1.206,8.126,3.5,8.164
		c4.848,0.039,2.741-5.066,3.857-8.025c2.437,0,4.877,0,7.52,0c1.298,2.707-1.444,8.329,4.174,7.963
		c4.269-0.278,2.619-4.787,3.286-7.861c2.454,0,4.979,0,7.859,0c0.108,1.529-0.178,3.315,0.448,4.685
		c0.621,1.36,2.16,2.3,3.297,3.425c1.061-1.229,2.462-2.309,3.078-3.73c0.514-1.184,0.105-2.766,0.105-4.608
		c3,0,5.846-0.321,8.554,0.147c1.194,0.207,2.796,1.894,3.014,3.122c0.463,2.609,0.141,5.358,0.141,8.281
		c-20.156,0-39.964,0-60.282,0c0-2.853-0.321-5.696,0.147-8.401c0.208-1.196,1.893-2.801,3.12-3.019
		C8.827,7.769,11.577,8.09,14.398,8.09z"/>
	<path fill-rule="evenodd" clip-rule="evenodd" fill="#9FA0A0" d="M70,55.224c-0.04,7.445-6.069,13.341-13.575,13.271
		c-7.246-0.068-13.264-6.081-13.319-13.311c-0.055-7.243,6.271-13.595,13.533-13.582C63.984,41.612,70.04,47.786,70,55.224z
		 M58.154,53.538c0-2.615,0.082-4.713-0.057-6.797c-0.036-0.547-0.681-1.356-1.186-1.48c-0.46-0.114-1.585,0.517-1.6,0.855
		c-0.138,3.15-0.154,6.313-0.036,9.464c0.015,0.384,1.015,1.011,1.585,1.044c2.103,0.117,4.226,0.141,6.32-0.042
		c0.607-0.055,1.145-0.915,1.714-1.405c-0.631-0.547-1.197-1.434-1.906-1.565C61.64,53.359,60.21,53.538,58.154,53.538z"/>
	<path fill-rule="evenodd" clip-rule="evenodd" fill="#9FA0A0" d="M19.584,8.227c0,1.53,0.133,3.077-0.064,4.581
		c-0.083,0.631-1.031,1.725-1.304,1.645c-0.748-0.218-1.879-0.914-1.915-1.481c-0.203-3.164-0.245-6.353-0.049-9.514
		c0.042-0.675,1.295-1.275,1.992-1.909c0.452,0.697,1.195,1.354,1.296,2.098c0.206,1.502,0.061,3.052,0.061,4.582
		C19.596,8.227,19.59,8.227,19.584,8.227z"/>
	<path fill-rule="evenodd" clip-rule="evenodd" fill="#9FA0A0" d="M46.577,7.701c-0.003-1.413-0.169-2.854,0.065-4.227
		c0.12-0.711,0.952-1.302,1.462-1.947c0.627,0.583,1.758,1.138,1.793,1.756c0.185,3.166,0.182,6.352,0.002,9.518
		c-0.035,0.626-1.133,1.193-1.74,1.787c-0.525-0.648-1.405-1.246-1.506-1.954C46.427,11.018,46.582,9.349,46.577,7.701z"/>
	<path fill-rule="evenodd" clip-rule="evenodd" fill="#9FA0A0" d="M34.593,8.099c0,1.637,0.127,3.289-0.068,4.901
		c-0.07,0.577-0.921,1.059-1.414,1.585c-0.51-0.51-1.436-1.001-1.46-1.533c-0.142-3.267-0.164-6.547-0.01-9.813
		c0.028-0.602,1.038-1.158,1.596-1.735c0.456,0.562,1.236,1.086,1.305,1.691c0.184,1.615,0.062,3.266,0.062,4.902
		C34.601,8.099,34.597,8.099,34.593,8.099z"/>
</g>
</svg>
