<?xml version="1.0" encoding="utf-8"?>
<!-- Generator: Adobe Illustrator 16.0.0, SVG Export Plug-In . SVG Version: 6.00 Build 0)  -->
<!DOCTYPE svg PUBLIC "-//W3C//DTD SVG 1.1//EN" "http://www.w3.org/Graphics/SVG/1.1/DTD/svg11.dtd">
<svg version="1.1" id="圖層_1" xmlns="http://www.w3.org/2000/svg" xmlns:xlink="http://www.w3.org/1999/xlink" x="0px" y="0px"
	 width="30px" height="30px" viewBox="0 0 30 30" enable-background="new 0 0 30 30" xml:space="preserve">
<g>
	<path fill-rule="evenodd" clip-rule="evenodd" fill="#FFFFFF" d="M22.778,16.577c0.362-0.499,0.723-0.99,1.078-1.483
		c1.01-1.395,2.015-2.794,3.026-4.188c0.464-0.64,1.246-0.733,1.748-0.216c0.344,0.354,0.391,0.908,0.1,1.314
		c-1.329,1.838-2.658,3.673-3.99,5.511c-0.225,0.313-0.45,0.625-0.678,0.936c-0.378,0.516-1.006,0.635-1.547,0.279
		c-1.195-0.782-2.387-1.571-3.572-2.362c-0.398-0.265-0.532-0.612-0.43-1.042c0.1-0.414,0.391-0.667,0.804-0.689
		c0.263-0.015,0.574,0.074,0.801,0.215c0.842,0.522,1.657,1.083,2.483,1.628C22.648,16.511,22.7,16.535,22.778,16.577z"/>
</g>
<g>
	<path fill-rule="evenodd" clip-rule="evenodd" fill="#FFFFFF" d="M12.405,27.615c-2.086,0-4.171,0.003-6.257,0
		c-0.782-0.003-1.513-0.168-2.107-0.72c-0.57-0.53-0.913-1.174-0.944-1.962c-0.055-1.357-0.004-2.701,0.633-3.945
		c1.132-2.215,2.917-3.558,5.411-3.709c2.118-0.127,4.252-0.15,6.372-0.054c3.578,0.163,6.28,3.104,6.287,6.68
		c0.001,0.681,0.049,1.371-0.257,2.009c-0.56,1.177-1.522,1.702-2.8,1.702C16.631,27.618,14.518,27.615,12.405,27.615z
		 M12.426,26.021c2.086,0,4.172,0.002,6.257,0c1.016-0.001,1.508-0.489,1.513-1.491c0.001-0.2,0.003-0.4,0.001-0.601
		c-0.004-2.816-2.129-5.043-4.939-5.107c-1.884-0.045-3.77-0.042-5.655,0.001c-1.483,0.036-2.733,0.632-3.714,1.776
		c-0.973,1.133-1.263,2.46-1.211,3.911c0.037,1.038,0.486,1.511,1.533,1.511C8.283,26.023,10.354,26.021,12.426,26.021z"/>
	<path fill-rule="evenodd" clip-rule="evenodd" fill="#FFFFFF" d="M12.447,15.99c-3.011,0.014-5.479-2.445-5.492-5.475
		c-0.013-2.971,2.47-5.453,5.466-5.464c3.004-0.011,5.453,2.418,5.48,5.44C17.932,13.508,15.482,15.975,12.447,15.99z
		 M12.451,14.385c2.144-0.017,3.873-1.763,3.849-3.89c-0.022-2.132-1.741-3.837-3.865-3.838c-2.133,0-3.887,1.752-3.873,3.873
		C8.575,12.667,10.326,14.401,12.451,14.385z"/>
</g>
</svg>
