<?xml version="1.0" encoding="utf-8"?>
<!-- Generator: Adobe Illustrator 25.2.0, SVG Export Plug-In . SVG Version: 6.00 Build 0)  -->
<svg version="1.1" id="圖層_1" xmlns="http://www.w3.org/2000/svg" xmlns:xlink="http://www.w3.org/1999/xlink" x="0px" y="0px"
	 viewBox="0 0 21.4 15.5" style="enable-background:new 0 0 21.4 15.5;" xml:space="preserve">
<style type="text/css">
	.st0{fill-rule:evenodd;clip-rule:evenodd;fill:#DA541A;}
	.st1{fill-rule:evenodd;clip-rule:evenodd;fill:#FFFFFF;}
</style>
<g>
	<path class="st0" d="M10.1,4.8c0.1-0.9-0.8-1.2-1.4-0.9C8.2,4.1,7.9,4.5,7.8,5.1C7.7,6.3,7,7,5.9,7c-1.1,0-2-0.7-2.1-1.8
		C3.6,4.4,3.9,3.8,4.5,3.3c0.6-0.5,1.3-0.6,2-0.3c1,0.4,1.9,0,2.1-1.2C8.7,1,9.3,0.3,10.1,0.1c0.8-0.2,1.7,0.1,2.2,0.8
		c0.5,0.7,0.6,1.7,0.1,2.4c-0.1,0.2-0.3,0.3-0.5,0.4c-0.6,0.4-0.8,0.9-0.6,1.6c0.3,1.3,0.9,2.3,1.9,3.2c0.5,0.5,1,0.5,1.5,0.2
		c0.6-0.4,0.6-1.6,0-2c-0.4-0.3-0.8-0.7-1-1.3c-0.2-0.9,0.2-1.9,1-2.4c0.8-0.5,1.8-0.3,2.5,0.4c0.6,0.7,0.8,1.8,0.3,2.6
		c-0.1,0.2-0.3,0.4-0.5,0.5c-0.7,0.5-1,1.7-0.1,2.3c0.7,0.5,1.1,1.2,1,2.1c-0.1,0.8-0.8,1.4-1.7,1.6c-0.8,0.2-1.6-0.1-2-0.8
		c-0.2-0.3-0.4-0.8-0.4-1.2c-0.1-0.4-0.2-0.7-0.5-0.8C11.6,9,10.1,9,8.7,9.6c-0.3,0.1-0.6,0.4-0.7,0.7C7.7,11,8.3,11.7,9,11.7
		c0.3,0,0.6-0.1,0.8-0.2c0.9-0.3,1.7-0.3,2.3,0.4c0.7,0.7,0.8,1.8,0.3,2.6C12,15.4,11,15.7,10,15.4c-0.8-0.3-1.3-0.9-1.4-1.8
		c-0.1-1-1-1.4-1.9-1c-0.4,0.2-0.8,0.3-1.3,0.2c-1.2-0.2-1.9-1.4-1.7-2.5C4.1,9,5.3,8.3,6.4,8.7C6.9,8.8,7.3,9,7.8,8.8
		C8,8.7,8.2,8.5,8.4,8.4C9.3,7.5,10.1,6,10.1,4.8z M9.5,2.1c0,0.6,0.5,1.1,1.1,1.1c0.6,0,1.1-0.5,1.1-1.1c0-0.6-0.5-1.1-1.1-1.1
		C10,1,9.5,1.5,9.5,2.1z M5.7,9.5c-0.6,0-1.1,0.5-1.1,1.1c0,0.6,0.5,1.1,1.1,1.1c0.6,0,1.1-0.5,1.1-1.1C6.8,10,6.3,9.5,5.7,9.5z
		 M16.8,10.5c0-0.6-0.5-1.1-1.1-1.1c-0.6,0-1.1,0.5-1.1,1.1c0,0.6,0.5,1.1,1.1,1.1C16.3,11.6,16.8,11.1,16.8,10.5z"/>
	<path class="st0" d="M2,5.8c1.1,0,2,0.9,2,2c0,1.1-0.9,2-2,2c-1.1,0-2-0.9-2-2C0,6.7,0.9,5.8,2,5.8z"/>
	<path class="st0" d="M21.4,7.8c0,1.1-0.9,2-2,2c-1.1,0-2-0.9-2-2c0-1.1,0.9-2,2-2C20.6,5.8,21.4,6.7,21.4,7.8z M19.4,6.7
		c-0.6,0-1.1,0.5-1.1,1.1c0,0.6,0.5,1.1,1.1,1.1c0.6,0,1.1-0.5,1.1-1.1C20.5,7.2,20.1,6.7,19.4,6.7z"/>
	<path class="st1" d="M9.5,2.1C9.5,1.5,10,1,10.7,1c0.6,0,1.1,0.5,1.1,1.1c0,0.6-0.5,1.1-1.1,1.1C10,3.2,9.5,2.7,9.5,2.1z"/>
	<path class="st1" d="M5.7,9.5c0.6,0,1.1,0.5,1.1,1.1c0,0.6-0.5,1.1-1.1,1.1c-0.6,0-1.1-0.5-1.1-1.1C4.6,10,5.1,9.5,5.7,9.5z"/>
	<path class="st1" d="M16.8,10.5c0,0.6-0.5,1.1-1.1,1.1c-0.6,0-1.1-0.5-1.1-1.1c0-0.6,0.5-1.1,1.1-1.1C16.3,9.4,16.8,9.9,16.8,10.5z
		"/>
	<path class="st1" d="M19.4,6.7c0.6,0,1.1,0.5,1.1,1.1c0,0.6-0.5,1.1-1.1,1.1c-0.6,0-1.1-0.5-1.1-1.1C18.3,7.1,18.8,6.7,19.4,6.7z"
		/>
</g>
</svg>
