<?xml version="1.0" encoding="utf-8"?>
<!-- Generator: Adobe Illustrator 25.2.0, SVG Export Plug-In . SVG Version: 6.00 Build 0)  -->
<svg version="1.1" id="圖層_1" xmlns="http://www.w3.org/2000/svg" xmlns:xlink="http://www.w3.org/1999/xlink" x="0px" y="0px"
	 viewBox="0 0 52.9 38.3" style="enable-background:new 0 0 52.9 38.3;" xml:space="preserve">
<style type="text/css">
	.st0{opacity:0.45;}
	.st1{fill-rule:evenodd;clip-rule:evenodd;fill:#D8D8D8;}
</style>
<g id="輔助圖形_1_" class="st0">
	<path class="st1" d="M24.9,11.9c0.2-2.3-1.9-3-3.4-2.3c-1.4,0.6-2.2,1.6-2.3,3.2c-0.3,2.9-2.1,4.6-4.8,4.6
		c-2.7,0.1-4.9-1.7-5.2-4.5c-0.3-1.9,0.5-3.5,2-4.7s3.2-1.4,4.9-0.6c2.6,1.1,4.7-0.1,5.1-2.9c0.3-2.3,1.6-3.9,3.7-4.4
		C27-0.4,29.1,0.4,30.4,2c1.3,1.7,1.4,4.1,0.2,5.9c-0.3,0.4-0.7,0.8-1.1,1.1c-1.5,1-1.9,2.2-1.5,3.9c0.7,3.1,2.3,5.7,4.6,7.9
		c1.2,1.1,2.5,1.3,3.6,0.5c1.5-1.1,1.5-3.8-0.1-5c-1.1-0.8-2.1-1.7-2.4-3.1C33.1,11,34,8.7,36.1,7.5c2-1.1,4.5-0.8,6.1,0.9
		s1.9,4.4,0.7,6.3c-0.3,0.5-0.8,1-1.3,1.3c-1.8,1.1-2.5,4.1-0.2,5.7c1.7,1.2,2.7,3,2.4,5.3c-0.3,2.1-1.9,3.5-4.2,4
		c-2,0.4-3.9-0.2-5-2c-0.5-0.9-0.9-1.9-1-2.9s-0.5-1.7-1.3-2c-3.6-1.7-7.2-1.8-10.8-0.3c-0.7,0.3-1.5,1.1-1.8,1.8
		c-0.6,1.5,0.9,3.2,2.7,3.3c0.7,0,1.4-0.2,2.1-0.4c2.1-0.8,4.1-0.6,5.8,1c1.8,1.8,2.1,4.4,0.7,6.5c-1.3,2-3.7,2.8-6.1,2
		c-2.1-0.8-3.2-2.3-3.5-4.5c-0.3-2.4-2.4-3.6-4.6-2.6c-1,0.5-2.1,0.7-3.2,0.5c-2.9-0.6-4.8-3.4-4.1-6.3c0.7-2.9,3.6-4.5,6.5-3.6
		c1.1,0.3,2.2,0.9,3.3,0.2c0.5-0.3,1.1-0.6,1.5-1C23.1,18.6,24.9,14.7,24.9,11.9z M23.6,5.2c0,1.5,1.2,2.7,2.7,2.7
		C27.8,8,29,6.7,29,5.2s-1.2-2.7-2.8-2.7C24.8,2.5,23.6,3.7,23.6,5.2z M14.1,23.4c-1.5,0-2.7,1.2-2.8,2.7c0,1.5,1.2,2.8,2.7,2.8
		s2.8-1.2,2.8-2.7C16.9,24.7,15.7,23.4,14.1,23.4z M41.4,26c0-1.5-1.2-2.7-2.7-2.8c-1.5,0-2.8,1.2-2.8,2.7s1.2,2.8,2.7,2.8
		C40.1,28.7,41.4,27.5,41.4,26z"/>
	<path class="st1" d="M4.9,14.3c2.8,0,5,2.2,5,4.9s-2.2,5-4.9,5S0,22,0,19.3C0,16.5,2.2,14.3,4.9,14.3z"/>
	<path class="st1" d="M52.9,19.2c0,2.7-2.2,4.9-5,4.9c-2.7,0-5-2.3-4.9-5c0-2.8,2.2-4.9,5-4.9C50.7,14.2,52.9,16.4,52.9,19.2z
		 M48,16.4c-1.6,0-2.8,1.1-2.8,2.7c0,1.5,1.1,2.8,2.7,2.8c1.5,0,2.8-1.2,2.8-2.7C50.7,17.7,49.5,16.5,48,16.4z"/>
</g>
</svg>
