<?xml version="1.0" encoding="utf-8"?>
<!-- Generator: Adobe Illustrator 25.2.0, SVG Export Plug-In . SVG Version: 6.00 Build 0)  -->
<svg version="1.1" id="圖層_1" xmlns="http://www.w3.org/2000/svg" xmlns:xlink="http://www.w3.org/1999/xlink" x="0px" y="0px"
	 viewBox="0 0 157.3 31.2" style="enable-background:new 0 0 157.3 31.2;" xml:space="preserve">
<style type="text/css">
	.st0{fill:#CF531D;}
	.st1{fill:#FFFFFF;}
	.st2{fill-rule:evenodd;clip-rule:evenodd;fill:#CF531D;}
	.st3{fill-rule:evenodd;clip-rule:evenodd;fill:#FFFFFF;}
</style>
<g id="橫式LOGO_x2B_中文名_3_">
	<g>
		<path class="st0" d="M53.4,14.2V1.9c0-0.2-0.2-0.3-0.5-0.1c0.3-0.4,0.9-0.6,1.8-0.6c0.9,0,1.3,0.2,1.3,0.7v10.1h4.6
			c0.2,0,0.3-0.2,0.1-0.5c0.4,0.3,0.6,0.8,0.6,1.5c0,0.7-0.2,1.1-0.7,1.1H53.4z"/>
		<path class="st1" d="M65.7,2.8c-0.4,0-0.8-0.1-1.1-0.4c-0.3-0.3-0.4-0.6-0.4-1c0-0.4,0.1-0.8,0.4-1C64.9,0.1,65.2,0,65.7,0
			s0.8,0.1,1.1,0.4c0.3,0.3,0.4,0.6,0.4,1c0,0.4-0.1,0.8-0.4,1C66.5,2.7,66.1,2.8,65.7,2.8z M67.4,13.6c-0.3,0.4-0.9,0.6-1.8,0.6
			c-0.9,0-1.3-0.2-1.3-0.7V4.4h1.8c0.6,0,0.8,0.3,0.8,0.8v8.3C67,13.8,67.1,13.8,67.4,13.6z"/>
		<path class="st1" d="M73.8,13.6c-0.3,0.4-0.9,0.6-1.8,0.6c-0.9,0-1.3-0.2-1.3-0.7V4.4h1.3c0.6,0,0.9,0.3,0.9,0.8l0.1,0.5
			c1.1-1,2.2-1.5,3.2-1.5c2,0,3,1.3,3,4v5.4c0,0.2,0.2,0.3,0.5,0.1c-0.3,0.4-0.9,0.6-1.8,0.6c-0.9,0-1.3-0.2-1.3-0.7V8.4
			c0-0.7-0.1-1.3-0.3-1.6c-0.2-0.3-0.5-0.5-1-0.5c-0.4,0-0.8,0.1-1.1,0.3l-1,0.8v6C73.4,13.8,73.5,13.8,73.8,13.6z"/>
		<path class="st1" d="M86.1,13.6c-0.3,0.4-0.9,0.6-1.7,0.6c-0.8,0-1.3-0.2-1.3-0.7V0.2h1.7c0.6,0,0.8,0.3,0.8,0.8v7.6l3-3.7
			c0.2-0.2,0-0.2-0.4-0.1c0.6-0.3,1.3-0.5,2.2-0.5c0.9,0,1.3,0.2,1,0.5l-2.9,3.5l3.3,5.2c0.1,0.2,0.3,0.2,0.5,0.1
			c-0.1,0.3-0.6,0.5-1.5,0.5c-0.9,0-1.5-0.2-1.7-0.6l-2-3.5l-1.4,1.6v1.8C85.6,13.8,85.8,13.8,86.1,13.6z"/>
		<path class="st1" d="M96.1,2.8c-0.4,0-0.8-0.1-1.1-0.4c-0.3-0.3-0.4-0.6-0.4-1c0-0.4,0.1-0.8,0.4-1C95.3,0.1,95.6,0,96.1,0
			c0.4,0,0.8,0.1,1.1,0.4c0.3,0.3,0.4,0.6,0.4,1c0,0.4-0.1,0.8-0.4,1C96.9,2.7,96.5,2.8,96.1,2.8z M97.8,13.6
			c-0.3,0.4-0.9,0.6-1.8,0.6c-0.9,0-1.3-0.2-1.3-0.7V4.4h1.8c0.6,0,0.8,0.3,0.8,0.8v8.3C97.3,13.8,97.5,13.8,97.8,13.6z"/>
		<path class="st1" d="M104.2,13.6c-0.3,0.4-0.9,0.6-1.8,0.6c-0.9,0-1.3-0.2-1.3-0.7V4.4h1.3c0.6,0,0.9,0.3,0.9,0.8l0.1,0.5
			c1.1-1,2.2-1.5,3.2-1.5c2,0,3,1.3,3,4v5.4c0,0.2,0.2,0.3,0.5,0.1c-0.3,0.4-0.9,0.6-1.8,0.6c-0.9,0-1.3-0.2-1.3-0.7V8.4
			c0-0.7-0.1-1.3-0.3-1.6c-0.2-0.3-0.5-0.5-1-0.5c-0.4,0-0.8,0.1-1.1,0.3l-1,0.8v6C103.7,13.8,103.9,13.8,104.2,13.6z"/>
		<path class="st1" d="M116.9,18.5c-1.2,0-2.2-0.2-3-0.6c-0.8-0.4-1.1-1-1.1-1.9c0-0.8,0.5-1.5,1.4-2.1c-0.6-0.4-0.9-0.9-0.9-1.7
			c0-0.7,0.2-1.2,0.7-1.5c0.3-0.2,0.3-0.5,0.1-0.6l-0.6-0.8c-0.2-0.5-0.4-1-0.4-1.5c0-1.1,0.4-2,1.2-2.6c0.8-0.6,1.7-0.9,2.8-0.9
			c0.5,0,1,0.1,1.5,0.2h2.8c0.2,0,0.3-0.2,0.1-0.5c0.4,0.3,0.6,0.8,0.6,1.4c0,0.6-0.2,0.9-0.7,0.9h-0.9c0.3,0.4,0.4,0.9,0.4,1.5
			c0,1.1-0.4,1.9-1.1,2.5c-0.7,0.6-1.6,0.9-2.7,0.9c-0.4,0-0.8-0.1-1.3-0.2c-0.3,0.2-0.4,0.5-0.4,0.8c0,0.3,0.1,0.5,0.4,0.6
			c0.2,0.1,0.6,0.2,1.2,0.2h1.7c2.4,0,3.7,0.8,3.7,2.5c0,1-0.5,1.8-1.5,2.5C119.8,18.2,118.5,18.5,116.9,18.5z M115.6,16.5
			c0.4,0.2,1,0.4,1.7,0.4c0.7,0,1.3-0.1,1.8-0.4c0.5-0.3,0.7-0.6,0.7-1c0-0.4-0.1-0.6-0.4-0.7c-0.3-0.1-0.7-0.2-1.2-0.2l-2.6-0.1
			c-0.4,0.3-0.6,0.7-0.6,1.1C115,16,115.2,16.3,115.6,16.5z M117.1,9.5c0.4,0,0.8-0.2,1.1-0.5c0.3-0.3,0.4-0.8,0.4-1.3
			c0-0.6-0.1-1-0.4-1.3c-0.3-0.3-0.6-0.5-1.1-0.5c-0.5,0-0.8,0.2-1.1,0.5c-0.3,0.3-0.4,0.8-0.4,1.3c0,0.6,0.1,1,0.4,1.3
			C116.3,9.4,116.6,9.5,117.1,9.5z"/>
		<path class="st0" d="M128.3,13.6c-0.3,0.4-0.9,0.6-1.8,0.6s-1.3-0.2-1.3-0.7V1.2h1.8c0.6,0,0.8,0.3,0.8,0.8v4.8l3.9-5.1
			c0.2-0.2,0-0.2-0.4-0.1c0.5-0.3,1.3-0.5,2.2-0.5c1,0,1.3,0.2,1,0.6l-3.5,4.6l4.3,7.3c0.1,0.2,0.3,0.2,0.5,0.1
			c-0.1,0.3-0.6,0.5-1.6,0.5s-1.5-0.2-1.8-0.6l-3-5.2l-1.7,2.2v2.9C127.8,13.8,128,13.8,128.3,13.6z"/>
		<path class="st1" d="M143.9,11.7c0.5,0,0.9,0.3,1.2,0.9c0.3,0.5,0.2,0.9-0.2,1.2c-0.6,0.5-1.6,0.7-2.9,0.7c-1.3,0-2.4-0.5-3.4-1.4
			c-0.9-0.9-1.4-2.2-1.4-3.7c0-1.6,0.5-2.8,1.4-3.8c0.9-1,2-1.4,3.3-1.4c1.3,0,2.3,0.4,3,1.3c0.7,0.9,1.1,2,1.1,3.4l-0.1,0.4
			c0,0.6-0.3,0.8-0.9,0.8h-4.8c-0.3,0-0.4,0.2-0.4,0.5c0,0.4,0.3,0.9,0.8,1.3c0.5,0.4,1.1,0.6,1.8,0.6c0.7,0,1.3-0.1,1.5-0.3
			C144.2,12.1,144.2,11.9,143.9,11.7z M139.9,7.9c-0.1,0.3,0,0.4,0.3,0.4h3.1c0.3,0,0.4-0.2,0.4-0.5c0-0.3-0.1-0.7-0.4-1.1
			c-0.3-0.4-0.7-0.6-1.3-0.6c-0.6,0-1.1,0.2-1.5,0.6L139.9,7.9z"/>
		<path class="st1" d="M149.9,18.2l-0.6-0.1c-0.3,0-0.3,0.1-0.2,0.4c-0.3-0.3-0.4-0.8-0.3-1.5c0.2-0.7,0.5-0.9,0.9-0.9
			c0.9,0,1.5-0.5,1.8-1.5l0.2-0.6l-3.6-9c-0.1-0.2-0.3-0.3-0.5-0.1c0.2-0.4,0.7-0.5,1.5-0.5c0.9,0,1.4,0.2,1.5,0.7l2.3,6.7l1.9-6.7
			c0.1-0.2-0.1-0.3-0.4-0.1c0.4-0.4,1-0.6,1.8-0.6c0.8,0,1.2,0.2,1,0.7l-3.3,9.5c-0.5,1.2-1,2.2-1.6,2.8
			C151.7,17.9,150.9,18.2,149.9,18.2z"/>
	</g>
	<g>
		<path class="st1" d="M53,22h6.6c0.3,0,0.4,0.1,0.4,0.4V29c0,0.1,0.1,0.1,0.2,0.1c-0.1,0.2-0.4,0.3-0.7,0.3c-0.3,0-0.5-0.1-0.5-0.3
			v0h-5.1v0c0,0.1,0.1,0.1,0.2,0.1c-0.1,0.2-0.4,0.3-0.7,0.3c-0.3,0-0.5-0.1-0.5-0.3V22z M56.5,23.7l0-0.4c0-0.1-0.1-0.1-0.2-0.1
			c0.1-0.2,0.3-0.3,0.6-0.3c0.3,0,0.4,0.1,0.4,0.3l0,0.4h0.7c0.1,0,0.1-0.1,0-0.2c-0.3-0.2-0.3-0.3-0.2-0.3c0.1-0.2,0.1-0.4-0.1-0.4
			h-3.4c-0.1,0-0.2,0.1-0.2,0.2v5h5.1v-5c0-0.1-0.1-0.2-0.2-0.2h-0.8l0.3,0.2c0.2,0.2,0.2,0.4,0,0.6h0.1c0.1,0,0.1-0.1,0.1-0.2
			c0.2,0.1,0.3,0.3,0.3,0.6c0,0.2-0.1,0.3-0.3,0.3h-1.1c0,0.5,0.1,0.9,0.2,1.3c0.2-0.3,0.2-0.5,0.3-0.7c0-0.1,0-0.1-0.2-0.1
			c0.2-0.2,0.4-0.2,0.7-0.2c0.3,0,0.3,0.2,0.3,0.4c-0.1,0.5-0.4,1-0.8,1.5c0.1,0.3,0.2,0.4,0.4,0.4c0,0,0.1,0,0.1-0.1l0-0.3
			c0-0.1,0-0.2-0.2-0.2c0.1-0.1,0.3-0.1,0.5,0.1c0.2,0.2,0.3,0.4,0.2,0.6c0,0.2-0.1,0.4-0.3,0.6c-0.2,0.2-0.4,0.2-0.7,0.1
			c-0.2-0.1-0.4-0.3-0.6-0.5c-0.3,0.3-0.5,0.5-0.6,0.5c-0.1,0.1-0.1,0.1,0.1,0.2c-0.2,0-0.4-0.1-0.6-0.3c-0.2-0.2-0.2-0.4,0-0.5
			c-1.1,0.2-1.7,0.3-1.8,0.3c0,0,0,0.1,0,0.2c-0.1-0.1-0.1-0.3-0.1-0.6c0-0.2,0-0.4,0.2-0.4c0.4,0,1.1-0.1,2.1-0.3l0,0.4l0.4-0.4
			c-0.2-0.5-0.3-1.2-0.4-2.2h-1.9c-0.1,0-0.1,0.1-0.1,0.2c-0.2-0.1-0.3-0.3-0.3-0.6c0-0.2,0.1-0.3,0.3-0.3H56.5z M55.9,24.7
			c0.3,0,0.4,0.1,0.4,0.4v0.8c0,0.3-0.1,0.4-0.4,0.4h-1c-0.3,0-0.4-0.1-0.4-0.4v-0.8c0-0.3,0.1-0.4,0.4-0.4H55.9z M55.4,25.8
			c0.1,0,0.2-0.1,0.2-0.2v-0.1c0-0.1-0.1-0.2-0.2-0.2h-0.1c-0.1,0-0.2,0.1-0.2,0.2v0.1c0,0.1,0.1,0.2,0.2,0.2H55.4z"/>
		<path class="st1" d="M71.4,22.3c0.1,0,0.1,0-0.1-0.1c0.3,0.1,0.5,0.2,0.7,0.3c0.2,0.1,0.2,0.3,0.1,0.5c-0.2,0.5-0.4,1-0.8,1.5
			c0.3,0.4,0.5,0.6,0.8,0.7c0.1,0.1,0.2,0,0.2-0.1c0.1,0.2,0,0.4-0.1,0.6c-0.2,0.2-0.4,0.3-0.6,0.2c-0.1-0.1-0.3-0.2-0.6-0.5
			c0,0.2-0.1,0.3-0.3,0.3h-1.8c-0.3,0-0.4-0.1-0.4-0.4c-0.3,0.3-0.4,0.4-0.6,0.5c-0.2,0.1-0.4,0.1-0.5-0.1l-0.2-0.2
			c0.1,0.2,0.1,0.5,0.1,0.7c0,0.5-0.1,0.9-0.4,1.1c-0.1,0.1-0.2,0.2-0.4,0.2l-0.2,0c-0.1,0-0.1,0.1,0,0.2c-0.2-0.1-0.4-0.3-0.4-0.6
			c-0.1-0.3,0-0.4,0.3-0.4l0.1-0.1c0.1-0.1,0.1-0.2,0.1-0.5c0-0.5-0.1-0.9-0.3-1.2C66,24.6,66,24.5,66,24.3c0-0.1,0.1-0.5,0.3-1.2
			c0.1-0.2,0-0.3-0.1-0.3H66c-0.1,0-0.2,0.1-0.2,0.2v5.9c0,0.1,0.1,0.1,0.2,0.1c-0.1,0.2-0.4,0.3-0.6,0.3c-0.3,0-0.4-0.1-0.4-0.3v-7
			l1.9,0l0.3,0.2c0.2,0.1,0.3,0.3,0.2,0.5c0,0.2-0.1,0.5-0.3,1c0.5-0.5,0.8-1,1-1.6c0-0.1,0-0.2-0.2-0.1c0.2-0.2,0.4-0.2,0.7-0.2
			c0.2,0.1,0.3,0.2,0.3,0.4l0,0.1l0.7,0l0.2,0c0-0.1-0.1-0.1-0.2,0c0.1-0.2,0.3-0.3,0.5-0.4c0.2,0,0.4,0.1,0.4,0.3l0,0.2L71.4,22.3z
			 M69.1,22.8h-0.6c-0.3,0.6-0.6,1-0.8,1.2c-0.2,0.2-0.3,0.2-0.5,0L67,23.8l-0.2,0.6l0.4,0.9l0.9-0.7l-0.2-0.1
			c-0.1-0.1-0.2,0-0.2,0.1c-0.1-0.2,0-0.4,0.1-0.5c0.1-0.1,0.3-0.1,0.4,0l0.2,0.1l0.2-0.4l-0.2-0.1c-0.1-0.1-0.2,0-0.2,0.1
			c-0.1-0.2-0.1-0.4,0-0.5c0.1-0.1,0.3-0.2,0.5,0l0.1,0L69.1,22.8z M67.9,27.2l0.4,0.1c0.3,0.1,0.3,0.3,0.2,0.6
			c-0.1,0.2-0.3,0.5-0.5,0.8c-0.1,0.1,0,0.1,0.1,0.2c-0.2,0.1-0.5,0-0.7-0.1c-0.2-0.2-0.3-0.3-0.2-0.5C67.5,28,67.7,27.7,67.9,27.2z
			 M71.8,26.5c0,0.3-0.1,0.4-0.4,0.4h-1.2l-0.1,2c0,0.1-0.1,0.2-0.3,0.3c-0.2,0.1-0.3,0.1-0.6,0.1c-0.1,0-0.2,0.1,0,0.2
			c-0.3-0.1-0.5-0.3-0.6-0.6c-0.1-0.3,0-0.4,0.4-0.4l0.2,0c0,0,0-0.1,0-0.1v-1.4h-1.2C68,26.9,68,27,68,27.1
			c-0.2-0.1-0.3-0.3-0.3-0.6c0-0.3,0.1-0.4,0.3-0.4h3.7V26.5z M68.8,24.8h1.8c-0.4-0.5-0.6-1.2-0.8-2C69.6,23.6,69.3,24.3,68.8,24.8
			z M71.2,23.2c0.1-0.1,0-0.2-0.1-0.2h-0.5c0.1,0.3,0.2,0.5,0.3,0.8C71.1,23.5,71.1,23.3,71.2,23.2z M70.6,27.5l0.4-0.2
			c0.2-0.1,0.4-0.1,0.6,0.1l0.5,0.7c0.1,0.1,0.1,0.1,0.2-0.1c0,0.2-0.1,0.4-0.4,0.6c-0.3,0.2-0.4,0.1-0.6,0L70.6,27.5z"/>
		<path class="st1" d="M81.9,28.2h1c0.2,0,0.3-0.1,0.3-0.3c0.1-0.2,0.1-0.5,0.1-0.9c0-0.2,0-0.2-0.2-0.2c0.1-0.2,0.4-0.2,0.7-0.1
			c0.3,0.2,0.5,0.4,0.4,0.7c0,0.5-0.1,0.9-0.3,1.3c-0.2,0.3-0.5,0.5-1,0.5h-1.2c-0.5,0-0.8-0.1-1-0.3c-0.2-0.2-0.3-0.6-0.3-1.2v-0.8
			c-0.3,0.2-0.5,0.3-0.6,0.3c-0.2,0.1-0.4,0.1-0.6-0.1c0,0-0.2-0.2-0.4-0.4V29c0,0.1,0.1,0.1,0.2,0.1c-0.1,0.2-0.4,0.3-0.7,0.3
			c-0.3,0-0.5-0.1-0.5-0.3v-4c-0.2,0.2-0.3,0.4-0.4,0.4c-0.1,0.1-0.1,0.2,0.1,0.2c-0.2,0-0.4-0.1-0.6-0.5c-0.2-0.3-0.2-0.6-0.1-0.7
			c0.3-0.2,0.6-0.6,1-1.2c0.4-0.5,0.6-1,0.8-1.4c0-0.1,0-0.1-0.2-0.1c0.2-0.1,0.5-0.1,0.8,0c0.3,0.1,0.5,0.3,0.4,0.5
			c-0.1,0.3-0.4,0.7-0.7,1.3v3c0.6-0.3,1.1-0.6,1.6-0.9v-3.5c0-0.1-0.1-0.1-0.2-0.1c0.1-0.2,0.4-0.3,0.7-0.3c0.4,0,0.5,0.1,0.5,0.3
			v2.6c0.7-0.6,1.2-1.2,1.6-1.7c0.1-0.1,0-0.1-0.1-0.2c0.2-0.1,0.5,0,0.8,0.2c0.3,0.2,0.4,0.4,0.3,0.6c-0.6,0.8-1.4,1.6-2.5,2.5v1.6
			c0,0.2,0,0.4,0.1,0.5C81.7,28.1,81.8,28.2,81.9,28.2z"/>
		<path class="st1" d="M91.7,22.1c0.1-0.2,0.3-0.4,0.6-0.4c0.3-0.1,0.5,0,0.6,0.2l0.2,0.5h2.6c0.1,0,0.1-0.1,0.1-0.2
			c0.2,0.1,0.3,0.4,0.3,0.6c0,0.3-0.1,0.4-0.3,0.4h-6.9v-0.4c0-0.3,0.1-0.4,0.4-0.4H92l-0.1-0.3C91.9,22,91.8,22,91.7,22.1z
			 M95.5,25.6c0.3,0,0.4,0.1,0.4,0.4v2.4c0,0.2,0,0.4-0.1,0.5c-0.1,0.1-0.2,0.2-0.4,0.3c-0.2,0.1-0.4,0.1-0.7,0.1
			c-0.3,0-0.5-0.1-0.6-0.3c0-0.2-0.1-0.3-0.2-0.4h-2.3v0c0,0.1,0.1,0.1,0.2,0.1c-0.1,0.2-0.4,0.3-0.7,0.3c-0.3,0-0.5-0.1-0.5-0.3
			v-1.8h3.2c0.3,0,0.4,0.1,0.4,0.4v1.2c0,0.1,0.1,0.2,0.2,0.2h0.3c0.1,0,0.1,0,0.1-0.1v-1.8c0-0.1-0.1-0.2-0.2-0.2h-4.5
			c-0.1,0-0.2,0.1-0.2,0.2V29c0,0.1,0.1,0.1,0.2,0.1c-0.1,0.2-0.4,0.3-0.7,0.3c-0.3,0-0.5-0.1-0.5-0.3v-3.3H95.5z M94.7,23.5
			c0.3,0,0.4,0.1,0.4,0.4v1c0,0.3-0.1,0.4-0.4,0.4h-4.4c-0.3,0-0.4-0.1-0.4-0.4v-1c0-0.3,0.1-0.4,0.4-0.4H94.7z M93.9,24.6
			c0.1,0,0.2-0.1,0.2-0.2c0-0.2-0.1-0.2-0.2-0.2h-2.8c-0.1,0-0.2,0.1-0.2,0.2c0,0.2,0.1,0.2,0.2,0.2H93.9z M93.1,27.9
			c0.1,0,0.2-0.1,0.2-0.2c0-0.2-0.1-0.3-0.2-0.3h-1.4c-0.1,0-0.2,0.1-0.2,0.2v0.3H93.1z"/>
		<path class="st1" d="M102.8,21.9l0.3,0.2c0.2,0.1,0.3,0.3,0.2,0.6l-0.5,1.6c0,0.1,0,0.3,0.1,0.4c0.3,0.4,0.4,0.9,0.4,1.5
			c0,0.6-0.1,1-0.4,1.1c-0.2,0.2-0.3,0.2-0.5,0.2c-0.3,0-0.5-0.1-0.5-0.4c-0.1-0.3,0-0.5,0.2-0.5c0.1,0,0.1,0,0.2-0.1
			c0.1-0.1,0.1-0.2,0.1-0.5c0-0.5-0.1-0.9-0.3-1.2c-0.1-0.2-0.2-0.4-0.2-0.5c0-0.1,0.1-0.5,0.3-1.2c0.1-0.2,0-0.3-0.1-0.3H102
			c-0.1,0-0.2,0.1-0.2,0.2v5.9c0,0.1,0.1,0.1,0.2,0.1c-0.1,0.2-0.3,0.3-0.6,0.3c-0.3,0-0.4-0.1-0.4-0.3v-7L102.8,21.9z M104.5,24.1
			c0,0.1,0.1,0.2,0.2,0.2l0.5-0.1c0.1,0,0.1-0.1,0-0.2c0.2,0.1,0.3,0.3,0.3,0.6c0,0.3-0.1,0.4-0.5,0.5c-0.8,0.2-1.3,0.3-1.5,0.4
			c-0.1,0-0.1,0-0.1,0l-0.2-0.7c0-0.2,0-0.3,0.2-0.4c0.1-0.1,0.1-0.2,0.1-0.3v-2c0-0.1-0.1-0.1-0.2-0.1c0.1-0.2,0.4-0.3,0.7-0.3
			c0.3,0,0.5,0.1,0.5,0.3v0.6h0.7c0.1,0,0.1-0.1,0.1-0.2c0.2,0.1,0.3,0.4,0.3,0.6c0,0.3-0.1,0.4-0.3,0.4h-0.7V24.1z M106.9,24.5h0.4
			c0.1,0,0.1,0,0.1-0.1l0-0.3c0-0.1-0.1-0.2-0.2-0.1c0.1-0.1,0.3-0.1,0.6,0c0.3,0.1,0.4,0.3,0.3,0.6c0,0.2-0.1,0.4-0.2,0.6
			c-0.1,0.2-0.3,0.3-0.6,0.3l-1.1,0l-0.3,0.5h1.5c0.3,0,0.4,0.1,0.4,0.4v2.8c0,0.1,0.1,0.1,0.2,0.1c-0.1,0.2-0.4,0.3-0.7,0.3
			c-0.3,0-0.5-0.1-0.5-0.2h-2.2c0,0.1,0.1,0.1,0.2,0c-0.1,0.2-0.4,0.2-0.7,0.2c-0.3,0-0.5-0.1-0.5-0.3v-3.2h1.3l0.1-0.4
			c0.1-0.2,0.2-0.3,0.5-0.3l0.2,0c0.1,0,0.2,0.1,0.2,0.2c0.1-0.1,0.1-0.2,0-0.3c-0.1-0.1-0.1-0.3-0.1-0.5l-0.1-2.5
			c0-0.1-0.1-0.1-0.2-0.1c0.1-0.2,0.4-0.3,0.7-0.3c0.3,0,0.5,0.1,0.5,0.3v0.8l0.7-0.5c0.1-0.1,0.1-0.1-0.1-0.2
			c0.3,0,0.5,0.1,0.7,0.3c0.2,0.2,0.2,0.4,0,0.5c-0.3,0.2-0.7,0.5-1.3,0.7v0.7C106.8,24.5,106.8,24.5,106.9,24.5z M106.8,27.1v-0.3
			c0-0.1-0.1-0.2-0.2-0.2h-1.8c-0.1,0-0.2,0.1-0.2,0.2v0.3H106.8z M104.6,28.3h2.2v-0.5h-2.2V28.3z"/>
		<path class="st1" d="M119.8,22.4c0.1,0,0.1-0.1,0.1-0.2c0.2,0.1,0.3,0.4,0.3,0.6c0,0.3-0.1,0.4-0.3,0.4h-2.1l0.4,0.1
			c0.3,0.1,0.4,0.2,0.2,0.5l-0.3,0.4h1.3c0.3,0,0.4,0.1,0.4,0.4v3.8c0,0.2,0,0.4-0.1,0.5c-0.1,0.1-0.2,0.2-0.4,0.3
			c-0.2,0.1-0.5,0.1-0.9,0.1c-0.2,0-0.2,0.1,0,0.2c-0.3-0.1-0.5-0.3-0.6-0.6c-0.1-0.2,0-0.3,0.3-0.3c0.2,0,0.4,0,0.6,0
			c0.1,0,0.2-0.1,0.2-0.2v-2.2l-0.2,0.2c-0.2,0.2-0.4,0.2-0.6,0v1.5c0,0.3-0.1,0.4-0.4,0.4h-2v0c0,0.1,0.1,0.1,0.2,0.1
			c-0.1,0.2-0.4,0.3-0.6,0.3c-0.3,0-0.4-0.1-0.4-0.3v-1.7l0,0c-0.1,0.1-0.1,0.1,0,0.2c-0.2,0-0.4-0.2-0.5-0.4
			c-0.1-0.3-0.1-0.5,0.2-0.6c0.4-0.2,0.8-0.4,1.1-0.7h-1.2c-0.1,0-0.2,0.1-0.2,0.2v3.7c0,0.1,0.1,0.1,0.2,0.1
			c-0.1,0.2-0.4,0.3-0.7,0.3c-0.3,0-0.5-0.1-0.5-0.3v-4.7h1.7l-0.2-0.5c-0.1-0.2,0-0.4,0.2-0.5l0.2,0h-1.9c-0.1,0-0.1,0.1-0.1,0.2
			c-0.2-0.1-0.3-0.4-0.3-0.6c0-0.3,0.1-0.4,0.3-0.4h2.9l-0.1-0.3c0-0.1-0.1-0.1-0.2,0c0.1-0.2,0.3-0.3,0.6-0.4
			c0.3-0.1,0.5,0,0.6,0.2l0.2,0.5H119.8z M115.2,26.3h2.7l-0.6-0.5l-0.1-0.1c-0.2-0.2-0.2-0.4,0-0.6l0.1-0.1h-1.6l0.2,0.1
			c0.3,0.1,0.3,0.3,0.1,0.5L115.2,26.3z M115.3,24.2h1.8l0.4-1h-2l0.2,0.4c0.1,0.2,0.1,0.4-0.2,0.5L115.3,24.2z M117,27.6
			c0.1,0,0.2-0.1,0.2-0.2v-0.2c0-0.1-0.1-0.2-0.2-0.2h-1.2c-0.1,0-0.2,0.1-0.2,0.2v0.4H117z M118.8,26v-0.8c0-0.1-0.1-0.2-0.2-0.2
			h-1.1C118.2,25.5,118.6,25.8,118.8,26z"/>
		<path class="st1" d="M131.3,22.4c0.1,0,0.1,0-0.1-0.1c0.3,0.1,0.6,0.1,0.7,0.2c0.2,0.1,0.2,0.2,0.1,0.5c-0.2,0.5-0.5,0.9-1,1.4
			c0.5,0.2,0.9,0.4,1.2,0.4c0.1,0,0.2,0,0.2-0.2c0.1,0.1,0.1,0.4-0.1,0.6c-0.2,0.3-0.4,0.3-0.6,0.3c-0.4-0.1-0.8-0.3-1.3-0.6
			c-0.3,0.2-0.6,0.3-0.8,0.4h0.4c0.3,0,0.4,0.1,0.4,0.4l0,0.3h1.5c0.3,0,0.4,0.2,0.4,0.5c-0.1,1.3-0.3,2-0.5,2.3
			c-0.1,0.2-0.3,0.3-0.6,0.3c-0.2,0-0.3,0-0.5,0c-0.1,0-0.1,0.1,0,0.2c-0.3-0.1-0.5-0.4-0.5-0.7c-0.1-0.3,0-0.4,0.2-0.4l0.3,0
			c0.2,0,0.3,0,0.3-0.1c0.1-0.1,0.2-0.5,0.3-1c0-0.2,0-0.3-0.2-0.3H130c-0.2,0.5-0.4,1-0.7,1.3c-0.3,0.4-0.7,0.6-1.1,0.8
			c-0.1,0.1-0.1,0.1,0.1,0.2c-0.3,0-0.5-0.2-0.7-0.4c-0.2-0.2-0.1-0.4,0.1-0.5c0.6-0.2,1.1-0.7,1.4-1.4h-0.6c-0.1,0-0.1,0.1-0.1,0.2
			c-0.2-0.1-0.3-0.3-0.3-0.6c0-0.3,0.1-0.4,0.3-0.4h0.9l0.1-0.7l-0.6,0.2c-0.2,0.1-0.4,0-0.5-0.3l-0.3,1c0,0.1,0,0.2,0.2,0.1
			c-0.2,0.1-0.4,0.1-0.6,0c-0.2-0.1-0.3-0.3-0.3-0.5l0.2-0.8h-0.4l-0.1,3.4c0,0.1-0.1,0.2-0.3,0.3c-0.2,0.1-0.4,0.2-0.7,0.1
			c-0.3,0-0.5-0.1-0.6-0.3l0-0.1c-0.1-0.3,0-0.5,0.4-0.5l0.2,0c0,0,0.1,0,0.1,0c0,0,0,0,0-0.1v-1.7c-0.3,0.7-0.6,1.1-0.8,1.3
			c-0.1,0.1,0,0.1,0.1,0.2c-0.2,0-0.3-0.2-0.5-0.5c-0.1-0.3-0.2-0.5,0-0.7c0.3-0.3,0.6-0.8,1-1.5H125c-0.1,0-0.1,0.1-0.1,0.2
			c-0.2-0.1-0.3-0.4-0.3-0.6c0-0.3,0.1-0.4,0.3-0.4h1l-0.7-0.7c-0.1-0.1-0.2-0.1-0.2,0.1c0-0.2,0.1-0.4,0.3-0.5
			c0.2-0.1,0.4-0.1,0.6,0l0.1,0.1l0.5-0.5c0.1-0.1,0.1-0.2-0.1-0.2h-1.5c-0.1,0-0.1,0.1-0.1,0.2c-0.2-0.1-0.3-0.4-0.3-0.6
			c0-0.3,0.1-0.4,0.3-0.4l2.5,0l0.3,0.2c0.2,0.1,0.3,0.3,0.1,0.5c-0.2,0.4-0.6,0.8-1.2,1.4c0.1,0.2,0.1,0.3-0.1,0.4l1,0l0.5,0.2
			c0.1,0,0.1,0.1,0.1,0.1l-0.1,0.2c0.5-0.1,0.9-0.3,1.3-0.5l-0.7-0.7l-0.1,0.1c-0.1,0.1,0,0.1,0.1,0.2c-0.3,0-0.5,0-0.8-0.2
			c-0.3-0.2-0.3-0.3-0.1-0.5c0.2-0.1,0.4-0.3,0.6-0.7c0.3-0.4,0.5-0.6,0.5-0.8c0.1-0.1,0-0.1-0.2-0.1c0.2-0.1,0.5-0.1,0.8-0.1
			c0.3,0.1,0.4,0.2,0.3,0.4l-0.2,0.3L131.3,22.4z M130.8,23.4c0.1-0.1,0.1-0.2-0.1-0.2h-1.1c-0.1,0-0.2,0.1-0.1,0.2
			c0.1,0.2,0.4,0.4,0.6,0.6C130.5,23.8,130.7,23.6,130.8,23.4z"/>
		<path class="st1" d="M143.8,25.6c0.1,0,0.1-0.1,0.1-0.2c0.2,0.1,0.3,0.4,0.3,0.7c0,0.3-0.1,0.5-0.3,0.5h-2.9V29
			c0,0.1,0.1,0.1,0.2,0.1c-0.1,0.2-0.4,0.3-0.7,0.3c-0.3,0-0.5-0.1-0.5-0.3v-2.4h-2.9c-0.1,0-0.1,0.1-0.1,0.2
			c-0.2-0.1-0.3-0.4-0.3-0.7c0-0.3,0.1-0.5,0.3-0.5h2.9v-2.5h-2.4c-0.1,0-0.1,0.1-0.1,0.2c-0.2-0.1-0.3-0.4-0.3-0.7
			c0-0.3,0.1-0.5,0.3-0.5h6.2v0.6c0,0.3-0.1,0.4-0.4,0.4h-2.4v2.5H143.8z M137.7,23.6l0.5-0.2c0.2-0.1,0.4,0,0.6,0.4
			c0.2,0.4,0.3,0.7,0.4,1c0,0.1,0.1,0.1,0.2,0c-0.1,0.2-0.3,0.3-0.6,0.4c-0.3,0.1-0.5,0.1-0.5-0.1C138.1,24.8,138,24.3,137.7,23.6z
			 M142.5,25.3l-0.4-0.1c-0.3-0.1-0.4-0.3-0.2-0.6c0.1-0.2,0.2-0.5,0.4-0.9c0-0.1,0-0.2-0.2-0.1c0.2-0.2,0.5-0.2,0.8-0.1
			c0.4,0.1,0.5,0.3,0.3,0.5C142.9,24.5,142.7,25,142.5,25.3z"/>
		<path class="st1" d="M153.3,23.1c-0.1-0.1-0.2-0.1-0.2,0.1c0-0.2,0.1-0.4,0.4-0.6c0.3-0.2,0.5-0.1,0.7,0.1
			c0.8,0.8,1.4,1.4,1.7,1.9c0,0.1,0.1,0,0.2-0.1c0,0.2-0.2,0.4-0.5,0.6c-0.3,0.2-0.5,0.2-0.6,0c0,0-0.1-0.1-0.3-0.4
			c-3,0.1-4.6,0.2-4.8,0.3l-0.2,0c-0.1,0-0.1,0.1,0,0.2c-0.2-0.1-0.4-0.3-0.5-0.6c-0.1-0.3-0.1-0.5,0-0.5c0.2,0,0.7-0.5,1.3-1.3
			c0.4-0.4,0.6-0.8,0.7-1c0.1-0.1,0-0.1-0.2-0.1c0.2-0.1,0.5-0.1,0.8,0.1c0.3,0.1,0.4,0.3,0.3,0.5c-0.4,0.5-0.9,1.2-1.6,1.8l3.4-0.1
			L153.3,23.1z M150.9,29c-0.1,0.2-0.4,0.3-0.7,0.3c-0.3,0-0.5-0.1-0.5-0.3v-3.3h5.1c0.3,0,0.4,0.1,0.4,0.4v2.9
			c0,0.1,0.1,0.1,0.2,0.1c-0.1,0.2-0.4,0.3-0.7,0.3c-0.4,0-0.5-0.1-0.5-0.3v-0.1l-3.5,0.1C150.7,29.1,150.7,29.1,150.9,29z
			 M154.1,26.8c0-0.1-0.1-0.2-0.2-0.2h-3.1c-0.1,0-0.2,0.1-0.2,0.2v1.1h3.5V26.8z"/>
	</g>
	<g>
		<path class="st2" d="M20.2,9.7c0.2-1.8-1.6-2.4-2.7-1.9c-1.1,0.5-1.7,1.3-1.9,2.6c-0.2,2.3-1.7,3.7-3.9,3.7
			c-2.2,0-3.9-1.4-4.2-3.6C7.2,9,7.8,7.7,9.1,6.7c1.2-0.9,2.6-1.1,4-0.5c2.1,0.9,3.8-0.1,4.1-2.3c0.2-1.8,1.3-3.2,3-3.6
			c1.7-0.4,3.4,0.2,4.4,1.5c1,1.4,1.1,3.3,0.2,4.8c-0.2,0.3-0.6,0.6-0.9,0.9c-1.2,0.8-1.5,1.7-1.2,3.2c0.6,2.5,1.9,4.6,3.7,6.4
			c1,0.9,2,1.1,2.9,0.4c1.2-0.9,1.2-3.1,0-4c-0.9-0.7-1.7-1.4-2-2.5c-0.5-1.9,0.3-3.8,2-4.7c1.6-0.9,3.7-0.6,5,0.7
			c1.3,1.3,1.6,3.6,0.6,5.1c-0.3,0.4-0.7,0.8-1.1,1.1c-1.5,0.9-2,3.3-0.2,4.6c1.4,1,2.2,2.4,1.9,4.3c-0.3,1.7-1.5,2.8-3.4,3.3
			c-1.7,0.4-3.1-0.1-4-1.6c-0.4-0.7-0.7-1.5-0.8-2.4c-0.1-0.8-0.4-1.3-1.1-1.7c-2.9-1.4-5.8-1.5-8.8-0.2c-0.6,0.3-1.2,0.9-1.4,1.5
			c-0.5,1.2,0.7,2.6,2.2,2.7c0.6,0,1.1-0.1,1.7-0.3c1.7-0.6,3.3-0.5,4.7,0.8c1.5,1.4,1.7,3.5,0.6,5.3c-1,1.6-3,2.3-4.9,1.6
			c-1.7-0.6-2.6-1.9-2.8-3.7c-0.2-1.9-2-2.9-3.7-2.1c-0.8,0.4-1.7,0.6-2.6,0.4C8.5,25,7,22.7,7.6,20.4c0.6-2.4,2.9-3.7,5.3-2.9
			c0.9,0.3,1.8,0.7,2.7,0.2c0.4-0.2,0.9-0.5,1.2-0.8C18.7,15.2,20.2,12.1,20.2,9.7z M19.1,4.4c0,1.2,1,2.2,2.2,2.2
			c1.2,0,2.2-1,2.2-2.2c0-1.2-1-2.2-2.2-2.2C20,2.2,19.1,3.1,19.1,4.4z M11.4,19.1c-1.3,0-2.2,0.9-2.2,2.2c0,1.2,1,2.2,2.2,2.3
			c1.2,0,2.2-1,2.2-2.2C13.6,20.1,12.7,19.1,11.4,19.1z M33.5,21.2c0-1.2-1-2.2-2.2-2.2c-1.2,0-2.2,1-2.2,2.2c0,1.2,1,2.2,2.2,2.2
			C32.5,23.4,33.5,22.4,33.5,21.2z"/>
		<path class="st2" d="M4,11.7c2.2,0,4,1.7,4,4c0,2.2-1.8,4-4,4c-2.2,0-4-1.8-4-4C0,13.5,1.8,11.7,4,11.7z"/>
		<path class="st2" d="M42.8,15.7c0,2.2-1.8,4-4,4c-2.2,0-4-1.8-4-4c0-2.2,1.8-4,4-4C41.1,11.7,42.8,13.4,42.8,15.7z M38.8,13.5
			c-1.3,0-2.2,0.9-2.3,2.2c0,1.2,0.9,2.2,2.2,2.3c1.2,0,2.2-1,2.3-2.2C41,14.4,40.1,13.5,38.8,13.5z"/>
		<path class="st3" d="M19.1,4.4c0-1.2,1-2.2,2.2-2.2c1.2,0,2.2,1,2.2,2.2c0,1.2-1,2.2-2.2,2.2C20.1,6.6,19.1,5.6,19.1,4.4z"/>
		<path class="st3" d="M11.4,19.1c1.2,0,2.2,1,2.2,2.2c0,1.2-1,2.2-2.2,2.2c-1.2,0-2.2-1-2.2-2.3C9.2,20,10.2,19.1,11.4,19.1z"/>
		<path class="st3" d="M33.5,21.2c0,1.2-1,2.2-2.2,2.2c-1.2,0-2.2-1-2.2-2.2c0-1.2,1-2.2,2.2-2.2C32.5,18.9,33.5,19.9,33.5,21.2z"/>
		<path class="st3" d="M38.8,13.5c1.2,0,2.2,1,2.2,2.2c0,1.2-1.1,2.2-2.3,2.2c-1.2,0-2.2-1-2.2-2.3C36.6,14.4,37.6,13.4,38.8,13.5z"
			/>
	</g>
</g>
</svg>
