<?xml version="1.0" encoding="utf-8"?>
<!-- Generator: Adobe Illustrator 16.0.0, SVG Export Plug-In . SVG Version: 6.00 Build 0)  -->
<!DOCTYPE svg PUBLIC "-//W3C//DTD SVG 1.1//EN" "http://www.w3.org/Graphics/SVG/1.1/DTD/svg11.dtd">
<svg version="1.1" id="圖層_1" xmlns="http://www.w3.org/2000/svg" xmlns:xlink="http://www.w3.org/1999/xlink" x="0px" y="0px"
	 width="36.839px" height="36.044px" viewBox="0 0 36.839 36.044" enable-background="new 0 0 36.839 36.044" xml:space="preserve">
<g>
	<path fill-rule="evenodd" clip-rule="evenodd" fill="#CF531D" d="M23.533,34.042c-2.73,0-5.462,0.004-8.193,0
		c-1.023-0.004-1.98-0.221-2.758-0.942c-0.747-0.695-1.195-1.538-1.237-2.57c-0.072-1.777-0.005-3.536,0.828-5.166
		c1.483-2.9,3.82-4.659,7.086-4.857c2.773-0.167,5.568-0.197,8.344-0.071c4.686,0.213,8.224,4.066,8.232,8.747
		c0.001,0.892,0.063,1.796-0.336,2.631c-0.733,1.541-1.994,2.229-3.666,2.229C29.067,34.045,26.3,34.042,23.533,34.042z
		 M23.562,31.955c2.731,0,5.463,0.002,8.193,0c1.33-0.002,1.975-0.641,1.979-1.953c0.002-0.263,0.005-0.524,0.002-0.787
		c-0.005-3.688-2.788-6.604-6.467-6.688c-2.467-0.06-4.937-0.055-7.405,0.001c-1.941,0.047-3.579,0.828-4.864,2.326
		c-1.273,1.483-1.653,3.222-1.586,5.122c0.048,1.359,0.637,1.979,2.007,1.979C18.136,31.957,20.849,31.955,23.562,31.955z"/>
	<path fill-rule="evenodd" clip-rule="evenodd" fill="#CF531D" d="M23.589,18.819c-3.944,0.018-7.173-3.202-7.191-7.169
		c-0.017-3.89,3.234-7.141,7.157-7.155c3.935-0.015,7.141,3.167,7.177,7.124C30.77,15.569,27.563,18.799,23.589,18.819z
		 M23.594,16.717c2.808-0.021,5.071-2.309,5.04-5.093c-0.029-2.792-2.279-5.024-5.06-5.025c-2.795,0-5.091,2.294-5.073,5.071
		C18.519,14.468,20.811,16.738,23.594,16.717z"/>
</g>
<g>
	<path fill-rule="evenodd" clip-rule="evenodd" fill="#CF531D" d="M11.282,18.12c-1.11,0-2.222,0-3.332,0
		c-1.439,0-2.88,0.004-4.318-0.001c-0.669-0.002-1.11-0.479-1.123-1.186c-0.012-0.731,0.441-1.233,1.133-1.234
		c2.382-0.005,4.765-0.002,7.146-0.002c0.166,0,0.332,0,0.659,0c-0.51-0.591-0.921-1.063-1.326-1.539
		c-0.522-0.613-1.054-1.216-1.557-1.851c-0.396-0.499-0.375-1.238,0.007-1.696c0.405-0.488,1.026-0.502,1.471,0.015
		c1.535,1.791,3.06,3.593,4.581,5.4c0.437,0.522,0.454,1.224,0.028,1.731c-1.53,1.824-3.069,3.638-4.617,5.444
		c-0.441,0.516-1.063,0.49-1.471-0.004c-0.377-0.457-0.4-1.205,0.008-1.694c0.911-1.093,1.849-2.156,2.775-3.231
		C11.326,18.221,11.305,18.171,11.282,18.12z"/>
</g>
</svg>
