<?xml version="1.0" encoding="utf-8"?>
<!-- Generator: Adobe Illustrator 16.0.0, SVG Export Plug-In . SVG Version: 6.00 Build 0)  -->
<!DOCTYPE svg PUBLIC "-//W3C//DTD SVG 1.1//EN" "http://www.w3.org/Graphics/SVG/1.1/DTD/svg11.dtd">
<svg version="1.1" id="圖層_1" xmlns="http://www.w3.org/2000/svg" xmlns:xlink="http://www.w3.org/1999/xlink" x="0px" y="0px"
	 width="41.78px" height="42.276px" viewBox="0 0 41.78 42.276" enable-background="new 0 0 41.78 42.276" xml:space="preserve">
<circle fill="#707070" cx="20.805" cy="21.138" r="20.097"/>
<g>
	<path fill-rule="evenodd" clip-rule="evenodd" fill="#FFFFFF" d="M20.858,7.033c1.986-0.011,3.678,1.789,3.481,3.764
		c-0.51,5.106-1.04,10.21-1.576,15.313c-0.147,1.398-0.916,2.133-2.06,2.038c-0.926-0.077-1.547-0.745-1.686-1.913
		c-0.197-1.664-0.351-3.332-0.521-4.999c-0.348-3.413-0.675-6.827-1.052-10.236C17.216,8.931,18.803,7.045,20.858,7.033z"/>
	<path fill-rule="evenodd" clip-rule="evenodd" fill="#FFFFFF" d="M18.158,32.501c-0.002-1.533,1.195-2.742,2.72-2.744
		c1.51-0.002,2.721,1.215,2.732,2.746c0.012,1.547-1.221,2.747-2.814,2.739C19.327,35.235,18.16,34.024,18.158,32.501z"/>
</g>
</svg>
