<?xml version="1.0" encoding="utf-8"?>
<!-- Generator: Adobe Illustrator 25.2.0, SVG Export Plug-In . SVG Version: 6.00 Build 0)  -->
<svg version="1.1" id="圖層_1" xmlns="http://www.w3.org/2000/svg" xmlns:xlink="http://www.w3.org/1999/xlink" x="0px" y="0px"
	 viewBox="0 0 225.9 90.5" style="enable-background:new 0 0 225.9 90.5;" xml:space="preserve">
<style type="text/css">
	.st0{fill:#212F38;}
	.st1{fill:#C9CACA;}
	.st2{fill:#595757;}
	.st3{fill:#FFFFFF;}
	.st4{fill:#B5B5B6;}
</style>
<path class="st0" d="M180.9,27.6h-136c-11.6,0-21.1,9.5-21.1,21.1c0,11.6,9.5,21.1,21.1,21.1h136c11.6,0,21.1-9.5,21.1-21.1
	C202,37.1,192.6,27.6,180.9,27.6z"/>
<path class="st1" d="M41.2,7.7l1.1,1.1L41.2,10l0,0v0l0,0l1.1,1.1l-1.1,1.1h0v0l0,0l1.1,1.1l-1.1,1.1v0l1.1,1.1l-1.1,1.1v0l1.1,1.1
	l-1.1,1.1v0c-16.6,0-30,13.5-30,30c0,16.6,13.5,30,30,30l1.1,1.1l-1.1,1.1v0l1.1,1.1l-1.1,1.1v0l1.1,1.1l-1.1,1.1v0l1.1,1.1
	l-1.1,1.1v0l1.1,1.1l-1.1,1.1v0C18.5,90.1,0,71.6,0,48.9C0,26.2,18.5,7.7,41.2,7.7L41.2,7.7L41.2,7.7z"/>
<path class="st1" d="M184.7,7.7l-1.1,1.1l1.1,1.1l0,0v0l0,0l-1.1,1.1l1.1,1.1h0v0l0,0l-1.1,1.1l1.1,1.1v0l-1.1,1.1l1.1,1.1v0
	l-1.1,1.1l1.1,1.1v0c16.6,0,30,13.5,30,30c0,16.6-13.5,30-30,30l-1.1,1.1l1.1,1.1v0l-1.1,1.1l1.1,1.1v0l-1.1,1.1l1.1,1.1v0l-1.1,1.1
	l1.1,1.1v0l-1.1,1.1l1.1,1.1v0c22.7,0,41.2-18.5,41.2-41.2C225.9,26.2,207.4,7.7,184.7,7.7L184.7,7.7L184.7,7.7z"/>
<path class="st2" d="M105.7,18.1c0-8.1-6.1-13-6.1-13c1.2-0.9,2.8-0.7,3.7,0.4c0,0,0,0,0,0c1.1-0.8,2.7-0.6,3.6,0.5
	c0.9,1.2,0.7,2.8-0.4,3.7c-0.4,0.3-0.8,0.4-1.2,0.5c0.8,2.1,2.6,4.8,4.9,4.1c2.3-0.6,2.1-4.4,1.3-6.6c-0.2,0.1-0.5,0.1-0.7,0.1
	c-1.5,0-2.7-1.2-2.7-2.7c0-1.4,1.1-2.6,2.5-2.6c0,0,0,0,0,0c0-1.5,1.2-2.7,2.7-2.7c1.5,0,2.7,1.2,2.7,2.7c0,0,0,0,0,0
	c1.4,0.1,2.5,1.2,2.5,2.6c0,1.5-1.2,2.7-2.6,2.7c-0.2,0-0.5,0-0.7-0.1c-0.8,2.2-1,5.9,1.3,6.6c2.3,0.6,4.2-2.1,4.9-4.1
	c-0.4-0.1-0.8-0.2-1.2-0.5c-1.2-0.9-1.3-2.6-0.4-3.7c0.9-1.1,2.5-1.3,3.6-0.5c0,0,0,0,0,0c0.9-1.1,2.6-1.3,3.7-0.4
	c0,0-6.1,4.9-6.1,13c0,0-2.8,1.2-7.7,1.2C108.6,19.3,105.7,18.1,105.7,18.1z"/>
<g>
	<g>
		<path class="st2" d="M63,90.3v-7.6c0-0.6,0-1.3,0.1-2.2h0c-0.1,0.5-0.2,0.9-0.3,1.1l-3.9,8.7h-0.6l-3.9-8.7
			c-0.1-0.2-0.2-0.6-0.3-1.1h0c0,0.4,0.1,1.1,0.1,2.2v7.6h-1.2V79h1.6l3.5,8c0.3,0.6,0.5,1.1,0.5,1.3h0.1c0.1-0.4,0.3-0.9,0.5-1.4
			l3.6-7.9h1.5v11.3H63z"/>
		<path class="st2" d="M74.2,86.6h-5.7c0,0.9,0.3,1.6,0.7,2.1c0.5,0.5,1.1,0.7,1.9,0.7c0.9,0,1.7-0.3,2.5-0.9v1.2
			c-0.7,0.5-1.6,0.8-2.8,0.8c-1.1,0-2-0.4-2.7-1.1c-0.6-0.7-1-1.8-1-3.1c0-1.2,0.4-2.2,1.1-3c0.7-0.8,1.6-1.2,2.6-1.2
			c1,0,1.8,0.3,2.4,1c0.6,0.7,0.9,1.6,0.9,2.8V86.6z M73,85.5c0-0.8-0.2-1.3-0.5-1.8c-0.4-0.4-0.9-0.6-1.5-0.6
			c-0.6,0-1.1,0.2-1.5,0.6c-0.4,0.4-0.7,1-0.8,1.8H73z"/>
		<path class="st2" d="M88.3,90.3h-1.2v-4.6c0-0.9-0.1-1.6-0.4-2c-0.3-0.4-0.8-0.6-1.4-0.6c-0.5,0-1,0.3-1.4,0.8s-0.6,1.1-0.6,1.8
			v4.6H82v-4.8c0-1.6-0.6-2.4-1.9-2.4c-0.6,0-1,0.2-1.4,0.7s-0.6,1.1-0.6,1.9v4.6H77v-8.1h1.2v1.3h0c0.6-1,1.4-1.5,2.5-1.5
			c0.5,0,1,0.2,1.4,0.5c0.4,0.3,0.7,0.7,0.9,1.2c0.6-1.1,1.5-1.7,2.7-1.7c1.8,0,2.7,1.1,2.7,3.3V90.3z"/>
		<path class="st2" d="M92.7,89.2v1.2h-1.2V78.4h1.2v5.3h0c0.6-1.1,1.6-1.6,2.8-1.6c1,0,1.8,0.4,2.4,1.1c0.6,0.7,0.9,1.7,0.9,2.9
			c0,1.3-0.3,2.4-1,3.2c-0.7,0.8-1.6,1.2-2.7,1.2C94.1,90.5,93.3,90.1,92.7,89.2L92.7,89.2z M92.7,87.1c0,0.7,0.2,1.3,0.7,1.7
			c0.5,0.5,1,0.7,1.7,0.7c0.8,0,1.4-0.3,1.9-0.9s0.7-1.5,0.7-2.5c0-0.9-0.2-1.6-0.6-2.1c-0.4-0.5-1-0.8-1.7-0.8
			c-0.7,0-1.4,0.3-1.8,0.8s-0.7,1.2-0.7,2V87.1z"/>
		<path class="st2" d="M108.1,86.6h-5.7c0,0.9,0.3,1.6,0.7,2.1c0.5,0.5,1.1,0.7,1.9,0.7c0.9,0,1.7-0.3,2.5-0.9v1.2
			c-0.7,0.5-1.6,0.8-2.8,0.8c-1.1,0-2-0.4-2.7-1.1c-0.6-0.7-1-1.8-1-3.1c0-1.2,0.4-2.2,1.1-3c0.7-0.8,1.6-1.2,2.6-1.2
			c1,0,1.8,0.3,2.4,1c0.6,0.7,0.9,1.6,0.9,2.8V86.6z M106.9,85.5c0-0.8-0.2-1.3-0.5-1.8c-0.4-0.4-0.9-0.6-1.5-0.6
			c-0.6,0-1.1,0.2-1.5,0.6c-0.4,0.4-0.7,1-0.8,1.8H106.9z"/>
		<path class="st2" d="M115,83.5c-0.2-0.2-0.5-0.3-1-0.3c-0.6,0-1,0.3-1.4,0.8c-0.4,0.5-0.5,1.3-0.5,2.1v4.1h-1.2v-8.1h1.2v1.7h0
			c0.2-0.6,0.5-1,0.8-1.3s0.8-0.5,1.3-0.5c0.3,0,0.6,0,0.8,0.1V83.5z"/>
		<path class="st2" d="M121.3,88.4c0.3,0.3,0.8,0.5,1.4,0.7c0.6,0.2,1.1,0.3,1.7,0.3c1.6,0,2.5-0.6,2.5-1.8c0-0.3-0.1-0.6-0.3-0.9
			c-0.2-0.3-0.4-0.5-0.7-0.7c-0.3-0.2-0.9-0.5-1.7-0.9c-1.2-0.6-2-1.2-2.3-1.6c-0.3-0.5-0.5-1-0.5-1.6c0-0.9,0.4-1.6,1.1-2.2
			c0.7-0.5,1.7-0.8,2.8-0.8c1.1,0,1.9,0.1,2.4,0.4v1.4c-0.7-0.5-1.5-0.7-2.6-0.7c-0.7,0-1.3,0.2-1.8,0.5c-0.5,0.3-0.7,0.7-0.7,1.3
			c0,0.3,0.1,0.6,0.2,0.9c0.2,0.3,0.4,0.5,0.6,0.7c0.3,0.2,0.8,0.5,1.6,0.9c1.1,0.5,1.9,1.1,2.3,1.6c0.4,0.5,0.7,1.1,0.7,1.8
			c0,1-0.3,1.7-1,2.2s-1.7,0.8-2.9,0.8c-0.4,0-0.9-0.1-1.5-0.2c-0.6-0.1-1-0.3-1.3-0.5V88.4z"/>
		<path class="st2" d="M137.4,86.6h-5.7c0,0.9,0.3,1.6,0.7,2.1c0.5,0.5,1.1,0.7,1.9,0.7c0.9,0,1.7-0.3,2.5-0.9v1.2
			c-0.7,0.5-1.6,0.8-2.8,0.8c-1.1,0-2-0.4-2.7-1.1c-0.6-0.7-1-1.8-1-3.1c0-1.2,0.4-2.2,1.1-3c0.7-0.8,1.6-1.2,2.6-1.2
			c1,0,1.8,0.3,2.4,1c0.6,0.7,0.9,1.6,0.9,2.8V86.6z M136.1,85.5c0-0.8-0.2-1.3-0.5-1.8c-0.4-0.4-0.9-0.6-1.5-0.6
			c-0.6,0-1.1,0.2-1.5,0.6c-0.4,0.4-0.7,1-0.8,1.8H136.1z"/>
		<path class="st2" d="M144.2,83.5c-0.2-0.2-0.5-0.3-1-0.3c-0.6,0-1,0.3-1.4,0.8c-0.4,0.5-0.5,1.3-0.5,2.1v4.1h-1.2v-8.1h1.2v1.7h0
			c0.2-0.6,0.5-1,0.8-1.3s0.8-0.5,1.3-0.5c0.3,0,0.6,0,0.8,0.1V83.5z"/>
		<path class="st2" d="M152.6,82.3l-3.2,8.1h-1.2l-3.1-8.1h1.3l2.1,5.9c0.2,0.5,0.3,0.8,0.3,1.1h0c0.1-0.4,0.1-0.8,0.2-1.1l2.2-5.9
			H152.6z"/>
		<path class="st2" d="M154.6,79.4c0-0.2,0.1-0.4,0.2-0.6c0.2-0.2,0.3-0.2,0.6-0.2c0.2,0,0.4,0.1,0.6,0.2c0.2,0.2,0.2,0.4,0.2,0.6
			c0,0.2-0.1,0.4-0.2,0.6c-0.2,0.2-0.4,0.2-0.6,0.2s-0.4-0.1-0.6-0.2C154.7,79.8,154.6,79.6,154.6,79.4z M154.8,90.3v-8.1h1.2v8.1
			H154.8z"/>
		<path class="st2" d="M164.9,90c-0.6,0.4-1.4,0.6-2.2,0.6c-1.1,0-2.1-0.4-2.8-1.1c-0.7-0.7-1.1-1.7-1.1-2.9c0-1.3,0.4-2.4,1.1-3.2
			c0.8-0.8,1.8-1.2,3-1.2c0.7,0,1.3,0.1,1.9,0.4v1.3c-0.6-0.4-1.2-0.6-1.9-0.6c-0.8,0-1.5,0.3-2,0.9s-0.8,1.4-0.8,2.4
			c0,1,0.2,1.7,0.8,2.3c0.5,0.6,1.2,0.8,2,0.8c0.7,0,1.4-0.2,2-0.7V90z"/>
		<path class="st2" d="M174,86.6h-5.7c0,0.9,0.3,1.6,0.7,2.1c0.5,0.5,1.1,0.7,1.9,0.7c0.9,0,1.7-0.3,2.5-0.9v1.2
			c-0.7,0.5-1.6,0.8-2.8,0.8c-1.1,0-2-0.4-2.7-1.1c-0.6-0.7-1-1.8-1-3.1c0-1.2,0.4-2.2,1.1-3c0.7-0.8,1.6-1.2,2.6-1.2
			c1,0,1.8,0.3,2.4,1c0.6,0.7,0.9,1.6,0.9,2.8V86.6z M172.8,85.5c0-0.8-0.2-1.3-0.5-1.8c-0.4-0.4-0.9-0.6-1.5-0.6
			c-0.6,0-1.1,0.2-1.5,0.6c-0.4,0.4-0.7,1-0.8,1.8H172.8z"/>
	</g>
</g>
<g>
	<path class="st3" d="M64.9,37.4c-0.1,0.1-0.2,0.3-0.4,0.5c2.2,2.1,6.3,3.9,10,4.7c-0.5,0.4-1.1,1.2-1.4,1.7
		c-0.6-0.2-1.2-0.4-1.8-0.6v6.2H55.1v-6c-0.6,0.2-1.2,0.4-1.8,0.6c-0.2-0.4-0.8-1.3-1.2-1.7c4.3-1.1,8.6-3.2,10.7-6L64.9,37.4z
		 M71.2,43.6c-1.3-0.5-2.6-1-3.8-1.7v0.7h-8.3V42c-1.1,0.6-2.3,1.1-3.5,1.6H71.2z M56.5,50.8h13.6v7.9h-2.3V58h-9.2v0.7h-2.2V50.8z
		 M59.8,45.2c0.5,0.8,1.1,1.9,1.2,2.6l-1.6,0.5h2.8v-3.3H57v3.3h2.3c-0.2-0.7-0.6-1.8-1.1-2.7L59.8,45.2z M58.7,52.3v1.3h9.2v-1.3
		H58.7z M67.9,56.5v-1.3h-9.2v1.3H67.9z M66,41.1c-1-0.6-1.9-1.3-2.6-2c-0.8,0.7-1.7,1.4-2.6,2H66z M69.3,45.1H64v3.3h2.7l-1.5-0.5
		c0.4-0.8,0.9-2,1.2-2.8l1.9,0.5c-0.5,1-1.1,2-1.5,2.7h2.5V45.1z"/>
	<path class="st3" d="M101.4,54.7c2.4,0.7,5.3,1.7,7,2.5l-2,1.6c-1.8-0.8-5-2-7.5-2.7l1.7-1.3h-6.9l1.7,1.1c-1.9,1.1-5,2.3-7.4,2.9
		c-0.4-0.5-1.1-1.2-1.7-1.6c2.3-0.5,5.1-1.5,6.6-2.4h-4.1V44.4H106v10.3H101.4z M105.1,43.2H89.9v-5.6h15.1V43.2z M91.1,47.4h12.5
		V46H91.1V47.4z M91.1,50.2h12.5v-1.4H91.1V50.2z M91.1,53.1h12.5v-1.4H91.1V53.1z M102.7,39.4H92.2v2.1h10.5V39.4z"/>
	<path class="st3" d="M142.4,53.9h-5.3v2.5c0,1.1-0.2,1.7-1.1,2c-0.8,0.3-2.1,0.3-3.9,0.3c-0.1-0.6-0.4-1.4-0.7-2c1.4,0,2.7,0,3.1,0
		c0.4,0,0.5-0.1,0.5-0.4v-2.4h-8c1.2,0.8,2.8,1.8,3.6,2.5l-1.4,1.5c-0.9-0.8-2.7-2.1-4-3l1-1h-5.2v-1.8h14.1v-1.3h-11.7v-8.6h5.4V41
		h-7.3v-1.7h5.5c-0.4-0.6-0.9-1.3-1.4-1.8l1.8-0.8c0.7,0.7,1.5,1.7,1.9,2.3l-0.6,0.3h5.8c0.5-0.7,1.1-1.8,1.4-2.5l2.3,0.6
		c-0.5,0.7-1,1.3-1.5,1.9h5.4V41h-7.4v1.2h5.7v8.6h-3.1v1.3h5.3V53.9z M125.2,49.4H138v-3.3h-0.3h-2.8c-1.9,0-2.4-0.4-2.4-1.8v-0.7
		h-2.1c-0.2,1.4-1.1,2.7-3.9,3.4c-0.2-0.4-0.7-1.1-1.1-1.4c2.3-0.4,2.9-1.1,3.1-2h-3.4V49.4z M127.2,47.1h9.2v1.3h-9.2V47.1z
		 M130.5,42.2h2.1V41h-2.1V42.2z M134.4,43.6v0.7c0,0.5,0.1,0.5,0.7,0.5h2.3c0.4,0,0.5,0,0.6-0.1v-1.1H134.4z"/>
	<path class="st3" d="M176.4,54.3h-9.5v2.3c0,1.1-0.3,1.6-1.3,1.9c-1,0.3-2.4,0.3-4.5,0.3c-0.1-0.6-0.5-1.3-0.8-1.8
		c1.5,0.1,3.2,0,3.6,0c0.5,0,0.6-0.1,0.6-0.5v-2.2h-9.4v-1.9h9.4v-1.2h0l0,0c1.3-0.3,2.8-0.7,4.1-1.2h-11.2v-1.7h14.1v0h0.6l0.5-0.1
		l1.4,1.3c-2,1.1-4.6,2.1-7.2,2.7v0.3h9.5V54.3z M176.1,40.6h-20.6v-1.9h9.2c-0.2-0.6-0.5-1.2-0.7-1.7l2.3-0.4
		c0.3,0.6,0.7,1.4,0.9,2.1h8.9V40.6z M158.3,46.9v-5h15v5H158.3z M160.5,45.4H171v-1.8h-10.5V45.4z"/>
</g>
<g>
	<g>
		<path class="st4" d="M145.9,12.3c0,2.3-1.9,4.2-4.2,4.2s-4.2-1.9-4.2-4.2s1.9-4.2,4.2-4.2S145.9,10,145.9,12.3z"/>
		<path class="st4" d="M159.8,12.3c0,1.6-1.3,2.9-2.9,2.9c-1.6,0-2.9-1.3-2.9-2.9c0-1.6,1.3-2.9,2.9-2.9
			C158.5,9.4,159.8,10.7,159.8,12.3z"/>
		<path class="st4" d="M174,12.3c0,1.1-0.9,1.9-1.9,1.9c-1.1,0-1.9-0.9-1.9-1.9s0.9-1.9,1.9-1.9C173.2,10.4,174,11.2,174,12.3z"/>
	</g>
</g>
<g>
	<g>
		<path class="st4" d="M81.4,12.3c0-2.3,1.9-4.2,4.2-4.2c2.3,0,4.2,1.9,4.2,4.2s-1.9,4.2-4.2,4.2C83.2,16.5,81.4,14.6,81.4,12.3z"/>
		<path class="st4" d="M67,12.3c0-1.6,1.3-2.9,2.9-2.9s2.9,1.3,2.9,2.9c0,1.6-1.3,2.9-2.9,2.9S67,13.9,67,12.3z"/>
		<path class="st4" d="M52.3,12.3c0-1.1,0.9-1.9,1.9-1.9c1.1,0,1.9,0.9,1.9,1.9s-0.9,1.9-1.9,1.9C53.1,14.2,52.3,13.4,52.3,12.3z"/>
	</g>
</g>
</svg>
