<?xml version="1.0" encoding="utf-8"?>
<!-- Generator: Adobe Illustrator 25.2.0, SVG Export Plug-In . SVG Version: 6.00 Build 0)  -->
<svg version="1.1" id="圖層_1" xmlns="http://www.w3.org/2000/svg" xmlns:xlink="http://www.w3.org/1999/xlink" x="0px" y="0px"
	 viewBox="0 0 176.1 37.1" style="enable-background:new 0 0 176.1 37.1;" xml:space="preserve">
<style type="text/css">
	.st0{fill:#202E37;}
	.st1{fill:#FFFFFF;}
	.st2{fill-rule:evenodd;clip-rule:evenodd;fill:#202E37;}
	.st3{fill-rule:evenodd;clip-rule:evenodd;fill:#FFFFFF;}
</style>
<g>
	<path class="st0" d="M60,18.2V4.4c0-0.3-0.2-0.3-0.5-0.1c0.3-0.4,1-0.7,2-0.7c1,0,1.5,0.3,1.5,0.8v11.3H68c0.3,0,0.3-0.2,0.1-0.5
		c0.4,0.3,0.7,0.9,0.7,1.7c0,0.8-0.3,1.2-0.8,1.2H60z"/>
	<path class="st1" d="M73.8,5.4c-0.5,0-0.9-0.1-1.2-0.4c-0.3-0.3-0.5-0.7-0.5-1.1c0-0.5,0.2-0.9,0.5-1.2c0.3-0.3,0.7-0.4,1.2-0.4
		c0.5,0,0.9,0.1,1.2,0.4c0.3,0.3,0.5,0.7,0.5,1.2c0,0.5-0.2,0.9-0.5,1.1C74.7,5.3,74.3,5.4,73.8,5.4z M75.7,17.5
		c-0.3,0.4-1,0.7-2,0.7c-1,0-1.4-0.3-1.4-0.8V7.2h2c0.6,0,0.9,0.3,0.9,0.9v9.2C75.2,17.6,75.4,17.7,75.7,17.5z"/>
	<path class="st1" d="M82.8,17.5c-0.3,0.4-1,0.7-2,0.7c-1,0-1.4-0.3-1.4-0.8V7.2h1.4c0.6,0,1,0.3,1,0.9L82,8.6
		c1.2-1.2,2.4-1.7,3.6-1.7c2.3,0,3.4,1.5,3.4,4.4v6c0,0.3,0.2,0.3,0.5,0.1c-0.3,0.4-1,0.7-2,0.7c-1,0-1.4-0.3-1.4-0.8v-5.7
		c0-0.8-0.1-1.4-0.4-1.8c-0.2-0.4-0.6-0.5-1.1-0.5c-0.5,0-0.9,0.1-1.2,0.3l-1.2,0.9v6.7C82.3,17.6,82.5,17.7,82.8,17.5z"/>
	<path class="st1" d="M96.6,17.5c-0.3,0.4-1,0.7-1.9,0.7c-0.9,0-1.4-0.3-1.4-0.8V2.5h1.9c0.6,0,0.9,0.3,0.9,0.9v8.5l3.3-4.1
		c0.2-0.2,0-0.2-0.4-0.1c0.6-0.3,1.4-0.5,2.5-0.5c1.1,0,1.4,0.2,1.1,0.6l-3.3,3.9l3.7,5.8c0.2,0.2,0.4,0.3,0.6,0.1
		c-0.1,0.4-0.7,0.5-1.7,0.5c-1,0-1.7-0.2-1.9-0.7l-2.3-3.9l-1.5,1.8v2C96.1,17.6,96.2,17.7,96.6,17.5z"/>
	<path class="st1" d="M107.7,5.4c-0.5,0-0.9-0.1-1.2-0.4c-0.3-0.3-0.5-0.7-0.5-1.1c0-0.5,0.2-0.9,0.5-1.2c0.3-0.3,0.7-0.4,1.2-0.4
		c0.5,0,0.9,0.1,1.2,0.4c0.3,0.3,0.5,0.7,0.5,1.2c0,0.5-0.2,0.9-0.5,1.1C108.6,5.3,108.2,5.4,107.7,5.4z M109.6,17.5
		c-0.3,0.4-1,0.7-2,0.7c-1,0-1.4-0.3-1.4-0.8V7.2h2c0.6,0,0.9,0.3,0.9,0.9v9.2C109.1,17.6,109.3,17.7,109.6,17.5z"/>
	<path class="st1" d="M116.8,17.5c-0.3,0.4-1,0.7-2,0.7c-1,0-1.4-0.3-1.4-0.8V7.2h1.4c0.6,0,1,0.3,1,0.9l0.1,0.5
		c1.2-1.2,2.4-1.7,3.6-1.7c2.3,0,3.4,1.5,3.4,4.4v6c0,0.3,0.2,0.3,0.5,0.1c-0.3,0.4-1,0.7-2,0.7c-1,0-1.4-0.3-1.4-0.8v-5.7
		c0-0.8-0.1-1.4-0.4-1.8c-0.2-0.4-0.6-0.5-1.1-0.5c-0.5,0-0.9,0.1-1.2,0.3l-1.2,0.9v6.7C116.3,17.6,116.4,17.7,116.8,17.5z"/>
	<path class="st1" d="M131,22.9c-1.4,0-2.5-0.2-3.3-0.7c-0.9-0.5-1.3-1.2-1.3-2.1c0-0.9,0.5-1.7,1.6-2.4c-0.7-0.4-1-1-1-1.8
		c0-0.8,0.3-1.4,0.8-1.7c0.3-0.3,0.3-0.5,0.1-0.7l-0.7-0.9c-0.3-0.5-0.4-1.1-0.4-1.7c0-1.2,0.4-2.2,1.3-2.9c0.9-0.7,1.9-1.1,3.1-1.1
		c0.6,0,1.1,0.1,1.6,0.3h3.2c0.3,0,0.3-0.2,0.1-0.5c0.4,0.3,0.7,0.9,0.7,1.6c0,0.7-0.3,1.1-0.8,1.1h-1.1c0.3,0.4,0.5,1,0.5,1.7
		c0,1.2-0.4,2.1-1.2,2.8c-0.8,0.6-1.8,1-3,1c-0.4,0-0.9-0.1-1.4-0.3c-0.3,0.3-0.5,0.6-0.5,0.9c0,0.3,0.1,0.6,0.4,0.7
		c0.3,0.1,0.7,0.2,1.3,0.2h1.9c2.7,0,4.1,0.9,4.1,2.7c0,1.1-0.5,2.1-1.6,2.8C134.3,22.6,132.8,22.9,131,22.9z M129.5,20.7
		c0.5,0.3,1.1,0.4,1.9,0.4c0.8,0,1.5-0.2,2-0.5c0.5-0.3,0.8-0.7,0.8-1.1c0-0.4-0.2-0.7-0.5-0.8c-0.3-0.1-0.7-0.2-1.4-0.2l-2.9-0.2
		c-0.5,0.4-0.7,0.8-0.7,1.3C128.8,20.1,129.1,20.5,129.5,20.7z M131.2,12.9c0.5,0,0.9-0.2,1.2-0.5c0.3-0.4,0.5-0.9,0.5-1.5
		c0-0.6-0.2-1.1-0.5-1.5c-0.3-0.4-0.7-0.5-1.2-0.5c-0.5,0-0.9,0.2-1.3,0.5c-0.3,0.4-0.5,0.9-0.5,1.5c0,0.6,0.2,1.1,0.5,1.5
		C130.3,12.7,130.7,12.9,131.2,12.9z"/>
	<path class="st0" d="M143.7,17.5c-0.3,0.4-1,0.7-2,0.7c-1,0-1.5-0.3-1.5-0.8V3.6h2c0.6,0,0.9,0.3,0.9,0.9V10l4.4-5.7
		c0.2-0.2,0-0.3-0.4-0.1c0.6-0.3,1.4-0.5,2.5-0.5c1.1,0,1.4,0.2,1.1,0.6l-3.9,5.1l4.8,8.1c0.1,0.2,0.3,0.3,0.6,0.1
		c-0.1,0.4-0.7,0.6-1.8,0.6s-1.7-0.2-2-0.7l-3.4-5.8l-1.9,2.5v3.3C143.2,17.6,143.3,17.7,143.7,17.5z"/>
	<path class="st1" d="M161.1,15.4c0.6,0.1,1,0.4,1.4,1c0.3,0.6,0.3,1-0.2,1.3c-0.7,0.5-1.8,0.8-3.3,0.8c-1.5,0-2.7-0.5-3.8-1.5
		c-1-1-1.6-2.4-1.6-4.2c0-1.7,0.5-3.1,1.5-4.2c1-1.1,2.2-1.6,3.6-1.6c1.4,0,2.5,0.5,3.3,1.5c0.8,1,1.2,2.2,1.2,3.8l-0.1,0.4
		c-0.1,0.6-0.4,0.9-1,0.9H157c-0.3,0-0.5,0.2-0.4,0.6c0.1,0.5,0.3,1,0.9,1.5c0.5,0.5,1.2,0.7,2.1,0.7c0.8,0,1.4-0.1,1.7-0.4
		C161.5,15.8,161.4,15.6,161.1,15.4z M156.6,11.1c-0.1,0.3,0,0.5,0.3,0.5h3.5c0.3,0,0.5-0.2,0.5-0.6c0-0.4-0.1-0.8-0.5-1.2
		c-0.3-0.4-0.8-0.6-1.5-0.6c-0.6,0-1.2,0.2-1.6,0.6L156.6,11.1z"/>
	<path class="st1" d="M167.8,22.6l-0.7-0.1c-0.3,0-0.4,0.1-0.3,0.5c-0.4-0.4-0.5-0.9-0.3-1.7c0.2-0.7,0.5-1.1,1-1
		c1,0,1.7-0.6,2.1-1.7l0.2-0.6l-4-10c-0.1-0.3-0.3-0.3-0.6-0.1c0.2-0.4,0.8-0.6,1.7-0.6c1,0,1.5,0.3,1.7,0.8l2.5,7.4l2.1-7.4
		c0.1-0.3-0.1-0.3-0.5-0.1c0.5-0.4,1.1-0.6,2.1-0.6c0.9,0,1.3,0.2,1.1,0.7l-3.6,10.6c-0.5,1.4-1.1,2.4-1.8,3.1
		C169.9,22.3,169,22.6,167.8,22.6z"/>
	<g>
		<path class="st1" d="M59.6,26.8H67c0.3,0,0.4,0.1,0.4,0.4v7.4c0,0.1,0.1,0.1,0.2,0.1c-0.2,0.2-0.4,0.3-0.8,0.3
			c-0.4,0-0.5-0.1-0.5-0.4v0h-5.7v0c0,0.1,0.1,0.1,0.2,0.1c-0.2,0.2-0.4,0.3-0.8,0.3c-0.3,0-0.5-0.1-0.5-0.4V26.8z M63.5,28.7l0-0.4
			c0-0.1-0.1-0.1-0.2-0.1c0.1-0.2,0.4-0.3,0.7-0.3c0.3,0,0.5,0.1,0.5,0.4l0,0.4h0.8c0.2,0,0.2-0.1,0-0.2c-0.3-0.2-0.4-0.3-0.2-0.3
			c0.1-0.3,0.1-0.4-0.2-0.4h-3.8c-0.2,0-0.2,0.1-0.2,0.2v5.6h5.7V28c0-0.2-0.1-0.2-0.2-0.2h-0.9l0.4,0.3c0.3,0.2,0.3,0.4,0,0.7h0.1
			c0.1,0,0.1-0.1,0.1-0.2c0.2,0.2,0.3,0.4,0.3,0.6c0,0.3-0.1,0.4-0.4,0.4h-1.3c0,0.6,0.1,1,0.2,1.4c0.2-0.3,0.3-0.6,0.3-0.8
			c0-0.1,0-0.2-0.2-0.1c0.2-0.2,0.5-0.3,0.7-0.2c0.3,0.1,0.4,0.2,0.3,0.5c-0.1,0.5-0.4,1.1-0.8,1.7c0.1,0.3,0.3,0.5,0.4,0.5
			c0.1,0,0.1,0,0.1-0.2l0.1-0.3c0-0.1,0-0.2-0.2-0.2c0.1-0.1,0.3-0.1,0.6,0.1c0.2,0.2,0.3,0.4,0.2,0.7c0,0.2-0.1,0.5-0.3,0.7
			c-0.2,0.2-0.5,0.2-0.8,0.1c-0.3-0.1-0.5-0.3-0.7-0.6c-0.3,0.3-0.5,0.5-0.7,0.6c-0.1,0.1-0.1,0.1,0.1,0.2c-0.3,0-0.5-0.1-0.7-0.3
			c-0.2-0.2-0.2-0.4,0-0.5c-1.3,0.2-1.9,0.3-2,0.3c0,0,0,0.1,0,0.2c-0.1-0.2-0.1-0.4-0.2-0.6c0-0.3,0-0.4,0.2-0.4
			c0.4,0,1.2-0.1,2.3-0.3l0,0.5l0.5-0.5c-0.2-0.6-0.3-1.4-0.4-2.4h-2.2c-0.1,0-0.1,0.1-0.1,0.2c-0.2-0.2-0.3-0.4-0.3-0.6
			c0-0.3,0.1-0.4,0.4-0.4H63.5z M62.8,29.9c0.3,0,0.4,0.1,0.4,0.4v0.9c0,0.3-0.1,0.4-0.4,0.4h-1.2c-0.3,0-0.4-0.1-0.4-0.4v-0.9
			c0-0.3,0.1-0.4,0.4-0.4H62.8z M62.3,31c0.2,0,0.2-0.1,0.2-0.2v-0.1c0-0.2-0.1-0.2-0.2-0.2h-0.1c-0.2,0-0.2,0.1-0.2,0.2v0.1
			c0,0.2,0.1,0.2,0.2,0.2H62.3z"/>
		<path class="st1" d="M80.2,27.1c0.1,0,0.1,0-0.1-0.1c0.3,0.1,0.6,0.2,0.8,0.3c0.2,0.1,0.2,0.3,0.1,0.6c-0.2,0.5-0.5,1.1-0.9,1.6
			c0.3,0.4,0.6,0.7,0.8,0.8c0.1,0.1,0.2,0,0.2-0.2c0.1,0.2,0,0.5-0.1,0.7c-0.2,0.3-0.4,0.3-0.6,0.2c-0.1-0.1-0.3-0.2-0.6-0.6
			c0,0.2-0.1,0.3-0.3,0.3h-2c-0.3,0-0.4-0.1-0.4-0.4c-0.3,0.3-0.5,0.5-0.6,0.6c-0.2,0.2-0.4,0.1-0.6-0.1l-0.2-0.3
			c0.1,0.3,0.1,0.5,0.1,0.8c0,0.6-0.1,1-0.4,1.2c-0.1,0.1-0.3,0.2-0.4,0.2l-0.2,0c-0.1,0-0.1,0.1,0,0.2c-0.2-0.1-0.4-0.4-0.5-0.7
			c-0.1-0.3,0-0.5,0.3-0.5l0.1-0.1c0.1-0.1,0.1-0.3,0.1-0.6c0-0.6-0.1-1-0.3-1.3c-0.1-0.2-0.2-0.4-0.2-0.6c0.1-0.1,0.2-0.6,0.3-1.3
			c0.1-0.3,0-0.4-0.1-0.4h-0.2c-0.2,0-0.2,0.1-0.2,0.2v6.6c0,0.1,0.1,0.1,0.2,0.1C74,34.9,73.7,35,73.4,35c-0.3,0-0.5-0.1-0.5-0.4
			v-7.8l2.1,0l0.3,0.2c0.2,0.1,0.3,0.3,0.3,0.6c0,0.2-0.2,0.6-0.3,1.2c0.6-0.5,0.9-1.1,1.1-1.8c0-0.1,0-0.2-0.2-0.1
			c0.2-0.2,0.5-0.3,0.7-0.2c0.3,0.1,0.4,0.2,0.3,0.4l0,0.1l0.8,0l0.2,0c0-0.1-0.1-0.1-0.2,0c0.1-0.2,0.3-0.4,0.6-0.4
			c0.3,0,0.4,0.1,0.5,0.3l0.1,0.2L80.2,27.1z M77.5,27.8h-0.7c-0.3,0.7-0.6,1.1-0.9,1.3c-0.2,0.2-0.4,0.2-0.6,0l-0.2-0.2L75,29.6
			l0.5,1l1-0.8l-0.2-0.2c-0.1-0.1-0.2,0-0.2,0.1c-0.1-0.2,0-0.4,0.1-0.6c0.1-0.1,0.3-0.1,0.5,0l0.2,0.1l0.3-0.4l-0.2-0.1
			c-0.1-0.1-0.2,0-0.2,0.1c-0.1-0.2-0.1-0.4,0-0.6c0.1-0.2,0.3-0.2,0.5-0.1l0.1,0.1L77.5,27.8z M76.3,32.7l0.5,0.1
			c0.3,0.1,0.4,0.3,0.2,0.6c-0.1,0.3-0.3,0.5-0.5,0.9c-0.1,0.1,0,0.2,0.2,0.2c-0.3,0.1-0.5,0-0.8-0.1c-0.3-0.2-0.3-0.4-0.2-0.5
			C75.8,33.6,76,33.2,76.3,32.7z M80.6,31.9c0,0.3-0.1,0.4-0.4,0.4h-1.3l-0.1,2.2c0,0.1-0.2,0.2-0.3,0.3C78.2,34.9,78,35,77.8,35
			c-0.2,0-0.2,0.1,0,0.2c-0.3-0.1-0.6-0.4-0.7-0.7c-0.1-0.3,0-0.4,0.4-0.4l0.3,0c0,0,0-0.1,0-0.1v-1.6h-1.4c-0.1,0-0.1,0.1-0.1,0.2
			c-0.2-0.2-0.3-0.4-0.3-0.7c0-0.3,0.1-0.4,0.4-0.4h4.1V31.9z M77.3,30h2c-0.4-0.6-0.7-1.3-0.9-2.2C78.1,28.6,77.8,29.4,77.3,30z
			 M79.9,28.1c0.1-0.2,0-0.2-0.1-0.2h-0.5c0.1,0.3,0.2,0.6,0.3,0.9C79.8,28.5,79.9,28.3,79.9,28.1z M79.3,33l0.4-0.2
			c0.3-0.1,0.5-0.1,0.6,0.1l0.6,0.8c0.1,0.1,0.2,0.1,0.2-0.1c0,0.2-0.2,0.4-0.4,0.6c-0.3,0.2-0.5,0.2-0.6-0.1L79.3,33z"/>
		<path class="st1" d="M91.9,33.7H93c0.2,0,0.3-0.1,0.4-0.3c0.1-0.2,0.1-0.6,0.1-1c0-0.2-0.1-0.2-0.2-0.2c0.2-0.2,0.4-0.3,0.8-0.1
			c0.4,0.2,0.5,0.4,0.5,0.8c0,0.6-0.1,1.1-0.3,1.4c-0.2,0.4-0.6,0.5-1.1,0.5h-1.3c-0.6,0-0.9-0.1-1.1-0.4c-0.2-0.2-0.3-0.7-0.3-1.4
			v-0.9c-0.3,0.2-0.6,0.3-0.7,0.4c-0.3,0.1-0.5,0.1-0.6-0.1c0,0-0.2-0.2-0.5-0.4v2.6c0,0.1,0.1,0.1,0.2,0.1C88.6,34.9,88.4,35,88,35
			c-0.4,0-0.6-0.1-0.6-0.4v-4.4c-0.2,0.3-0.4,0.4-0.4,0.5c-0.1,0.1-0.1,0.2,0.1,0.2c-0.2,0-0.5-0.2-0.7-0.5
			c-0.2-0.4-0.3-0.6-0.1-0.8c0.3-0.3,0.7-0.7,1.1-1.3c0.4-0.6,0.7-1.1,0.9-1.5c0-0.1,0-0.2-0.2-0.1c0.2-0.1,0.5-0.1,0.9,0
			c0.4,0.1,0.5,0.3,0.4,0.5c-0.1,0.4-0.4,0.8-0.7,1.4v3.3c0.6-0.3,1.2-0.6,1.8-1v-3.9c0-0.1-0.1-0.1-0.2-0.1
			c0.2-0.2,0.4-0.3,0.8-0.3c0.4,0,0.6,0.1,0.6,0.4v2.9c0.8-0.7,1.4-1.4,1.7-2c0.1-0.1,0-0.2-0.2-0.2c0.2-0.1,0.5,0,0.9,0.2
			c0.3,0.2,0.4,0.5,0.3,0.7c-0.7,0.9-1.6,1.8-2.8,2.7v1.8c0,0.3,0,0.4,0.1,0.5C91.6,33.7,91.7,33.7,91.9,33.7z"/>
		<path class="st1" d="M102.8,27c0.1-0.2,0.3-0.4,0.7-0.5c0.4-0.1,0.6,0,0.7,0.2l0.2,0.6h2.9c0.1,0,0.1-0.1,0.1-0.2
			c0.2,0.2,0.3,0.4,0.3,0.7c0,0.3-0.1,0.5-0.4,0.5h-7.7v-0.5c0-0.3,0.1-0.4,0.4-0.4h3.1l-0.1-0.3C103,26.9,102.9,26.9,102.8,27z
			 M107.1,30.9c0.3,0,0.4,0.1,0.4,0.4V34c0,0.2,0,0.4-0.1,0.5c-0.1,0.1-0.2,0.2-0.4,0.3c-0.2,0.1-0.5,0.1-0.8,0.1
			c-0.4,0-0.6-0.1-0.7-0.3c0-0.2-0.1-0.3-0.2-0.4h-2.6v0c0,0.1,0.1,0.1,0.2,0.1c-0.2,0.2-0.4,0.3-0.7,0.3s-0.5-0.1-0.5-0.4v-2h3.5
			c0.3,0,0.4,0.1,0.4,0.4v1.4c0,0.2,0.1,0.2,0.2,0.2h0.4c0.1,0,0.2-0.1,0.2-0.2v-2c0-0.2-0.1-0.2-0.2-0.2h-5c-0.2,0-0.2,0.1-0.2,0.2
			v2.6c0,0.1,0.1,0.1,0.2,0.1c-0.2,0.2-0.4,0.3-0.8,0.3c-0.3,0-0.5-0.1-0.5-0.4v-3.7H107.1z M106.2,28.5c0.3,0,0.4,0.1,0.4,0.4v1.1
			c0,0.3-0.1,0.4-0.4,0.4h-4.9c-0.3,0-0.4-0.1-0.4-0.4V29c0-0.3,0.1-0.4,0.4-0.4H106.2z M105.3,29.8c0.2,0,0.2-0.1,0.2-0.2
			c0-0.2-0.1-0.3-0.2-0.3h-3.1c-0.2,0-0.2,0.1-0.2,0.2c0,0.2,0.1,0.3,0.2,0.3H105.3z M104.4,33.4c0.2,0,0.2-0.1,0.2-0.2
			c0-0.2-0.1-0.3-0.2-0.3h-1.5c-0.2,0-0.2,0.1-0.2,0.2v0.3H104.4z"/>
		<path class="st1" d="M115.3,26.7l0.3,0.2c0.2,0.1,0.3,0.4,0.2,0.6l-0.6,1.7c-0.1,0.2,0,0.3,0.1,0.5c0.3,0.4,0.5,1,0.5,1.6
			c0,0.6-0.1,1.1-0.4,1.3c-0.2,0.2-0.4,0.2-0.5,0.2c-0.3,0-0.5-0.1-0.6-0.4c-0.1-0.4,0-0.5,0.3-0.5c0.1,0,0.2,0,0.2-0.1
			c0.1-0.1,0.1-0.2,0.1-0.5c0-0.6-0.1-1-0.4-1.3c-0.2-0.2-0.2-0.4-0.2-0.6c0-0.1,0.2-0.6,0.3-1.3c0.1-0.3,0-0.4-0.1-0.4h-0.2
			c-0.2,0-0.2,0.1-0.2,0.2v6.6c0,0.1,0.1,0.1,0.2,0.1c-0.2,0.2-0.4,0.3-0.7,0.3c-0.3,0-0.4-0.1-0.4-0.4v-7.8L115.3,26.7z
			 M117.2,29.2c0,0.2,0.1,0.2,0.2,0.2l0.6-0.1c0.1,0,0.1-0.1,0-0.3c0.2,0.1,0.3,0.3,0.4,0.6c0,0.3-0.1,0.5-0.5,0.6
			c-0.9,0.2-1.4,0.4-1.6,0.5c-0.1,0-0.1,0-0.1,0l-0.2-0.7c-0.1-0.2,0-0.3,0.2-0.5c0.1-0.1,0.1-0.2,0.1-0.3v-2.3
			c0-0.1-0.1-0.1-0.2-0.1c0.2-0.2,0.4-0.3,0.8-0.3c0.4,0,0.5,0.1,0.5,0.4v0.6h0.8c0.1,0,0.1-0.1,0.1-0.2c0.2,0.2,0.3,0.4,0.3,0.7
			c0,0.3-0.1,0.4-0.4,0.4h-0.8V29.2z M119.8,29.6h0.4c0.1,0,0.1-0.1,0.2-0.2l0-0.3c0-0.1-0.1-0.2-0.2-0.2c0.2-0.1,0.4-0.2,0.7,0
			c0.3,0.1,0.4,0.4,0.4,0.7c0,0.2-0.1,0.4-0.2,0.6c-0.1,0.2-0.4,0.3-0.7,0.3l-1.3-0.1l-0.3,0.6h1.6c0.3,0,0.4,0.1,0.4,0.4v3.1
			c0,0.1,0.1,0.1,0.2,0.1c-0.2,0.2-0.4,0.3-0.8,0.3c-0.4,0-0.5-0.1-0.5-0.3h-2.5c0,0.1,0.1,0.1,0.2,0c-0.2,0.2-0.4,0.3-0.8,0.3
			c-0.3,0-0.5-0.1-0.5-0.4v-3.5h1.4l0.1-0.4c0.1-0.3,0.3-0.4,0.5-0.3l0.2,0.1c0.1,0,0.2,0.1,0.2,0.2c0.1-0.1,0.1-0.2,0-0.3
			c-0.1-0.1-0.1-0.3-0.2-0.6l-0.1-2.8c0-0.1-0.1-0.1-0.2-0.1c0.2-0.2,0.4-0.3,0.8-0.3c0.4,0,0.5,0.1,0.5,0.4v0.9l0.8-0.6
			c0.1-0.1,0.1-0.1-0.1-0.2c0.3,0,0.5,0.1,0.8,0.3c0.2,0.2,0.2,0.4,0,0.6c-0.3,0.2-0.8,0.5-1.5,0.8v0.8
			C119.6,29.6,119.7,29.6,119.8,29.6z M119.7,32.5v-0.3c0-0.2-0.1-0.2-0.2-0.2h-2c-0.2,0-0.2,0.1-0.2,0.2v0.3H119.7z M117.3,33.9
			h2.5v-0.6h-2.5V33.9z"/>
		<path class="st1" d="M134.2,27.3c0.1,0,0.1-0.1,0.1-0.2c0.2,0.2,0.3,0.4,0.3,0.7c0,0.3-0.1,0.5-0.4,0.5h-2.3l0.4,0.1
			c0.4,0.1,0.4,0.3,0.2,0.6l-0.3,0.4h1.5c0.3,0,0.4,0.1,0.4,0.4V34c0,0.2,0,0.4-0.1,0.5c-0.1,0.1-0.2,0.2-0.4,0.3
			c-0.2,0.1-0.5,0.1-1,0.1c-0.2,0-0.2,0.1,0,0.2c-0.4-0.1-0.6-0.3-0.7-0.6c-0.1-0.3,0-0.4,0.3-0.4c0.2,0,0.4,0,0.6,0
			c0.1,0,0.2-0.1,0.2-0.2v-2.4l-0.2,0.3c-0.2,0.2-0.4,0.2-0.7,0v1.6c0,0.3-0.1,0.4-0.4,0.4h-2.2v0c0,0.1,0.1,0.1,0.2,0.1
			c-0.2,0.2-0.4,0.3-0.7,0.3c-0.3,0-0.4-0.1-0.4-0.4v-2l0,0c-0.1,0.1-0.1,0.2,0,0.2c-0.2,0-0.4-0.2-0.6-0.5
			c-0.1-0.3-0.1-0.5,0.2-0.7c0.4-0.2,0.8-0.5,1.2-0.8h-1.4c-0.2,0-0.2,0.1-0.2,0.2v4.1c0,0.1,0.1,0.1,0.2,0.1
			c-0.2,0.2-0.4,0.3-0.8,0.3c-0.3,0-0.5-0.1-0.5-0.4v-5.3h1.9l-0.2-0.5c-0.1-0.3,0-0.5,0.2-0.6l0.2-0.1h-2.1c-0.1,0-0.1,0.1-0.1,0.2
			c-0.2-0.2-0.3-0.4-0.3-0.7c0-0.3,0.1-0.5,0.4-0.5h3.3l-0.1-0.3c0-0.1-0.1-0.1-0.2,0c0.1-0.2,0.3-0.4,0.7-0.5
			c0.4-0.1,0.6,0,0.7,0.2l0.3,0.6H134.2z M129.1,31.6h3l-0.7-0.5l-0.1-0.1c-0.2-0.2-0.3-0.4,0-0.6l0.2-0.2h-1.8l0.2,0.1
			c0.3,0.2,0.3,0.4,0.1,0.6L129.1,31.6z M129.2,29.3h2l0.5-1.1h-2.2l0.2,0.5c0.1,0.3,0.1,0.5-0.2,0.6L129.2,29.3z M131.1,33.1
			c0.2,0,0.2-0.1,0.2-0.2v-0.3c0-0.2-0.1-0.2-0.2-0.2h-1.3c-0.2,0-0.2,0.1-0.2,0.2v0.5H131.1z M133.1,31.3v-0.9
			c0-0.2-0.1-0.2-0.2-0.2h-1.2C132.4,30.8,132.9,31.1,133.1,31.3z"/>
		<path class="st1" d="M147,27.3c0.1,0,0.1,0-0.1-0.1c0.3,0.1,0.6,0.2,0.8,0.3c0.2,0.1,0.3,0.3,0.1,0.5c-0.2,0.5-0.6,1.1-1.1,1.6
			c0.5,0.3,1,0.4,1.3,0.5c0.1,0,0.2,0,0.2-0.2c0.1,0.2,0.1,0.4-0.1,0.7c-0.2,0.3-0.4,0.4-0.7,0.3c-0.4-0.1-0.9-0.3-1.5-0.7
			c-0.3,0.2-0.6,0.4-0.9,0.5h0.5c0.3,0,0.4,0.2,0.4,0.5l0,0.4h1.7c0.3,0,0.4,0.2,0.4,0.6c-0.1,1.4-0.3,2.3-0.6,2.5
			c-0.2,0.2-0.4,0.3-0.7,0.3c-0.2,0-0.4,0-0.5,0c-0.2,0-0.2,0.1,0,0.2c-0.3-0.2-0.5-0.4-0.6-0.7c-0.1-0.3,0-0.5,0.3-0.5l0.3,0
			c0.2,0,0.3,0,0.4-0.1c0.1-0.1,0.3-0.5,0.3-1.1c0-0.3,0-0.4-0.2-0.4h-0.9c-0.2,0.6-0.4,1.1-0.8,1.5c-0.4,0.4-0.8,0.7-1.2,0.9
			c-0.1,0.1-0.1,0.1,0.1,0.2c-0.3,0-0.6-0.2-0.8-0.4c-0.2-0.3-0.2-0.5,0.1-0.6c0.7-0.3,1.2-0.8,1.5-1.5h-0.7c-0.1,0-0.2,0.1-0.1,0.2
			c-0.2-0.2-0.3-0.4-0.3-0.7c0-0.3,0.1-0.5,0.4-0.5h1l0.1-0.8l-0.7,0.2c-0.3,0.1-0.5,0-0.6-0.3l-0.3,1.1c0,0.1,0,0.2,0.2,0.2
			c-0.2,0.1-0.4,0.1-0.7,0c-0.2-0.1-0.3-0.3-0.3-0.5l0.2-0.9h-0.5l-0.1,3.8c-0.1,0.1-0.2,0.3-0.3,0.3c-0.2,0.1-0.5,0.2-0.8,0.2
			c-0.3,0-0.6-0.1-0.6-0.4l0-0.1c-0.1-0.3,0-0.5,0.4-0.5l0.3,0c0.1,0,0.1,0,0.1,0c0,0,0-0.1,0-0.1v-1.9c-0.4,0.8-0.7,1.3-0.9,1.5
			c-0.1,0.1-0.1,0.2,0.1,0.3c-0.2,0-0.4-0.2-0.5-0.6c-0.2-0.3-0.2-0.6,0-0.8c0.3-0.3,0.7-0.8,1.1-1.7h-0.8c-0.1,0-0.1,0.1-0.1,0.2
			c-0.2-0.2-0.3-0.4-0.3-0.7c0-0.3,0.1-0.5,0.4-0.5h1.1l-0.8-0.8c-0.1-0.1-0.2-0.1-0.2,0.1c0-0.2,0.1-0.4,0.4-0.6
			c0.3-0.2,0.5-0.2,0.7,0l0.2,0.1l0.5-0.6c0.1-0.1,0.1-0.2-0.1-0.2h-1.7c-0.1,0-0.1,0.1-0.1,0.2c-0.2-0.2-0.3-0.4-0.3-0.7
			c0-0.3,0.1-0.5,0.4-0.5l2.8,0l0.3,0.2c0.2,0.2,0.3,0.3,0.1,0.6c-0.2,0.4-0.7,0.9-1.3,1.5c0.2,0.2,0.1,0.4-0.1,0.5l1.1,0l0.6,0.2
			c0.1,0,0.1,0.1,0.1,0.2l-0.1,0.3c0.5-0.1,1-0.3,1.4-0.5l-0.8-0.8l-0.1,0.1c-0.1,0.1,0,0.2,0.1,0.2c-0.3,0-0.6,0-0.8-0.2
			c-0.3-0.2-0.3-0.4-0.1-0.5c0.2-0.1,0.4-0.4,0.7-0.7c0.3-0.4,0.5-0.7,0.6-0.9c0.1-0.1,0-0.1-0.2-0.1c0.2-0.1,0.5-0.2,0.9-0.1
			c0.3,0.1,0.4,0.2,0.3,0.5l-0.2,0.3L147,27.3z M146.5,28.5c0.1-0.1,0.1-0.2-0.1-0.2h-1.2c-0.2,0-0.2,0.1-0.1,0.2
			c0.2,0.2,0.4,0.4,0.7,0.7C146.2,28.9,146.4,28.7,146.5,28.5z"/>
		<path class="st1" d="M161.1,30.9c0.1,0,0.1-0.1,0.1-0.2c0.2,0.2,0.3,0.4,0.3,0.8c0,0.4-0.1,0.6-0.4,0.6h-3.2v2.7
			c0,0.1,0.1,0.1,0.2,0.1c-0.2,0.2-0.4,0.3-0.8,0.3c-0.4,0-0.6-0.1-0.6-0.4V32h-3.2c-0.1,0-0.1,0.1-0.1,0.2
			c-0.2-0.2-0.3-0.4-0.3-0.8c0-0.4,0.1-0.6,0.4-0.6h3.2v-2.8H154c-0.1,0-0.1,0.1-0.1,0.2c-0.2-0.2-0.3-0.4-0.3-0.8
			c0-0.4,0.1-0.5,0.4-0.5h6.9v0.6c0,0.3-0.1,0.4-0.4,0.4h-2.6v2.8H161.1z M154.2,28.7l0.6-0.2c0.3-0.1,0.5,0.1,0.7,0.4
			c0.2,0.4,0.4,0.8,0.4,1.1c0,0.1,0.1,0.1,0.2,0c-0.1,0.2-0.3,0.3-0.7,0.5c-0.4,0.1-0.6,0.1-0.6-0.1
			C154.7,29.9,154.5,29.4,154.2,28.7z M159.5,30.6l-0.4-0.1c-0.3-0.1-0.4-0.3-0.2-0.7c0.1-0.2,0.3-0.6,0.4-1c0-0.1,0-0.2-0.2-0.1
			c0.2-0.2,0.5-0.2,0.9-0.1c0.4,0.1,0.5,0.3,0.4,0.6C160,29.7,159.8,30.2,159.5,30.6z"/>
		<path class="st1" d="M171.7,28.1c-0.1-0.1-0.2-0.1-0.2,0.1c0-0.2,0.1-0.4,0.4-0.6c0.3-0.2,0.6-0.2,0.8,0.1
			c0.9,0.9,1.6,1.6,1.9,2.1c0,0.1,0.1,0,0.2-0.1c0,0.2-0.2,0.4-0.5,0.7c-0.3,0.2-0.5,0.2-0.6,0.1c0,0-0.1-0.1-0.3-0.4
			c-3.3,0.2-5.1,0.3-5.4,0.3l-0.3,0.1c-0.1,0-0.1,0.1,0,0.2c-0.3-0.1-0.4-0.3-0.6-0.7c-0.1-0.3-0.1-0.5,0-0.6c0.2,0,0.7-0.5,1.5-1.5
			c0.4-0.5,0.7-0.9,0.8-1.2c0.1-0.1,0-0.2-0.2-0.1c0.3-0.1,0.6-0.1,0.9,0.1c0.4,0.2,0.5,0.3,0.3,0.5c-0.4,0.6-1,1.3-1.8,2l3.8-0.1
			L171.7,28.1z M168.9,34.7c-0.2,0.2-0.4,0.3-0.8,0.3c-0.4,0-0.6-0.1-0.6-0.4V31h5.7c0.3,0,0.4,0.1,0.4,0.4v3.2
			c0,0.1,0.1,0.1,0.2,0.1c-0.2,0.2-0.4,0.3-0.8,0.3c-0.4,0-0.6-0.1-0.6-0.4v-0.1l-3.9,0.1C168.7,34.7,168.8,34.8,168.9,34.7z
			 M172.6,32.2c0-0.2-0.1-0.2-0.2-0.2h-3.4c-0.2,0-0.2,0.1-0.2,0.2v1.2h3.9V32.2z"/>
	</g>
	<path class="st2" d="M24.1,11.5c0.2-2.2-1.9-2.9-3.3-2.3c-1.3,0.6-2.1,1.6-2.2,3.1c-0.3,2.8-2,4.4-4.6,4.5
		c-2.6,0.1-4.7-1.7-5.1-4.3c-0.3-1.9,0.5-3.4,2-4.6c1.5-1.1,3.1-1.3,4.8-0.6c2.5,1,4.6-0.1,4.9-2.8c0.3-2.2,1.6-3.8,3.5-4.3
		c2-0.5,4.1,0.2,5.3,1.8c1.2,1.7,1.3,3.9,0.2,5.7c-0.3,0.4-0.7,0.8-1.1,1c-1.5,1-1.8,2.1-1.5,3.8c0.7,3,2.2,5.5,4.4,7.7
		c1.1,1.1,2.4,1.3,3.5,0.5c1.5-1,1.4-3.7,0-4.8c-1.1-0.8-2-1.7-2.4-3C32,10.7,32.9,8.4,35,7.3c1.9-1.1,4.4-0.7,5.9,0.8
		c1.5,1.6,1.9,4.3,0.7,6.1c-0.3,0.5-0.8,1-1.3,1.3c-1.7,1.1-2.4,4-0.2,5.5c1.7,1.2,2.6,2.9,2.3,5.1c-0.3,2-1.8,3.4-4.1,3.9
		c-2,0.4-3.7-0.2-4.8-1.9c-0.5-0.8-0.9-1.8-1-2.8c-0.1-0.9-0.5-1.6-1.3-2c-3.4-1.7-7-1.8-10.5-0.3c-0.7,0.3-1.4,1.1-1.7,1.8
		c-0.6,1.4,0.8,3.1,2.6,3.2c0.7,0,1.4-0.2,2-0.4c2.1-0.7,3.9-0.6,5.6,1c1.8,1.7,2,4.2,0.7,6.3c-1.2,1.9-3.6,2.7-5.9,1.9
		c-2-0.8-3.1-2.2-3.4-4.4c-0.3-2.3-2.3-3.4-4.5-2.5c-1,0.4-2,0.7-3.1,0.4c-2.8-0.6-4.6-3.3-3.9-6.1c0.7-2.8,3.4-4.4,6.3-3.5
		c1.1,0.3,2.1,0.8,3.2,0.2c0.5-0.3,1-0.6,1.5-1C22.3,18,24.1,14.3,24.1,11.5z M22.8,5.1c0,1.5,1.2,2.7,2.6,2.7
		c1.5,0,2.7-1.2,2.7-2.7c0-1.5-1.2-2.7-2.7-2.7C24,2.4,22.8,3.6,22.8,5.1z M13.7,22.7c-1.5,0-2.7,1.1-2.7,2.6c0,1.5,1.1,2.7,2.6,2.7
		c1.5,0,2.7-1.2,2.7-2.6C16.3,23.9,15.1,22.7,13.7,22.7z M40,25.1c0-1.5-1.1-2.7-2.6-2.7c-1.5,0-2.7,1.2-2.7,2.6
		c0,1.5,1.2,2.7,2.6,2.7C38.8,27.8,40,26.6,40,25.1z"/>
	<path class="st2" d="M4.8,13.9c2.7,0,4.8,2.1,4.8,4.8c0,2.7-2.1,4.8-4.8,4.8c-2.6,0-4.8-2.1-4.8-4.8C0,16,2.1,13.9,4.8,13.9z"/>
	<path class="st2" d="M51.2,18.6c0,2.7-2.2,4.8-4.8,4.8c-2.7,0-4.8-2.2-4.8-4.8c0-2.7,2.1-4.8,4.8-4.8
		C49.1,13.8,51.2,15.9,51.2,18.6z M46.4,15.9c-1.5,0-2.7,1.1-2.7,2.6c0,1.5,1.1,2.7,2.6,2.7c1.4,0,2.7-1.2,2.7-2.6
		C49.1,17.1,47.9,15.9,46.4,15.9z"/>
	<path class="st3" d="M22.8,5.1c0-1.5,1.2-2.7,2.6-2.7c1.5,0,2.7,1.2,2.7,2.7c0,1.5-1.2,2.7-2.7,2.7C24,7.7,22.8,6.6,22.8,5.1z"/>
	<path class="st3" d="M13.7,22.7c1.5,0,2.6,1.2,2.6,2.7c0,1.5-1.2,2.6-2.7,2.6c-1.5,0-2.6-1.2-2.6-2.7C11,23.8,12.2,22.7,13.7,22.7z
		"/>
	<path class="st3" d="M40,25.1c0,1.5-1.2,2.6-2.7,2.6c-1.5,0-2.6-1.2-2.6-2.7c0-1.5,1.2-2.6,2.7-2.6C38.9,22.5,40.1,23.7,40,25.1z"
		/>
	<path class="st3" d="M46.4,15.9c1.5,0,2.6,1.2,2.6,2.7c0,1.5-1.3,2.7-2.7,2.6c-1.5,0-2.6-1.2-2.6-2.7C43.8,17,44.9,15.9,46.4,15.9z
		"/>
</g>
</svg>
