<?xml version="1.0" encoding="utf-8"?>
<!-- Generator: Adobe Illustrator 25.2.0, SVG Export Plug-In . SVG Version: 6.00 Build 0)  -->
<svg version="1.1" id="圖層_1" xmlns="http://www.w3.org/2000/svg" xmlns:xlink="http://www.w3.org/1999/xlink" x="0px" y="0px"
	 viewBox="0 0 30 30" style="enable-background:new 0 0 30 30;" xml:space="preserve">
<style type="text/css">
	.st0{fill:#232323;}
</style>
<g id="login01">
	<g>
		<path id="path420" class="st0" d="M26.8,21.3c-2.5-1-5.1-1.7-7.8-2.1l1.9,4.1l-2.7,5.6c2.7-0.1,5.3-0.3,8-0.7
			c0.9-0.2,1.7-1,1.7-1.8c0.1-0.9,0.2-1.9,0.3-2.8C28.3,22.8,27.7,21.7,26.8,21.3"/>
		<path id="path422" class="st0" d="M10.8,19.3c-2.6,0.4-5.2,1-7.6,2.1c-0.9,0.4-1.5,1.5-1.4,2.3c0.1,0.9,0.2,1.9,0.3,2.8
			C2.2,27.2,3,28,3.9,28.2c2.6,0.4,5.2,0.6,7.9,0.7L9,23.3L10.8,19.3"/>
		<path id="path424" class="st0" d="M16,20.6h-2.2l-1.1,1.2l1.1,2.6L13.1,29h3.6L16,24.3l1.1-2.6L16,20.6"/>
		<path id="path426" class="st0" d="M18.6,15.9c0.7-0.4,1.1-1,1.2-1.5c0.1-0.6,0.1-1.3,0.2-1.9c0.1,0.1,0.2,0.2,0.4,0.2
			c0.3,0,0.6-0.2,0.6-0.5l0.3-3c0-0.3-0.2-0.6-0.5-0.6c-0.1,0-0.2,0-0.3,0.1c0.1-0.6,0.1-1.1,0.2-1.7c0.1-0.8,0.4-2.9-1.1-4.2
			c-2.2-2.1-6.9-2.1-9.1,0C8.9,3.9,9.3,6,9.4,6.8c0.1,0.6,0.1,1.1,0.2,1.7C9.5,8.5,9.4,8.4,9.3,8.4c-0.3,0-0.5,0.3-0.5,0.6l0.3,3
			c0,0.3,0.3,0.5,0.6,0.5c0.1,0,0.3-0.1,0.4-0.2c0.1,0.6,0.1,1.3,0.2,1.9c0,0.5,0.5,1.1,1.2,1.5c0.1,0.9,0.3,1.9,0.4,2.8
			c0,0.4,0.7,1,1.5,1.1c1.1,0.2,2.3,0.2,3.4,0c0.8-0.1,1.4-0.7,1.5-1.1C18.3,17.7,18.4,16.8,18.6,15.9"/>
	</g>
</g>
<g id="圖層_2_1_">
</g>
</svg>
