<?xml version="1.0" encoding="utf-8"?>
<!-- Generator: Adobe Illustrator 16.0.0, SVG Export Plug-In . SVG Version: 6.00 Build 0)  -->
<!DOCTYPE svg PUBLIC "-//W3C//DTD SVG 1.1//EN" "http://www.w3.org/Graphics/SVG/1.1/DTD/svg11.dtd">
<svg version="1.1" xmlns="http://www.w3.org/2000/svg" xmlns:xlink="http://www.w3.org/1999/xlink" x="0px" y="0px" width="30px"
	 height="30px" viewBox="0 0 30 30" enable-background="new 0 0 30 30" xml:space="preserve">
<g id="login01">
	<g>
		<path id="path420" fill="#FFFFFF" d="M26.799,21.344c-2.477-1.05-5.11-1.738-7.796-2.084l1.859,4.068l-2.744,5.569
			c2.677-0.105,5.347-0.348,8.003-0.727c0.869-0.151,1.652-0.955,1.747-1.768c0.108-0.931,0.213-1.861,0.315-2.794
			C28.273,22.795,27.667,21.748,26.799,21.344"/>
		<path id="path422" fill="#FFFFFF" d="M10.849,19.277c-2.632,0.354-5.217,1.035-7.645,2.066c-0.871,0.404-1.478,1.451-1.387,2.266
			c0.103,0.932,0.208,1.863,0.315,2.794c0.094,0.813,0.877,1.616,1.747,1.768c2.608,0.372,5.231,0.609,7.858,0.721l-2.74-5.563
			L10.849,19.277"/>
		<path id="path424" fill="#FFFFFF" d="M16.02,20.565h-2.18l-1.087,1.214l1.087,2.561l-0.711,4.651h3.602L16.02,24.34l1.089-2.561
			L16.02,20.565"/>
		<path id="path426" fill="#FFFFFF" d="M18.582,15.853c0.651-0.419,1.119-1.031,1.165-1.546c0.074-0.646,0.149-1.292,0.225-1.939
			c0.09,0.096,0.211,0.164,0.352,0.178c0.31,0.031,0.587-0.194,0.618-0.502l0.31-2.986c0.031-0.311-0.192-0.588-0.501-0.619
			c-0.119-0.01-0.232,0.013-0.328,0.066c0.065-0.567,0.131-1.136,0.198-1.703c0.052-0.778,0.436-2.854-1.063-4.194
			c-2.171-2.13-6.941-2.13-9.112,0c-1.499,1.34-1.115,3.416-1.063,4.194c0.065,0.567,0.132,1.136,0.196,1.703
			C9.481,8.452,9.371,8.428,9.252,8.438C8.943,8.469,8.719,8.746,8.75,9.057l0.31,2.986c0.031,0.309,0.308,0.533,0.617,0.502
			c0.141-0.014,0.262-0.083,0.352-0.178c0.076,0.647,0.15,1.293,0.226,1.939c0.045,0.516,0.514,1.127,1.164,1.544
			c0.133,0.938,0.266,1.876,0.398,2.813c0.045,0.418,0.707,0.958,1.467,1.092c1.136,0.156,2.297,0.156,3.434,0
			c0.761-0.134,1.423-0.674,1.468-1.092C18.317,17.727,18.449,16.789,18.582,15.853"/>
	</g>
</g>
<g id="圖層_2">
</g>
</svg>
