<?xml version="1.0" encoding="utf-8"?>
<!-- Generator: Adobe Illustrator 25.2.0, SVG Export Plug-In . SVG Version: 6.00 Build 0)  -->
<svg version="1.1" id="圖層_1" xmlns="http://www.w3.org/2000/svg" xmlns:xlink="http://www.w3.org/1999/xlink" x="0px" y="0px"
	 viewBox="0 0 157.2 33.1" style="enable-background:new 0 0 157.2 33.1;" xml:space="preserve">
<style type="text/css">
	.st0{fill:#DA541A;}
	.st1{fill:#222F38;}
	.st2{fill:#3F3F3F;}
	.st3{fill-rule:evenodd;clip-rule:evenodd;fill:#222F38;}
	.st4{fill-rule:evenodd;clip-rule:evenodd;fill:#DA541A;}
</style>
<g>
	<g>
		<path class="st0" d="M53.6,16.2V4c0-0.2-0.2-0.3-0.5-0.1c0.3-0.4,0.9-0.6,1.8-0.6c0.9,0,1.3,0.2,1.3,0.7v10.1h4.6
			c0.2,0,0.3-0.2,0.1-0.5c0.4,0.3,0.6,0.8,0.6,1.5c0,0.7-0.2,1.1-0.7,1.1H53.6z"/>
		<path class="st1" d="M65.8,4.8c-0.4,0-0.8-0.1-1.1-0.4c-0.3-0.3-0.4-0.6-0.4-1c0-0.4,0.1-0.8,0.4-1C65,2.2,65.4,2,65.8,2
			c0.4,0,0.8,0.1,1.1,0.4c0.3,0.3,0.4,0.6,0.4,1c0,0.4-0.1,0.8-0.4,1C66.6,4.7,66.3,4.8,65.8,4.8z M67.6,15.6
			c-0.3,0.4-0.9,0.6-1.8,0.6c-0.9,0-1.3-0.2-1.3-0.7V6.4h1.8c0.5,0,0.8,0.3,0.8,0.8v8.2C67.1,15.7,67.3,15.8,67.6,15.6z"/>
		<path class="st1" d="M73.9,15.6c-0.3,0.4-0.9,0.6-1.8,0.6c-0.9,0-1.3-0.2-1.3-0.7V6.4h1.3c0.5,0,0.9,0.3,0.9,0.8l0.1,0.5
			c1.1-1,2.2-1.5,3.2-1.5c2,0,3,1.3,3,3.9v5.4c0,0.2,0.2,0.3,0.5,0.1c-0.3,0.4-0.9,0.6-1.8,0.6c-0.9,0-1.3-0.2-1.3-0.7v-5.1
			c0-0.7-0.1-1.3-0.3-1.6c-0.2-0.3-0.5-0.5-1-0.5c-0.4,0-0.8,0.1-1.1,0.3l-1,0.8v6C73.5,15.7,73.6,15.8,73.9,15.6z"/>
		<path class="st1" d="M86.2,15.6c-0.3,0.4-0.9,0.6-1.7,0.6c-0.8,0-1.3-0.2-1.3-0.7V2.3h1.7c0.6,0,0.8,0.3,0.8,0.8v7.5l3-3.7
			c0.2-0.2,0-0.2-0.4-0.1c0.5-0.3,1.3-0.5,2.2-0.5c0.9,0,1.3,0.2,1,0.5l-2.9,3.5l3.3,5.2c0.1,0.2,0.3,0.2,0.5,0.1
			c-0.1,0.3-0.6,0.5-1.5,0.5c-0.9,0-1.5-0.2-1.7-0.6l-2-3.4l-1.4,1.6v1.8C85.7,15.7,85.9,15.8,86.2,15.6z"/>
		<path class="st1" d="M96.1,4.8c-0.4,0-0.8-0.1-1.1-0.4c-0.3-0.3-0.4-0.6-0.4-1c0-0.4,0.1-0.8,0.4-1C95.3,2.2,95.7,2,96.1,2
			c0.4,0,0.8,0.1,1.1,0.4c0.3,0.3,0.4,0.6,0.4,1c0,0.4-0.1,0.8-0.4,1C96.9,4.7,96.6,4.8,96.1,4.8z M97.9,15.6
			c-0.3,0.4-0.9,0.6-1.8,0.6c-0.9,0-1.3-0.2-1.3-0.7V6.4h1.8c0.5,0,0.8,0.3,0.8,0.8v8.2C97.4,15.7,97.6,15.8,97.9,15.6z"/>
		<path class="st1" d="M104.2,15.6c-0.3,0.4-0.9,0.6-1.8,0.6c-0.9,0-1.3-0.2-1.3-0.7V6.4h1.3c0.5,0,0.9,0.3,0.9,0.8l0.1,0.5
			c1.1-1,2.2-1.5,3.2-1.5c2,0,3,1.3,3,3.9v5.4c0,0.2,0.2,0.3,0.5,0.1c-0.3,0.4-0.9,0.6-1.8,0.6c-0.9,0-1.3-0.2-1.3-0.7v-5.1
			c0-0.7-0.1-1.3-0.3-1.6c-0.2-0.3-0.5-0.5-1-0.5c-0.4,0-0.8,0.1-1.1,0.3l-1,0.8v6C103.8,15.7,103.9,15.8,104.2,15.6z"/>
		<path class="st1" d="M116.9,20.5c-1.2,0-2.2-0.2-3-0.6c-0.8-0.4-1.1-1-1.1-1.9c0-0.8,0.5-1.5,1.4-2.1c-0.6-0.4-0.9-0.9-0.9-1.6
			c0-0.7,0.2-1.2,0.7-1.5c0.3-0.2,0.3-0.4,0.1-0.6l-0.6-0.8c-0.2-0.5-0.4-1-0.4-1.5c0-1.1,0.4-2,1.2-2.6c0.8-0.6,1.7-0.9,2.8-0.9
			c0.5,0,1,0.1,1.5,0.2h2.8c0.2,0,0.3-0.2,0.1-0.5c0.4,0.3,0.6,0.8,0.6,1.4c0,0.6-0.2,0.9-0.7,0.9h-0.9c0.3,0.4,0.4,0.9,0.4,1.5
			c0,1.1-0.4,1.9-1.1,2.5c-0.7,0.6-1.6,0.9-2.7,0.9c-0.4,0-0.8-0.1-1.3-0.2c-0.3,0.2-0.4,0.5-0.4,0.8c0,0.3,0.1,0.5,0.4,0.6
			c0.2,0.1,0.6,0.2,1.2,0.2h1.7c2.4,0,3.7,0.8,3.7,2.5c0,1-0.5,1.8-1.5,2.5C119.8,20.1,118.5,20.5,116.9,20.5z M115.6,18.5
			c0.4,0.2,1,0.4,1.7,0.4c0.7,0,1.3-0.1,1.8-0.4c0.5-0.3,0.7-0.6,0.7-1c0-0.4-0.1-0.6-0.4-0.7c-0.3-0.1-0.7-0.2-1.2-0.2l-2.6-0.1
			c-0.4,0.3-0.6,0.7-0.6,1.1C115,18,115.2,18.3,115.6,18.5z M117.1,11.5c0.4,0,0.8-0.2,1.1-0.5c0.3-0.3,0.4-0.8,0.4-1.3
			c0-0.6-0.1-1-0.4-1.3c-0.3-0.3-0.6-0.5-1.1-0.5c-0.5,0-0.8,0.2-1.1,0.5c-0.3,0.3-0.4,0.8-0.4,1.3c0,0.6,0.1,1,0.4,1.3
			C116.3,11.4,116.6,11.5,117.1,11.5z"/>
		<path class="st0" d="M128.2,15.6c-0.3,0.4-0.9,0.6-1.8,0.6c-0.9,0-1.3-0.2-1.3-0.7V3.2h1.8c0.6,0,0.8,0.3,0.8,0.8v4.8l3.9-5.1
			c0.2-0.2,0-0.2-0.4-0.1c0.5-0.3,1.3-0.5,2.2-0.5c1,0,1.3,0.2,1,0.6L131,8.4l4.3,7.2c0.1,0.2,0.3,0.2,0.5,0.1
			c-0.1,0.3-0.6,0.5-1.6,0.5s-1.5-0.2-1.8-0.6l-3-5.2l-1.7,2.2v2.9C127.8,15.7,127.9,15.8,128.2,15.6z"/>
		<path class="st1" d="M143.8,13.7c0.5,0,0.9,0.3,1.2,0.9c0.3,0.5,0.2,0.9-0.2,1.2c-0.6,0.5-1.6,0.7-2.9,0.7c-1.3,0-2.4-0.5-3.4-1.4
			c-0.9-0.9-1.4-2.2-1.4-3.7c0-1.6,0.5-2.8,1.4-3.7c0.9-1,2-1.4,3.3-1.4c1.3,0,2.3,0.4,3,1.3c0.7,0.9,1.1,2,1.1,3.4l-0.1,0.4
			c0,0.5-0.3,0.8-0.9,0.8h-4.8c-0.3,0-0.4,0.2-0.4,0.5c0,0.4,0.3,0.9,0.8,1.3c0.5,0.4,1.1,0.6,1.8,0.6c0.7,0,1.2-0.1,1.5-0.3
			C144.1,14.1,144.1,13.9,143.8,13.7z M139.8,9.9c-0.1,0.3,0,0.4,0.3,0.4h3.1c0.3,0,0.4-0.2,0.4-0.5c0-0.3-0.1-0.7-0.4-1.1
			c-0.3-0.4-0.7-0.6-1.3-0.6c-0.6,0-1.1,0.2-1.5,0.6L139.8,9.9z"/>
		<path class="st1" d="M149.8,20.2l-0.6-0.1c-0.3,0-0.3,0.1-0.2,0.4c-0.3-0.3-0.4-0.8-0.3-1.5c0.2-0.7,0.5-0.9,0.9-0.9
			c0.9,0,1.5-0.5,1.8-1.5l0.2-0.6l-3.6-9c-0.1-0.2-0.3-0.3-0.5-0.1c0.2-0.4,0.7-0.5,1.5-0.5c0.9,0,1.4,0.2,1.5,0.7l2.3,6.6l1.9-6.6
			c0.1-0.2-0.1-0.3-0.4-0.1c0.4-0.4,1-0.6,1.8-0.6c0.8,0,1.2,0.2,1,0.7l-3.3,9.4c-0.5,1.2-1,2.2-1.6,2.7
			C151.6,19.9,150.8,20.2,149.8,20.2z"/>
	</g>
	<g>
		<path class="st2" d="M60.3,30.6L60,30.9c-1.7-1.2-2.8-2.8-3.3-4.9c-0.3,1.9-1.4,3.5-3.2,4.9l-0.3-0.3c0.6-0.4,1.2-0.9,1.7-1.6
			c0.5-0.6,0.9-1.3,1.2-2.1c0.3-0.8,0.4-1.8,0.4-3.1h0.5c0,1.5,0.3,2.8,0.9,4C58.4,29,59.2,29.9,60.3,30.6z"/>
		<path class="st2" d="M67.4,30.3c0,0.4-0.2,0.6-0.7,0.6c-0.1,0-0.2,0-0.3,0l-0.1-0.4h0.5c0.1,0,0.1,0,0.2-0.1
			c0.1,0,0.1-0.1,0.1-0.1v-2.5c-0.3,0.4-0.6,0.7-1,1l-0.2-0.3c0,0.9-0.2,1.7-0.4,2.4L65,30.7c0.2-0.6,0.3-1.2,0.3-2.1
			c0-0.8,0-1.6,0-2.2V24h2V30.3z M67,26.4l-0.2,0.2c-0.2-0.3-0.6-0.5-0.9-0.8v0.5c0,1,0,1.7,0,2.2c0.5-0.5,0.9-0.9,1.2-1.3V26.4z
			 M67,26.3v-1.8h-1.1v1.3l0.2-0.2C66.4,25.7,66.7,26,67,26.3z M71.6,24.2c-0.9,0.4-2,0.7-3.1,0.8v2.6c0,1.3-0.2,2.5-0.6,3.5
			l-0.4-0.2c0.4-0.9,0.6-2,0.6-3.2v-2.9c1.2-0.1,2.3-0.3,3.2-0.7L71.6,24.2z M71.7,25.6c-0.7,0.3-1.4,0.5-2.2,0.7v4.1
			c0.3-0.2,0.7-0.3,1-0.5l0.1,0.4c-0.5,0.3-1,0.6-1.5,0.8l-0.2-0.4c0.1-0.1,0.1-0.2,0.1-0.4v-4.3c0.8-0.1,1.6-0.3,2.4-0.7L71.7,25.6
			z M72.1,30.7L71.8,31c-0.9-1-1.5-2.4-1.6-4.2l0.4-0.1c0,0.4,0.1,0.8,0.2,1.2c0.3-0.3,0.7-0.7,1-1l0.3,0.2
			c-0.4,0.5-0.8,0.9-1.2,1.3C71.1,29.2,71.5,30,72.1,30.7z"/>
		<path class="st2" d="M84,30.3l-0.1,0.4h-2.6c-1,0-1.7-0.1-2.1-0.2c-0.4-0.2-0.8-0.4-1.1-0.6c-0.3,0.4-0.7,0.8-1,1.1l-0.3-0.3
			c0.5-0.4,0.8-0.8,1-1.1c-0.4-0.6-0.7-1.3-0.9-2l0.4-0.1c0.2,0.7,0.4,1.3,0.7,1.7c0.3-0.6,0.5-1.4,0.5-2.3h-1.5v-0.3
			c0.5-0.6,1-1.2,1.5-2H77V24h2.1v0.4c-0.4,0.6-0.9,1.3-1.4,2H79c0,1.3-0.2,2.4-0.7,3.1c0.3,0.3,0.7,0.6,1.2,0.7
			c0.5,0.1,1.1,0.2,1.9,0.2H84z M83.8,24.3c-0.7,0.2-1.2,0.3-1.7,0.4v1.8h1.6v0.4h-1.6v2h1.7v0.4h-4.6v-0.4H80v-3.1h0.4v3.1h1.3
			v-4.1c-0.6,0.1-1.3,0.1-2,0.2l-0.2-0.4c1.6-0.1,3-0.3,4.2-0.7L83.8,24.3z"/>
		<path class="st2" d="M90.9,23.9c-0.1,0.2-0.2,0.5-0.4,0.9l-0.2,0.5v5.7h-0.4V26c-0.3,0.5-0.6,1-1,1.4L88.7,27
			c0.7-0.8,1.3-1.9,1.9-3.2L90.9,23.9z M95.5,29.1h-1.9v1.9h-0.4v-1.9h-1.9V25h1.9v-1.1h0.4V25h1.9V29.1z M93.1,26.8v-1.4h-1.5v1.4
			H93.1z M93.1,28.7v-1.5h-1.5v1.5H93.1z M95,26.8v-1.4h-1.5v1.4H95z M95,28.7v-1.5h-1.5v1.5H95z"/>
		<path class="st2" d="M104.9,27.3c0,0.3-0.3,0.7-0.7,0.7c-0.4,0-0.7-0.4-0.7-0.7c0-0.4,0.3-0.8,0.7-0.8c0.2,0,0.4,0.1,0.5,0.2
			C104.8,27,104.9,27.1,104.9,27.3z"/>
		<path class="st2" d="M119.5,24.9h-6.8v-0.4h3.2c0-0.2-0.1-0.4-0.2-0.7l0.4-0.1c0.1,0.2,0.2,0.4,0.3,0.8h3.2V24.9z M119.1,30.3
			c0,0.2,0,0.3-0.1,0.5c-0.1,0.1-0.3,0.2-0.7,0.2c-0.1,0-0.3,0-0.4,0l-0.1-0.4c0.3,0,0.5,0,0.7,0c0.2,0,0.4-0.1,0.4-0.3V28h-5.3v3
			H113v-3.4h6.1V30.3z M118.3,27h-4.6v-1.5h4.6V27z M117.9,26.6v-0.7h-3.7v0.7H117.9z M117.7,30.1h-3.3v-1.6h3.3V30.1z M117.3,29.7
			v-0.8h-2.5v0.8H117.3z"/>
		<path class="st2" d="M126,25.8c-0.4,0.8-0.8,1.4-1.3,1.8l-0.3-0.3c0.4-0.4,0.8-0.9,1.2-1.7L126,25.8z M127.8,30l-0.3,0.3
			c-0.3-0.4-0.6-0.8-0.9-1.1c-0.4,0.7-1.1,1.3-1.9,1.7l-0.3-0.3c0.9-0.5,1.5-1.1,1.9-1.7c-0.3-0.3-0.6-0.6-1.2-1l0.3-0.3
			c0.5,0.4,0.8,0.7,1.1,0.9c0.2-0.5,0.4-0.9,0.5-1.4l0.4,0.2c-0.1,0.4-0.3,0.9-0.6,1.5C127.2,29.2,127.5,29.6,127.8,30z M128.1,25.2
			h-3.6v-0.4h1.7c-0.1-0.3-0.2-0.6-0.4-0.9l0.4-0.2c0.2,0.3,0.3,0.7,0.4,1.1h1.4V25.2z M128.1,27.2l-0.4,0.3
			c-0.2-0.5-0.6-1.1-1.1-1.6l0.3-0.3C127.5,26.1,127.9,26.7,128.1,27.2z M131.6,30.6l-0.2,0.4c-0.6-0.4-1.1-0.8-1.5-1.3
			c-0.4,0.5-1,0.9-1.8,1.3l-0.3-0.4c0.7-0.3,1.3-0.7,1.8-1.2c-0.3-0.6-0.6-1.2-0.7-1.8l0.4-0.1c0.1,0.6,0.3,1.1,0.6,1.6
			c0.5-0.8,0.8-2,0.9-3.5h-1.3c-0.2,0.6-0.5,1.2-0.8,1.8l-0.3-0.2c0.6-1,0.9-2.1,1.2-3.3l0.4,0.1c-0.1,0.4-0.2,0.8-0.3,1.2h2v0.4
			h-0.4c-0.1,1.8-0.5,3.1-1,3.8C130.4,29.8,130.9,30.3,131.6,30.6z"/>
		<path class="st2" d="M143.3,30.6l-0.2,0.4c-1.3-0.3-2.4-0.8-3.3-1.5c-0.8,0.6-2,1.1-3.3,1.5l-0.2-0.4c1.3-0.3,2.4-0.8,3.2-1.4
			c-0.5-0.5-1-1.2-1.4-1.9l0.4-0.2c0.4,0.8,0.9,1.4,1.3,1.8c0.6-0.6,1-1.2,1.4-1.8l0.4,0.2c-0.5,0.8-1,1.5-1.5,1.9
			C140.9,29.8,142,30.2,143.3,30.6z M139,25.8c-0.5,0.7-1.3,1.4-2.3,2.2l-0.3-0.3c1-0.7,1.8-1.4,2.3-2.1L139,25.8z M143.3,25.2h-6.9
			v-0.4h3.4c-0.1-0.2-0.2-0.5-0.4-0.8l0.4-0.2c0.2,0.3,0.3,0.7,0.4,1h3.1V25.2z M143.3,27.7l-0.3,0.3c-0.5-0.7-1.3-1.4-2.2-2.2
			l0.3-0.3C142,26.3,142.7,27,143.3,27.7z"/>
		<path class="st2" d="M149.7,28.3c-0.3,0.9-0.7,1.7-1.2,2.6l-0.4-0.3c0.5-0.7,0.9-1.6,1.2-2.6L149.7,28.3z M149.7,27.1l-0.3,0.3
			c-0.4-0.4-0.8-0.8-1.3-1.1l0.3-0.3C148.9,26.4,149.4,26.7,149.7,27.1z M149.9,24.9l-0.3,0.3c-0.5-0.5-0.9-0.9-1.2-1.1l0.3-0.3
			C149.1,24.2,149.5,24.5,149.9,24.9z M151.1,27.5c0,1-0.1,1.7-0.2,2.2c-0.2,0.5-0.5,0.9-1,1.3l-0.3-0.3c0.3-0.2,0.6-0.5,0.8-0.9
			c0.2-0.4,0.4-1.2,0.3-2.2H151.1z M155.3,27.2l-0.4,0.3c-0.1-0.2-0.3-0.4-0.5-0.7c-1.6,0.2-3,0.3-4.2,0.4l-0.1-0.4
			c0.6-0.3,1.2-0.9,1.6-1.7h-1.7v-0.4h1.9c0.1-0.2,0.2-0.5,0.4-0.9l0.4,0.1c-0.1,0.1-0.2,0.4-0.3,0.8h2.6v0.4h-2.8
			c-0.4,0.7-0.9,1.3-1.4,1.7c1-0.1,2.1-0.2,3.1-0.3c-0.2-0.3-0.5-0.5-0.7-0.7l0.3-0.3C154.3,26,154.8,26.6,155.3,27.2z M152.5,30.9
			h-0.4v-3.4h0.4V30.9z M155.2,30.8h-1.1c-0.4,0-0.6-0.2-0.6-0.6v-2.8h0.4v2.7c0,0.1,0.1,0.2,0.2,0.2h1V30.8z"/>
	</g>
	<g>
		<path class="st3" d="M21.5,10.2c0.2-2-1.7-2.6-2.9-2c-1.2,0.5-1.9,1.4-2,2.7c-0.2,2.5-1.8,3.9-4.1,4C10.2,15,8.3,13.5,8,11.1
			C7.7,9.4,8.4,8.1,9.7,7C11,6,12.5,5.9,14,6.5C16.2,7.4,18,6.4,18.4,4c0.3-2,1.4-3.4,3.2-3.8c1.8-0.5,3.7,0.2,4.7,1.6
			c1.1,1.5,1.2,3.5,0.2,5.1c-0.2,0.4-0.6,0.7-1,0.9c-1.3,0.9-1.6,1.9-1.3,3.4c0.6,2.7,2,4.9,4,6.8c1,1,2.2,1.1,3.1,0.5
			c1.3-0.9,1.3-3.3,0-4.3c-1-0.7-1.8-1.5-2.1-2.7c-0.5-2,0.3-4,2.1-5c1.7-1,3.9-0.7,5.3,0.8c1.4,1.4,1.7,3.8,0.6,5.4
			c-0.3,0.4-0.7,0.9-1.2,1.1c-1.6,1-2.2,3.5-0.2,5c1.5,1.1,2.3,2.6,2,4.5c-0.3,1.8-1.6,3-3.6,3.5c-1.8,0.4-3.3-0.2-4.3-1.7
			c-0.5-0.7-0.8-1.6-0.9-2.5c-0.1-0.8-0.5-1.4-1.2-1.8c-3.1-1.5-6.2-1.6-9.4-0.2c-0.6,0.3-1.3,0.9-1.5,1.6c-0.5,1.3,0.7,2.8,2.3,2.9
			c0.6,0,1.2-0.1,1.8-0.4c1.8-0.6,3.5-0.6,5,0.9c1.6,1.5,1.8,3.8,0.6,5.6c-1.1,1.7-3.2,2.4-5.2,1.7c-1.8-0.7-2.8-2-3-3.9
			c-0.2-2.1-2.1-3.1-4-2.2c-0.9,0.4-1.8,0.6-2.8,0.4c-2.5-0.5-4.1-3-3.5-5.4c0.6-2.5,3.1-3.9,5.6-3.1c1,0.3,1.9,0.8,2.9,0.2
			c0.5-0.3,0.9-0.5,1.3-0.9C19.9,16.1,21.5,12.7,21.5,10.2z M20.3,4.5c0,1.3,1,2.4,2.4,2.4c1.3,0,2.4-1.1,2.4-2.4
			c0-1.3-1.1-2.4-2.4-2.4C21.4,2.2,20.3,3.2,20.3,4.5z M12.2,20.2c-1.3,0-2.4,1-2.4,2.3c0,1.3,1,2.4,2.3,2.4c1.3,0,2.4-1,2.4-2.3
			C14.6,21.3,13.5,20.3,12.2,20.2z M35.7,22.4c0-1.3-1-2.4-2.3-2.4c-1.3,0-2.4,1-2.4,2.3c0,1.3,1,2.4,2.3,2.4
			C34.7,24.8,35.7,23.8,35.7,22.4z"/>
		<path class="st3" d="M4.3,12.4c2.4,0,4.3,1.9,4.3,4.2c0,2.4-1.9,4.3-4.3,4.3C1.9,20.9,0,19,0,16.6C0,14.3,1.9,12.4,4.3,12.4z"/>
		<path class="st3" d="M45.7,16.6c0,2.4-1.9,4.3-4.3,4.3c-2.4,0-4.3-1.9-4.3-4.3c0-2.4,1.9-4.3,4.3-4.2
			C43.8,12.3,45.7,14.2,45.7,16.6z M41.4,14.2c-1.4,0-2.4,1-2.4,2.3c0,1.3,1,2.4,2.3,2.4c1.3,0,2.4-1,2.4-2.3
			C43.8,15.3,42.8,14.2,41.4,14.2z"/>
		<path class="st4" d="M20.3,4.5c0-1.3,1-2.4,2.4-2.4c1.3,0,2.4,1.1,2.4,2.4c0,1.3-1.1,2.4-2.4,2.4C21.4,6.9,20.3,5.9,20.3,4.5z"/>
		<path class="st4" d="M12.2,20.2c1.3,0,2.4,1.1,2.3,2.4c0,1.3-1.1,2.4-2.4,2.3c-1.3,0-2.3-1.1-2.3-2.4
			C9.8,21.2,10.9,20.2,12.2,20.2z"/>
		<path class="st4" d="M35.7,22.4c0,1.3-1.1,2.4-2.4,2.3c-1.3,0-2.4-1.1-2.3-2.4c0-1.3,1.1-2.4,2.4-2.3
			C34.7,20.1,35.8,21.1,35.7,22.4z"/>
		<path class="st4" d="M41.4,14.2c1.3,0,2.3,1.1,2.3,2.4c0,1.3-1.1,2.4-2.4,2.3c-1.3,0-2.3-1.1-2.3-2.4
			C39.1,15.2,40.1,14.2,41.4,14.2z"/>
	</g>
</g>
</svg>
