<?xml version="1.0" encoding="utf-8"?>
<!-- Generator: Adobe Illustrator 25.2.0, SVG Export Plug-In . SVG Version: 6.00 Build 0)  -->
<svg version="1.1" id="圖層_1" xmlns="http://www.w3.org/2000/svg" xmlns:xlink="http://www.w3.org/1999/xlink" x="0px" y="0px"
	 viewBox="0 0 39.1 30" style="enable-background:new 0 0 39.1 30;" xml:space="preserve">
<style type="text/css">
	.st0{fill:#222222;}
</style>
<path class="st0" d="M8.7,3.4c-4.3,0-7.8,3.4-7.8,7.7c0,4.2,3.5,7.7,7.8,7.7c4.3,0,7.8-3.4,7.8-7.7C16.4,6.8,12.9,3.4,8.7,3.4z
	 M14.2,11.9H9.7v4.8H7.8v-4.8H3.4v-1.7h4.4V5.6h1.9v4.6h4.4V11.9z"/>
<g>
	<path id="path420_1_" class="st0" d="M37,21.3c-2.5-1-5.1-1.7-7.8-2.1l1.9,4.1l-2.7,5.6c2.7-0.1,5.3-0.3,8-0.7
		c0.9-0.2,1.7-1,1.7-1.8c0.1-0.9,0.2-1.9,0.3-2.8C38.5,22.8,37.9,21.7,37,21.3"/>
	<path id="path422_1_" class="st0" d="M21.1,19.3c-2.6,0.4-5.2,1-7.6,2.1c-0.9,0.4-1.5,1.5-1.4,2.3c0.1,0.9,0.2,1.9,0.3,2.8
		c0.1,0.8,0.9,1.6,1.7,1.8c2.6,0.4,5.2,0.6,7.9,0.7l-2.7-5.6L21.1,19.3"/>
	<path id="path424_1_" class="st0" d="M26.2,20.6h-2.2L23,21.8l1.1,2.6L23.4,29H27l-0.7-4.7l1.1-2.6L26.2,20.6"/>
	<path id="path426_1_" class="st0" d="M28.8,15.9c0.7-0.4,1.1-1,1.2-1.5c0.1-0.6,0.1-1.3,0.2-1.9c0.1,0.1,0.2,0.2,0.4,0.2
		c0.3,0,0.6-0.2,0.6-0.5l0.3-3c0-0.3-0.2-0.6-0.5-0.6c-0.1,0-0.2,0-0.3,0.1c0.1-0.6,0.1-1.1,0.2-1.7c0.1-0.8,0.4-2.9-1.1-4.2
		c-2.2-2.1-6.9-2.1-9.1,0c-1.5,1.3-1.1,3.4-1.1,4.2c0.1,0.6,0.1,1.1,0.2,1.7c-0.1-0.1-0.2-0.1-0.3-0.1c-0.3,0-0.5,0.3-0.5,0.6l0.3,3
		c0,0.3,0.3,0.5,0.6,0.5c0.1,0,0.3-0.1,0.4-0.2c0.1,0.6,0.2,1.3,0.2,1.9c0,0.5,0.5,1.1,1.2,1.5c0.1,0.9,0.3,1.9,0.4,2.8
		c0,0.4,0.7,1,1.5,1.1c1.1,0.2,2.3,0.2,3.4,0c0.8-0.1,1.4-0.7,1.5-1.1C28.5,17.7,28.7,16.8,28.8,15.9"/>
</g>
</svg>
