<?xml version="1.0" encoding="utf-8"?>
<!-- Generator: Adobe Illustrator 25.2.0, SVG Export Plug-In . SVG Version: 6.00 Build 0)  -->
<svg version="1.1" id="圖層_1" xmlns="http://www.w3.org/2000/svg" xmlns:xlink="http://www.w3.org/1999/xlink" x="0px" y="0px"
	 viewBox="0 0 667.1 483.8" style="enable-background:new 0 0 667.1 483.8;" xml:space="preserve">
<style type="text/css">
	.st0{opacity:0.45;}
	.st1{fill-rule:evenodd;clip-rule:evenodd;fill:#D8D8D8;}
</style>
<g id="輔助圖形_1_" class="st0">
	<path class="st1" d="M314.7,149.7c2.8-28.7-24.4-37.6-42.8-29.5c-17.4,7.7-27.2,20.4-29,40c-3.3,36.2-26.1,57.6-60.6,58.4
		c-34,0.8-61.3-22-66.1-56.2c-3.4-24.6,6.1-44.7,25.5-59.6c19-14.6,40.3-17.3,62.3-8.1c32.7,13.6,59.6-1.4,64.1-36.4
		c3.7-28.7,20.6-49.2,46.3-56c26.1-6.9,53.4,2.4,69.1,23.6c16.1,21.8,17.4,51.5,2.4,74.9c-3.4,5.4-8.8,9.9-14.1,13.5
		c-19,13-24,27.2-19.1,49.6c8.6,39.7,29.2,72.2,57.9,100c14.9,14.5,31.8,16.6,45.5,6.9c19-13.4,18.8-48.5-0.6-63
		c-14-10.4-26.2-21.7-30.8-39.6c-7.5-28.9,4.8-58.8,30.9-73.4c25.3-14.1,57.2-9.6,77.2,11c20.2,20.9,24.5,55.6,8.9,79.5
		c-4.2,6.5-10.4,12.5-17,16.7c-22.7,14.2-31.5,51.7-2.4,72.3c21.9,15.5,34.1,38.1,29.7,66.3c-4.1,26.3-23.6,44.2-53.3,50.7
		c-25.8,5.6-48.6-2.3-62.8-24.9c-6.8-10.8-11.2-24.1-13.1-36.8c-1.8-12.1-6.7-20.9-16.8-25.8c-44.9-22-91-23.2-136.7-3.6
		c-9.2,4-18.5,13.8-22.3,23.2c-7.5,18.4,10.9,40.4,33.9,41.7c8.6,0.5,17.9-2.2,26.2-5.1c26.9-9.5,51.4-8.2,72.8,12.7
		c22.9,22.4,26.4,55,9,82.2c-16.2,25.4-47.2,35.6-76.4,24.7c-26.4-9.9-40.4-29.3-43.7-57.4c-3.6-30-30.4-44.8-58.3-32.5
		c-13.2,5.8-26.4,8.8-40.7,5.9c-37.1-7.6-60.4-43.4-51.4-79.4c9.2-36.9,45-57.2,82.1-45.6c14.1,4.4,27.6,11,42.2,2.9
		c6.7-3.7,13.3-7.7,19-12.7C290.9,235.1,314.1,185.9,314.7,149.7z M297.2,66.2c0,19.3,15.2,34.6,34.5,34.6c19,0,34.8-15.7,34.7-34.6
		c0-19-15.7-34.6-34.7-34.6C312.4,31.6,297.2,46.9,297.2,66.2z M178.3,295.6c-19.5-0.2-34.7,14.6-34.9,34c-0.3,19.2,15,35,34,35.2
		c19,0.2,34.7-15.1,35-34.2C212.7,311.4,197.5,295.8,178.3,295.6z M522,327.8c0.3-19.1-14.9-34.7-34.1-34.9
		c-19.1-0.3-34.9,15.1-35.1,34.1c-0.2,19.2,15.1,34.7,34.2,35C506.2,362.2,521.7,347,522,327.8z"/>
	<path class="st1" d="M62.4,180.6c35-0.1,62.6,27.2,62.8,62c0.2,34.6-27.6,62.6-62.3,62.8C28.4,305.6,0.2,277.6,0,243.1
		C-0.2,208.5,27.6,180.7,62.4,180.6z"/>
	<path class="st1" d="M667.1,242.1c-0.1,34.7-28,62.4-62.7,62.3c-34.5-0.1-62.7-28.4-62.4-62.8c0.3-34.9,27.9-62.1,62.9-62.1
		C639.9,179.6,667.2,207.1,667.1,242.1z M605.4,207.5c-19.8-0.3-34.8,14.1-35.1,33.6c-0.3,19.4,14.5,34.9,33.7,35.5
		c18.7,0.5,34.8-15.1,35.2-34.1C639.6,223,624.8,207.8,605.4,207.5z"/>
</g>
</svg>
