<?xml version="1.0" encoding="utf-8"?>
<!-- Generator: Adobe Illustrator 25.2.0, SVG Export Plug-In . SVG Version: 6.00 Build 0)  -->
<svg version="1.1" id="圖層_1" xmlns="http://www.w3.org/2000/svg" xmlns:xlink="http://www.w3.org/1999/xlink" x="0px" y="0px"
	 viewBox="0 0 157.7 33.2" style="enable-background:new 0 0 157.7 33.2;" xml:space="preserve">
<style type="text/css">
	.st0{fill:#CF531D;}
	.st1{fill:#222F38;}
	.st2{fill:#656767;}
	.st3{fill-rule:evenodd;clip-rule:evenodd;fill:#222F38;}
	.st4{fill-rule:evenodd;clip-rule:evenodd;fill:#CF531D;}
</style>
<g id="橫式_-_標誌_x2B_中文名_x28_無背景_x29_">
	<g>
		<path class="st0" d="M53.7,16.3V4c0-0.2-0.2-0.3-0.5-0.1c0.3-0.4,0.9-0.6,1.8-0.6c0.9,0,1.3,0.2,1.3,0.7v10.1h4.6
			c0.2,0,0.3-0.2,0.1-0.5c0.4,0.3,0.6,0.8,0.6,1.5c0,0.7-0.2,1.1-0.7,1.1H53.7z"/>
		<path class="st1" d="M66,4.9c-0.4,0-0.8-0.1-1.1-0.4c-0.3-0.3-0.4-0.6-0.4-1c0-0.4,0.1-0.8,0.4-1C65.2,2.2,65.6,2,66,2
			c0.4,0,0.8,0.1,1.1,0.4c0.3,0.3,0.4,0.6,0.4,1c0,0.4-0.1,0.8-0.4,1C66.8,4.7,66.5,4.9,66,4.9z M67.8,15.7
			c-0.3,0.4-0.9,0.6-1.8,0.6c-0.9,0-1.3-0.2-1.3-0.7V6.4h1.8c0.6,0,0.8,0.3,0.8,0.8v8.3C67.3,15.8,67.5,15.8,67.8,15.7z"/>
		<path class="st1" d="M74.2,15.7c-0.3,0.4-0.9,0.6-1.8,0.6c-0.9,0-1.3-0.2-1.3-0.7V6.4h1.3c0.6,0,0.9,0.3,0.9,0.8l0.1,0.5
			c1.1-1,2.2-1.5,3.2-1.5c2,0,3,1.3,3,4v5.4c0,0.2,0.2,0.3,0.5,0.1c-0.3,0.4-0.9,0.6-1.8,0.6c-0.9,0-1.3-0.2-1.3-0.7v-5.1
			c0-0.7-0.1-1.3-0.3-1.6c-0.2-0.3-0.5-0.5-1-0.5c-0.4,0-0.8,0.1-1.1,0.3l-1,0.8v6C73.7,15.8,73.9,15.8,74.2,15.7z"/>
		<path class="st1" d="M86.5,15.7c-0.3,0.4-0.9,0.6-1.7,0.6c-0.8,0-1.3-0.2-1.3-0.7V2.3h1.7c0.6,0,0.8,0.3,0.8,0.8v7.6L89,7
			c0.2-0.2,0-0.2-0.4-0.1c0.6-0.3,1.3-0.5,2.2-0.5c0.9,0,1.3,0.2,1,0.5l-2.9,3.5l3.3,5.2c0.1,0.2,0.3,0.2,0.5,0.1
			c-0.1,0.3-0.6,0.5-1.5,0.5c-0.9,0-1.5-0.2-1.7-0.6l-2-3.5L86,13.8v1.8C86,15.8,86.1,15.8,86.5,15.7z"/>
		<path class="st1" d="M96.4,4.9c-0.4,0-0.8-0.1-1.1-0.4c-0.3-0.3-0.4-0.6-0.4-1c0-0.4,0.1-0.8,0.4-1C95.6,2.2,96,2,96.4,2
			c0.4,0,0.8,0.1,1.1,0.4c0.3,0.3,0.4,0.6,0.4,1c0,0.4-0.1,0.8-0.4,1C97.2,4.7,96.9,4.9,96.4,4.9z M98.2,15.7
			c-0.3,0.4-0.9,0.6-1.8,0.6c-0.9,0-1.3-0.2-1.3-0.7V6.4h1.8c0.6,0,0.8,0.3,0.8,0.8v8.3C97.7,15.8,97.9,15.8,98.2,15.7z"/>
		<path class="st1" d="M104.6,15.7c-0.3,0.4-0.9,0.6-1.8,0.6c-0.9,0-1.3-0.2-1.3-0.7V6.4h1.3c0.6,0,0.9,0.3,0.9,0.8l0.1,0.5
			c1.1-1,2.2-1.5,3.2-1.5c2,0,3,1.3,3,4v5.4c0,0.2,0.2,0.3,0.5,0.1c-0.3,0.4-0.9,0.6-1.8,0.6c-0.9,0-1.3-0.2-1.3-0.7v-5.1
			c0-0.7-0.1-1.3-0.3-1.6c-0.2-0.3-0.5-0.5-1-0.5c-0.4,0-0.8,0.1-1.1,0.3l-1,0.8v6C104.1,15.8,104.3,15.8,104.6,15.7z"/>
		<path class="st1" d="M117.3,20.5c-1.2,0-2.2-0.2-3-0.6c-0.8-0.4-1.1-1-1.1-1.9c0-0.8,0.5-1.5,1.4-2.1c-0.6-0.4-0.9-0.9-0.9-1.7
			c0-0.7,0.2-1.2,0.7-1.5c0.3-0.2,0.3-0.5,0.1-0.6l-0.6-0.8c-0.2-0.5-0.4-1-0.4-1.5c0-1.1,0.4-2,1.2-2.6c0.8-0.6,1.7-0.9,2.8-0.9
			c0.5,0,1,0.1,1.5,0.2h2.8c0.2,0,0.3-0.2,0.1-0.5c0.4,0.3,0.6,0.8,0.6,1.4c0,0.6-0.2,0.9-0.7,0.9h-0.9c0.3,0.4,0.4,0.9,0.4,1.5
			c0,1.1-0.4,1.9-1.1,2.5c-0.7,0.6-1.6,0.9-2.7,0.9c-0.4,0-0.8-0.1-1.3-0.2c-0.3,0.2-0.4,0.5-0.4,0.8c0,0.3,0.1,0.5,0.4,0.6
			c0.2,0.1,0.6,0.2,1.2,0.2h1.7c2.4,0,3.7,0.8,3.7,2.5c0,1-0.5,1.8-1.5,2.5C120.2,20.2,118.9,20.5,117.3,20.5z M116,18.6
			c0.4,0.2,1,0.4,1.7,0.4c0.7,0,1.3-0.1,1.8-0.4c0.5-0.3,0.7-0.6,0.7-1c0-0.4-0.1-0.6-0.4-0.7c-0.3-0.1-0.7-0.2-1.2-0.2l-2.6-0.1
			c-0.4,0.3-0.6,0.7-0.6,1.1C115.3,18,115.6,18.3,116,18.6z M117.5,11.6c0.4,0,0.8-0.2,1.1-0.5c0.3-0.3,0.4-0.8,0.4-1.3
			c0-0.6-0.1-1-0.4-1.3c-0.3-0.3-0.7-0.5-1.1-0.5c-0.5,0-0.8,0.2-1.1,0.5c-0.3,0.3-0.4,0.8-0.4,1.3c0,0.6,0.1,1,0.4,1.3
			C116.6,11.4,117,11.6,117.5,11.6z"/>
		<path class="st0" d="M128.6,15.7c-0.3,0.4-0.9,0.6-1.8,0.6c-0.9,0-1.3-0.2-1.3-0.7V3.3h1.8c0.6,0,0.8,0.3,0.8,0.8v4.8l3.9-5.1
			c0.2-0.2,0-0.2-0.4-0.1c0.5-0.3,1.3-0.5,2.2-0.5c1,0,1.3,0.2,1,0.6l-3.5,4.6l4.3,7.3c0.1,0.2,0.3,0.2,0.5,0.1
			c-0.1,0.3-0.6,0.5-1.6,0.5c-0.9,0-1.5-0.2-1.8-0.6l-3-5.2l-1.7,2.2v2.9C128.2,15.8,128.3,15.8,128.6,15.7z"/>
		<path class="st1" d="M144.2,13.8c0.5,0,0.9,0.3,1.2,0.9c0.3,0.5,0.2,0.9-0.2,1.2c-0.6,0.5-1.6,0.7-2.9,0.7c-1.3,0-2.4-0.5-3.4-1.4
			c-0.9-0.9-1.4-2.2-1.4-3.7c0-1.6,0.5-2.8,1.4-3.8c0.9-1,2-1.4,3.3-1.4c1.3,0,2.3,0.4,3,1.3c0.7,0.9,1.1,2,1.1,3.4l-0.1,0.4
			c0,0.6-0.3,0.8-0.9,0.8h-4.8c-0.3,0-0.4,0.2-0.4,0.5c0,0.4,0.3,0.9,0.8,1.3c0.5,0.4,1.1,0.6,1.8,0.6c0.7,0,1.3-0.1,1.5-0.3
			C144.6,14.1,144.5,14,144.2,13.8z M140.2,10c-0.1,0.3,0,0.4,0.3,0.4h3.1c0.3,0,0.4-0.2,0.4-0.5c0-0.3-0.1-0.7-0.4-1.1
			c-0.3-0.4-0.7-0.6-1.3-0.6c-0.6,0-1.1,0.2-1.5,0.6L140.2,10z"/>
		<path class="st1" d="M150.2,20.2l-0.6-0.1c-0.3,0-0.3,0.1-0.2,0.4c-0.3-0.3-0.4-0.8-0.3-1.5c0.2-0.7,0.5-0.9,0.9-0.9
			c0.9,0,1.5-0.5,1.8-1.5l0.2-0.6l-3.6-9c-0.1-0.2-0.3-0.3-0.5-0.1c0.2-0.4,0.7-0.5,1.5-0.5c0.9,0,1.4,0.2,1.5,0.7l2.3,6.7l1.9-6.7
			c0.1-0.2-0.1-0.3-0.4-0.1c0.4-0.4,1-0.6,1.8-0.6c0.8,0,1.2,0.2,1,0.7l-3.3,9.5c-0.5,1.2-1,2.2-1.6,2.8
			C152.1,19.9,151.3,20.2,150.2,20.2z"/>
	</g>
	<g>
		<path class="st2" d="M53.4,24H60c0.3,0,0.4,0.1,0.4,0.4V31c0,0.1,0.1,0.1,0.2,0.1c-0.1,0.2-0.4,0.3-0.7,0.3
			c-0.3,0-0.5-0.1-0.5-0.3v0h-5.1v0c0,0.1,0.1,0.1,0.2,0.1c-0.1,0.2-0.4,0.3-0.7,0.3c-0.3,0-0.5-0.1-0.5-0.3V24z M56.8,25.7l0-0.4
			c0-0.1-0.1-0.1-0.2-0.1c0.1-0.2,0.3-0.3,0.6-0.3c0.3,0,0.4,0.1,0.4,0.3l0,0.4h0.7c0.1,0,0.1-0.1,0-0.2c-0.3-0.2-0.3-0.3-0.2-0.3
			c0.1-0.2,0.1-0.4-0.1-0.4h-3.4c-0.1,0-0.2,0.1-0.2,0.2v5h5.1v-5c0-0.1-0.1-0.2-0.2-0.2h-0.8l0.3,0.2c0.2,0.2,0.2,0.4,0,0.6h0.1
			c0.1,0,0.1-0.1,0.1-0.2c0.2,0.1,0.3,0.3,0.3,0.6c0,0.2-0.1,0.3-0.3,0.3h-1.1c0,0.5,0.1,0.9,0.2,1.3c0.2-0.3,0.2-0.5,0.3-0.7
			c0-0.1,0-0.1-0.2-0.1c0.2-0.2,0.4-0.2,0.7-0.2c0.3,0,0.3,0.2,0.3,0.4c-0.1,0.5-0.4,1-0.8,1.5c0.1,0.3,0.2,0.4,0.4,0.4
			c0,0,0.1,0,0.1-0.1l0-0.3c0-0.1,0-0.2-0.2-0.2c0.1-0.1,0.3-0.1,0.5,0.1c0.2,0.2,0.3,0.4,0.2,0.6c0,0.2-0.1,0.4-0.3,0.6
			c-0.2,0.2-0.4,0.2-0.7,0.1c-0.2-0.1-0.4-0.3-0.6-0.5c-0.3,0.3-0.5,0.5-0.6,0.5c-0.1,0.1-0.1,0.1,0.1,0.2c-0.2,0-0.4-0.1-0.6-0.3
			c-0.2-0.2-0.2-0.4,0-0.5c-1.1,0.2-1.7,0.3-1.8,0.3c0,0,0,0.1,0,0.2c-0.1-0.1-0.1-0.3-0.1-0.6c0-0.2,0-0.4,0.2-0.4
			c0.4,0,1.1-0.1,2.1-0.3l0,0.4l0.4-0.4c-0.2-0.5-0.3-1.2-0.4-2.2h-1.9c-0.1,0-0.1,0.1-0.1,0.2c-0.2-0.1-0.3-0.3-0.3-0.6
			c0-0.2,0.1-0.3,0.3-0.3H56.8z M56.3,26.7c0.3,0,0.4,0.1,0.4,0.4v0.8c0,0.3-0.1,0.4-0.4,0.4h-1c-0.3,0-0.4-0.1-0.4-0.4v-0.8
			c0-0.3,0.1-0.4,0.4-0.4H56.3z M55.8,27.8c0.1,0,0.2-0.1,0.2-0.2v-0.1c0-0.1-0.1-0.2-0.2-0.2h-0.1c-0.1,0-0.2,0.1-0.2,0.2v0.1
			c0,0.1,0.1,0.2,0.2,0.2H55.8z"/>
		<path class="st2" d="M71.8,24.3c0.1,0,0.1,0-0.1-0.1c0.3,0.1,0.5,0.2,0.7,0.3c0.2,0.1,0.2,0.3,0.1,0.5c-0.2,0.5-0.4,1-0.8,1.5
			c0.3,0.4,0.5,0.6,0.8,0.7c0.1,0.1,0.2,0,0.2-0.1c0.1,0.2,0,0.4-0.1,0.6c-0.2,0.2-0.4,0.3-0.5,0.2c-0.1-0.1-0.3-0.2-0.6-0.5
			c0,0.2-0.1,0.3-0.3,0.3h-1.8c-0.3,0-0.4-0.1-0.4-0.4c-0.3,0.3-0.4,0.4-0.6,0.5c-0.2,0.1-0.4,0.1-0.6-0.1l-0.2-0.2
			c0.1,0.2,0.1,0.5,0.1,0.7c0,0.5-0.1,0.9-0.4,1.1c-0.1,0.1-0.2,0.2-0.4,0.2l-0.2,0c-0.1,0-0.1,0.1,0,0.2c-0.2-0.1-0.4-0.3-0.4-0.6
			c-0.1-0.3,0-0.4,0.3-0.4l0.1-0.1c0.1-0.1,0.1-0.2,0.1-0.5c0-0.5-0.1-0.9-0.3-1.2c-0.1-0.2-0.2-0.4-0.1-0.5c0-0.1,0.1-0.5,0.3-1.2
			c0.1-0.2,0-0.3-0.1-0.3h-0.2c-0.1,0-0.2,0.1-0.2,0.2V31c0,0.1,0.1,0.1,0.2,0.1c-0.1,0.2-0.4,0.3-0.6,0.3s-0.4-0.1-0.4-0.3v-7
			l1.9,0l0.3,0.2c0.2,0.1,0.3,0.3,0.2,0.5c0,0.2-0.1,0.5-0.3,1c0.5-0.5,0.8-1,1-1.6c0-0.1,0-0.2-0.2-0.1c0.2-0.2,0.4-0.2,0.7-0.2
			c0.2,0.1,0.3,0.2,0.3,0.4l0,0.1l0.7,0l0.2,0c0-0.1-0.1-0.1-0.2,0c0.1-0.2,0.3-0.3,0.5-0.4c0.2,0,0.4,0.1,0.4,0.3l0,0.2L71.8,24.3z
			 M69.4,24.9h-0.6c-0.3,0.6-0.6,1-0.8,1.2c-0.2,0.2-0.3,0.2-0.5,0l-0.2-0.2l-0.2,0.6l0.4,0.9l0.9-0.7l-0.2-0.1
			c-0.1-0.1-0.2,0-0.2,0.1c-0.1-0.2,0-0.4,0.1-0.5c0.1-0.1,0.3-0.1,0.4,0l0.2,0.1l0.2-0.4l-0.2-0.1c-0.1-0.1-0.2,0-0.2,0.1
			c-0.1-0.2-0.1-0.4,0-0.5c0.1-0.1,0.3-0.2,0.5,0l0.1,0L69.4,24.9z M68.3,29.2l0.4,0.1c0.3,0.1,0.3,0.3,0.2,0.6
			c-0.1,0.2-0.3,0.5-0.5,0.8c-0.1,0.1,0,0.1,0.1,0.2c-0.2,0.1-0.5,0-0.7-0.1c-0.2-0.2-0.3-0.3-0.2-0.5
			C67.9,30.1,68.1,29.7,68.3,29.2z M72.2,28.6c0,0.3-0.1,0.4-0.4,0.4h-1.2l-0.1,2c0,0.1-0.1,0.2-0.3,0.3c-0.2,0.1-0.3,0.1-0.6,0.1
			c-0.1,0-0.2,0.1,0,0.2c-0.3-0.1-0.5-0.3-0.6-0.6c-0.1-0.3,0-0.4,0.4-0.4l0.2,0c0,0,0-0.1,0-0.1V29h-1.2c-0.1,0-0.1,0.1-0.1,0.2
			c-0.2-0.1-0.3-0.3-0.3-0.6c0-0.3,0.1-0.4,0.3-0.4h3.7V28.6z M69.2,26.8H71c-0.4-0.5-0.6-1.2-0.8-2C69.9,25.6,69.6,26.3,69.2,26.8z
			 M71.5,25.2c0.1-0.1,0-0.2-0.1-0.2H71c0.1,0.3,0.2,0.5,0.3,0.8C71.4,25.5,71.5,25.3,71.5,25.2z M71,29.6l0.4-0.2
			c0.2-0.1,0.4-0.1,0.6,0.1l0.5,0.7c0.1,0.1,0.1,0.1,0.2-0.1c0,0.2-0.1,0.4-0.4,0.6c-0.3,0.2-0.4,0.1-0.6,0L71,29.6z"/>
		<path class="st2" d="M82.3,30.2h1c0.2,0,0.3-0.1,0.3-0.3c0.1-0.2,0.1-0.5,0.1-0.9c0-0.2,0-0.2-0.2-0.2c0.1-0.2,0.4-0.2,0.7-0.1
			c0.3,0.2,0.5,0.4,0.4,0.7c0,0.5-0.1,0.9-0.3,1.3c-0.2,0.3-0.5,0.5-1,0.5h-1.2c-0.5,0-0.8-0.1-1-0.3c-0.2-0.2-0.3-0.6-0.3-1.2v-0.8
			c-0.3,0.2-0.5,0.3-0.6,0.3c-0.2,0.1-0.4,0.1-0.6-0.1c0,0-0.2-0.2-0.4-0.4V31c0,0.1,0.1,0.1,0.2,0.1c-0.1,0.2-0.4,0.3-0.7,0.3
			c-0.3,0-0.5-0.1-0.5-0.3v-4c-0.2,0.2-0.3,0.4-0.4,0.4c-0.1,0.1-0.1,0.2,0.1,0.2c-0.2,0-0.4-0.1-0.6-0.5c-0.2-0.3-0.2-0.6-0.1-0.7
			c0.3-0.2,0.6-0.6,1-1.2c0.4-0.5,0.6-1,0.8-1.4c0-0.1,0-0.1-0.2-0.1c0.2-0.1,0.5-0.1,0.8,0c0.3,0.1,0.5,0.3,0.4,0.5
			c-0.1,0.3-0.4,0.7-0.7,1.3v3c0.6-0.3,1.1-0.6,1.6-0.9v-3.5c0-0.1-0.1-0.1-0.2-0.1c0.1-0.2,0.4-0.3,0.7-0.3c0.4,0,0.5,0.1,0.5,0.3
			v2.6c0.7-0.6,1.2-1.2,1.6-1.7c0.1-0.1,0-0.1-0.1-0.2c0.2-0.1,0.5,0,0.8,0.2c0.3,0.2,0.4,0.4,0.3,0.6c-0.6,0.8-1.4,1.6-2.5,2.5v1.6
			c0,0.2,0,0.4,0.1,0.5C82,30.2,82.1,30.2,82.3,30.2z"/>
		<path class="st2" d="M92.1,24.2c0.1-0.2,0.3-0.4,0.6-0.4c0.3-0.1,0.5,0,0.6,0.2l0.2,0.5h2.6c0.1,0,0.1-0.1,0.1-0.2
			c0.2,0.1,0.3,0.4,0.3,0.6c0,0.3-0.1,0.4-0.3,0.4h-6.9v-0.4c0-0.3,0.1-0.4,0.4-0.4h2.8l-0.1-0.3C92.2,24.1,92.2,24.1,92.1,24.2z
			 M95.9,27.7c0.3,0,0.4,0.1,0.4,0.4v2.4c0,0.2,0,0.4-0.1,0.5c-0.1,0.1-0.2,0.2-0.4,0.3c-0.2,0.1-0.4,0.1-0.7,0.1
			c-0.3,0-0.5-0.1-0.6-0.3c0-0.2-0.1-0.3-0.2-0.4h-2.3v0c0,0.1,0.1,0.1,0.2,0.1c-0.1,0.2-0.4,0.3-0.7,0.3c-0.3,0-0.5-0.1-0.5-0.3
			v-1.8h3.2c0.3,0,0.4,0.1,0.4,0.4v1.2c0,0.1,0.1,0.2,0.2,0.2h0.3c0.1,0,0.1,0,0.1-0.1v-1.8c0-0.1-0.1-0.2-0.2-0.2h-4.5
			c-0.1,0-0.2,0.1-0.2,0.2V31c0,0.1,0.1,0.1,0.2,0.1c-0.1,0.2-0.4,0.3-0.7,0.3c-0.3,0-0.5-0.1-0.5-0.3v-3.3H95.9z M95.1,25.6
			c0.3,0,0.4,0.1,0.4,0.4v1c0,0.3-0.1,0.4-0.4,0.4h-4.4c-0.3,0-0.4-0.1-0.4-0.4v-1c0-0.3,0.1-0.4,0.4-0.4H95.1z M94.2,26.7
			c0.1,0,0.2-0.1,0.2-0.2c0-0.2-0.1-0.2-0.2-0.2h-2.8c-0.1,0-0.2,0.1-0.2,0.2c0,0.2,0.1,0.2,0.2,0.2H94.2z M93.5,29.9
			c0.1,0,0.2-0.1,0.2-0.2c0-0.2-0.1-0.3-0.2-0.3h-1.4c-0.1,0-0.2,0.1-0.2,0.2v0.3H93.5z"/>
		<path class="st2" d="M103.2,23.9l0.3,0.2c0.2,0.1,0.3,0.3,0.2,0.6l-0.5,1.6c0,0.1,0,0.3,0.1,0.4c0.3,0.4,0.4,0.9,0.4,1.5
			c0,0.6-0.1,1-0.4,1.1c-0.2,0.2-0.3,0.2-0.5,0.2c-0.3,0-0.5-0.1-0.5-0.4c-0.1-0.3,0-0.5,0.2-0.5c0.1,0,0.1,0,0.2-0.1
			c0.1-0.1,0.1-0.2,0.1-0.5c0-0.5-0.1-0.9-0.3-1.2c-0.1-0.2-0.2-0.4-0.2-0.5c0-0.1,0.1-0.5,0.3-1.2c0.1-0.2,0-0.3-0.1-0.3h-0.2
			c-0.1,0-0.2,0.1-0.2,0.2V31c0,0.1,0.1,0.1,0.2,0.1c-0.1,0.2-0.3,0.3-0.6,0.3c-0.3,0-0.4-0.1-0.4-0.3v-7L103.2,23.9z M104.9,26.1
			c0,0.1,0.1,0.2,0.2,0.2l0.5-0.1c0.1,0,0.1-0.1,0-0.2c0.2,0.1,0.3,0.3,0.3,0.6c0,0.3-0.1,0.4-0.5,0.5c-0.8,0.2-1.3,0.3-1.5,0.4
			c-0.1,0-0.1,0-0.1,0l-0.2-0.7c0-0.2,0-0.3,0.2-0.4c0.1-0.1,0.1-0.2,0.1-0.3v-2c0-0.1-0.1-0.1-0.2-0.1c0.1-0.2,0.4-0.3,0.7-0.3
			c0.3,0,0.5,0.1,0.5,0.3v0.6h0.7c0.1,0,0.1-0.1,0.1-0.2c0.2,0.1,0.3,0.4,0.3,0.6c0,0.3-0.1,0.4-0.3,0.4h-0.7V26.1z M107.3,26.5h0.4
			c0.1,0,0.1,0,0.1-0.1l0-0.3c0-0.1-0.1-0.2-0.2-0.1c0.1-0.1,0.3-0.1,0.6,0c0.3,0.1,0.4,0.3,0.3,0.6c0,0.2-0.1,0.4-0.2,0.6
			c-0.1,0.2-0.3,0.3-0.6,0.3l-1.1,0l-0.3,0.5h1.5c0.3,0,0.4,0.1,0.4,0.4V31c0,0.1,0.1,0.1,0.2,0.1c-0.1,0.2-0.4,0.3-0.7,0.3
			c-0.3,0-0.5-0.1-0.5-0.2H105c0,0.1,0.1,0.1,0.2,0c-0.1,0.2-0.4,0.2-0.7,0.2c-0.3,0-0.5-0.1-0.5-0.3v-3.2h1.3l0.1-0.4
			c0.1-0.2,0.2-0.3,0.5-0.3l0.2,0c0.1,0,0.2,0.1,0.2,0.2c0.1-0.1,0.1-0.2,0-0.3c-0.1-0.1-0.1-0.3-0.1-0.5l-0.1-2.5
			c0-0.1-0.1-0.1-0.2-0.1c0.1-0.2,0.4-0.3,0.7-0.3c0.3,0,0.5,0.1,0.5,0.3v0.8l0.7-0.5c0.1-0.1,0.1-0.1-0.1-0.2
			c0.3,0,0.5,0.1,0.7,0.3c0.2,0.2,0.2,0.4,0,0.5c-0.3,0.2-0.7,0.5-1.3,0.7v0.7C107.1,26.5,107.2,26.5,107.3,26.5z M107.2,29.1v-0.3
			c0-0.1-0.1-0.2-0.2-0.2h-1.8c-0.1,0-0.2,0.1-0.2,0.2v0.3H107.2z M105,30.3h2.2v-0.5H105V30.3z"/>
		<path class="st2" d="M120.1,24.4c0.1,0,0.1-0.1,0.1-0.2c0.2,0.1,0.3,0.4,0.3,0.6c0,0.3-0.1,0.4-0.3,0.4h-2.1l0.4,0.1
			c0.3,0.1,0.4,0.2,0.2,0.5l-0.3,0.4h1.3c0.3,0,0.4,0.1,0.4,0.4v3.8c0,0.2,0,0.4-0.1,0.5c-0.1,0.1-0.2,0.2-0.4,0.3
			c-0.2,0.1-0.5,0.1-0.9,0.1c-0.2,0-0.2,0.1,0,0.2c-0.3-0.1-0.5-0.3-0.6-0.6c-0.1-0.2,0-0.3,0.3-0.3c0.2,0,0.4,0,0.6,0
			c0.1,0,0.2-0.1,0.2-0.2v-2.2l-0.2,0.2c-0.2,0.2-0.4,0.2-0.6,0v1.5c0,0.3-0.1,0.4-0.4,0.4h-2v0c0,0.1,0.1,0.1,0.2,0.1
			c-0.1,0.2-0.4,0.3-0.6,0.3c-0.3,0-0.4-0.1-0.4-0.3v-1.7l0,0c-0.1,0.1-0.1,0.1,0,0.2c-0.2,0-0.4-0.2-0.5-0.4
			c-0.1-0.3-0.1-0.5,0.2-0.6c0.4-0.2,0.8-0.4,1.1-0.7h-1.2c-0.1,0-0.2,0.1-0.2,0.2V31c0,0.1,0.1,0.1,0.2,0.1
			c-0.1,0.2-0.4,0.3-0.7,0.3s-0.5-0.1-0.5-0.3v-4.7h1.7l-0.2-0.5c-0.1-0.2,0-0.4,0.2-0.5l0.2,0h-1.9c-0.1,0-0.1,0.1-0.1,0.2
			c-0.2-0.1-0.3-0.4-0.3-0.6c0-0.3,0.1-0.4,0.3-0.4h2.9l-0.1-0.3c0-0.1-0.1-0.1-0.2,0c0.1-0.2,0.3-0.3,0.6-0.4
			c0.3-0.1,0.5,0,0.6,0.2l0.2,0.5H120.1z M115.6,28.3h2.7l-0.6-0.5l-0.1-0.1c-0.2-0.2-0.2-0.4,0-0.6l0.1-0.1H116l0.2,0.1
			c0.3,0.1,0.3,0.3,0.1,0.5L115.6,28.3z M115.7,26.3h1.8l0.4-1h-2l0.2,0.4c0.1,0.2,0.1,0.4-0.2,0.5L115.7,26.3z M117.4,29.6
			c0.1,0,0.2-0.1,0.2-0.2v-0.2c0-0.1-0.1-0.2-0.2-0.2h-1.2c-0.1,0-0.2,0.1-0.2,0.2v0.4H117.4z M119.2,28v-0.8c0-0.1-0.1-0.2-0.2-0.2
			h-1.1C118.6,27.5,119,27.9,119.2,28z"/>
		<path class="st2" d="M131.6,24.5c0.1,0,0.1,0-0.1-0.1c0.3,0.1,0.6,0.1,0.7,0.2c0.2,0.1,0.2,0.2,0.1,0.5c-0.2,0.5-0.5,0.9-1,1.4
			c0.5,0.2,0.9,0.4,1.2,0.4c0.1,0,0.2,0,0.2-0.2c0.1,0.1,0.1,0.4-0.1,0.6c-0.2,0.3-0.4,0.3-0.6,0.3c-0.4-0.1-0.8-0.3-1.3-0.6
			c-0.3,0.2-0.6,0.3-0.8,0.4h0.4c0.3,0,0.4,0.1,0.4,0.4l0,0.3h1.5c0.3,0,0.4,0.2,0.4,0.5c-0.1,1.3-0.3,2-0.5,2.3
			c-0.1,0.2-0.3,0.3-0.6,0.3c-0.2,0-0.3,0-0.5,0c-0.1,0-0.1,0.1,0,0.2c-0.3-0.1-0.5-0.4-0.6-0.7c-0.1-0.3,0-0.4,0.2-0.4l0.3,0
			c0.2,0,0.3,0,0.3-0.1c0.1-0.1,0.2-0.5,0.3-1c0-0.2,0-0.3-0.2-0.3h-0.8c-0.2,0.5-0.4,1-0.7,1.3c-0.3,0.4-0.7,0.6-1.1,0.8
			c-0.1,0.1-0.1,0.1,0.1,0.2c-0.3,0-0.5-0.2-0.7-0.4c-0.2-0.2-0.1-0.4,0.1-0.5c0.6-0.2,1.1-0.7,1.4-1.4h-0.6c-0.1,0-0.1,0.1-0.1,0.2
			c-0.2-0.1-0.3-0.3-0.3-0.6c0-0.3,0.1-0.4,0.3-0.4h0.9l0.1-0.7l-0.6,0.2c-0.2,0.1-0.4,0-0.6-0.3l-0.3,1c0,0.1,0,0.2,0.2,0.1
			c-0.2,0.1-0.4,0.1-0.6,0c-0.2-0.1-0.3-0.3-0.3-0.5l0.2-0.8h-0.4l-0.1,3.4c0,0.1-0.1,0.2-0.3,0.3c-0.2,0.1-0.4,0.2-0.7,0.1
			c-0.3,0-0.5-0.1-0.6-0.3l0-0.1c-0.1-0.3,0-0.5,0.4-0.5l0.2,0c0,0,0.1,0,0.1,0c0,0,0,0,0-0.1v-1.7c-0.3,0.7-0.6,1.1-0.8,1.3
			c-0.1,0.1,0,0.1,0.1,0.2c-0.2,0-0.3-0.2-0.5-0.5c-0.1-0.3-0.2-0.5,0-0.7c0.3-0.3,0.6-0.8,1-1.5h-0.7c-0.1,0-0.1,0.1-0.1,0.2
			c-0.2-0.1-0.3-0.4-0.3-0.6c0-0.3,0.1-0.4,0.3-0.4h1l-0.7-0.7c-0.1-0.1-0.2-0.1-0.2,0.1c0-0.2,0.1-0.4,0.3-0.5
			c0.2-0.1,0.4-0.1,0.6,0l0.1,0.1l0.5-0.5c0.1-0.1,0.1-0.2-0.1-0.2h-1.5c-0.1,0-0.1,0.1-0.1,0.2c-0.2-0.1-0.3-0.4-0.3-0.6
			c0-0.3,0.1-0.4,0.3-0.4l2.5,0l0.3,0.2c0.2,0.1,0.3,0.3,0.1,0.5c-0.2,0.4-0.6,0.8-1.2,1.4c0.1,0.2,0.1,0.3-0.1,0.4l1,0l0.5,0.2
			c0.1,0,0.1,0.1,0.1,0.1l-0.1,0.2c0.5-0.1,0.9-0.3,1.3-0.5l-0.7-0.7l-0.1,0.1c-0.1,0.1,0,0.1,0.1,0.2c-0.3,0-0.5,0-0.8-0.2
			c-0.3-0.2-0.3-0.3-0.1-0.5c0.2-0.1,0.4-0.3,0.6-0.7c0.3-0.4,0.5-0.6,0.5-0.8c0.1-0.1,0-0.1-0.2-0.1c0.2-0.1,0.5-0.1,0.8-0.1
			c0.3,0.1,0.4,0.2,0.3,0.4l-0.2,0.3L131.6,24.5z M131.2,25.5c0.1-0.1,0.1-0.2-0.1-0.2h-1.1c-0.1,0-0.2,0.1-0.1,0.2
			c0.1,0.2,0.4,0.4,0.6,0.6C130.9,25.9,131.1,25.7,131.2,25.5z"/>
		<path class="st2" d="M144.2,27.6c0.1,0,0.1-0.1,0.1-0.2c0.2,0.1,0.3,0.4,0.3,0.7c0,0.3-0.1,0.5-0.3,0.5h-2.9V31
			c0,0.1,0.1,0.1,0.2,0.1c-0.1,0.2-0.4,0.3-0.7,0.3c-0.3,0-0.5-0.1-0.5-0.3v-2.4h-2.9c-0.1,0-0.1,0.1-0.1,0.2
			c-0.2-0.1-0.3-0.4-0.3-0.7c0-0.3,0.1-0.5,0.3-0.5h2.9v-2.5h-2.4c-0.1,0-0.1,0.1-0.1,0.2c-0.2-0.1-0.3-0.4-0.3-0.7
			c0-0.3,0.1-0.5,0.3-0.5h6.2v0.6c0,0.3-0.1,0.4-0.4,0.4h-2.4v2.5H144.2z M138,25.7l0.5-0.2c0.2-0.1,0.4,0,0.6,0.4
			c0.2,0.4,0.3,0.7,0.4,1c0,0.1,0.1,0.1,0.2,0c-0.1,0.2-0.3,0.3-0.6,0.4c-0.3,0.1-0.5,0.1-0.5-0.1C138.5,26.8,138.3,26.3,138,25.7z
			 M142.8,27.4l-0.4-0.1c-0.3-0.1-0.4-0.3-0.2-0.6c0.1-0.2,0.2-0.5,0.4-0.9c0-0.1,0-0.2-0.2-0.1c0.2-0.2,0.5-0.2,0.8-0.1
			c0.3,0.1,0.5,0.3,0.3,0.5C143.3,26.6,143,27,142.8,27.4z"/>
		<path class="st2" d="M153.7,25.2c-0.1-0.1-0.2-0.1-0.2,0.1c0-0.2,0.1-0.4,0.4-0.6c0.3-0.2,0.5-0.1,0.7,0.1
			c0.8,0.8,1.4,1.4,1.7,1.9c0,0.1,0.1,0,0.2-0.1c0,0.2-0.2,0.4-0.5,0.6c-0.3,0.2-0.5,0.2-0.6,0c0,0-0.1-0.1-0.3-0.4
			c-3,0.1-4.6,0.2-4.8,0.3l-0.2,0c-0.1,0-0.1,0.1,0,0.2c-0.2-0.1-0.4-0.3-0.5-0.6c-0.1-0.3-0.1-0.5,0-0.5c0.2,0,0.7-0.5,1.3-1.3
			c0.4-0.4,0.6-0.8,0.7-1c0.1-0.1,0-0.1-0.2-0.1c0.2-0.1,0.5-0.1,0.8,0.1c0.3,0.1,0.4,0.3,0.3,0.5c-0.4,0.5-0.9,1.2-1.6,1.8l3.4-0.1
			L153.7,25.2z M151.2,31c-0.1,0.2-0.4,0.3-0.7,0.3c-0.3,0-0.5-0.1-0.5-0.3v-3.3h5.1c0.3,0,0.4,0.1,0.4,0.4V31
			c0,0.1,0.1,0.1,0.2,0.1c-0.1,0.2-0.4,0.3-0.7,0.3s-0.5-0.1-0.5-0.3v-0.1L151,31C151,31.1,151.1,31.1,151.2,31z M154.5,28.9
			c0-0.1-0.1-0.2-0.2-0.2h-3.1c-0.1,0-0.2,0.1-0.2,0.2V30h3.5V28.9z"/>
	</g>
	<g>
		<path class="st3" d="M21.6,10.3c0.2-2-1.7-2.6-2.9-2c-1.2,0.5-1.9,1.4-2,2.7c-0.2,2.5-1.8,4-4.2,4c-2.3,0.1-4.2-1.5-4.5-3.9
			C7.7,9.5,8.4,8.1,9.7,7.1c1.3-1,2.8-1.2,4.3-0.6c2.2,0.9,4.1-0.1,4.4-2.5c0.3-2,1.4-3.4,3.2-3.8c1.8-0.5,3.7,0.2,4.7,1.6
			c1.1,1.5,1.2,3.5,0.2,5.1c-0.2,0.4-0.6,0.7-1,0.9c-1.3,0.9-1.6,1.9-1.3,3.4c0.6,2.7,2,5,4,6.9c1,1,2.2,1.1,3.1,0.5
			c1.3-0.9,1.3-3.3,0-4.3c-1-0.7-1.8-1.5-2.1-2.7c-0.5-2,0.3-4,2.1-5c1.7-1,3.9-0.7,5.3,0.8c1.4,1.4,1.7,3.8,0.6,5.5
			c-0.3,0.4-0.7,0.9-1.2,1.1c-1.6,1-2.2,3.6-0.2,5c1.5,1.1,2.3,2.6,2,4.6c-0.3,1.8-1.6,3-3.7,3.5c-1.8,0.4-3.3-0.2-4.3-1.7
			c-0.5-0.7-0.8-1.7-0.9-2.5c-0.1-0.8-0.5-1.4-1.2-1.8c-3.1-1.5-6.2-1.6-9.4-0.2c-0.6,0.3-1.3,0.9-1.5,1.6c-0.5,1.3,0.8,2.8,2.3,2.9
			c0.6,0,1.2-0.1,1.8-0.4c1.8-0.7,3.5-0.6,5,0.9c1.6,1.5,1.8,3.8,0.6,5.6c-1.1,1.7-3.2,2.4-5.2,1.7c-1.8-0.7-2.8-2-3-3.9
			c-0.2-2.1-2.1-3.1-4-2.2c-0.9,0.4-1.8,0.6-2.8,0.4c-2.6-0.5-4.1-3-3.5-5.5c0.6-2.5,3.1-3.9,5.6-3.1c1,0.3,1.9,0.8,2.9,0.2
			c0.5-0.3,0.9-0.5,1.3-0.9C20,16.1,21.6,12.8,21.6,10.3z M20.4,4.5c0,1.3,1,2.4,2.4,2.4c1.3,0,2.4-1.1,2.4-2.4
			c0-1.3-1.1-2.4-2.4-2.4C21.5,2.2,20.4,3.2,20.4,4.5z M12.2,20.3c-1.3,0-2.4,1-2.4,2.3c0,1.3,1,2.4,2.3,2.4c1.3,0,2.4-1,2.4-2.4
			C14.6,21.4,13.6,20.3,12.2,20.3z M35.9,22.5c0-1.3-1-2.4-2.3-2.4c-1.3,0-2.4,1-2.4,2.3c0,1.3,1,2.4,2.4,2.4
			C34.8,24.9,35.8,23.8,35.9,22.5z"/>
		<path class="st3" d="M4.3,12.4c2.4,0,4.3,1.9,4.3,4.3C8.6,19,6.7,21,4.3,21C2,21,0,19.1,0,16.7C0,14.3,1.9,12.4,4.3,12.4z"/>
		<path class="st3" d="M45.8,16.6c0,2.4-1.9,4.3-4.3,4.3c-2.4,0-4.3-2-4.3-4.3c0-2.4,1.9-4.3,4.3-4.3C43.9,12.3,45.8,14.2,45.8,16.6
			z M41.6,14.3c-1.4,0-2.4,1-2.4,2.3c0,1.3,1,2.4,2.3,2.4c1.3,0,2.4-1,2.4-2.3C43.9,15.3,42.9,14.3,41.6,14.3z"/>
		<path class="st4" d="M20.4,4.5c0-1.3,1-2.4,2.4-2.4c1.3,0,2.4,1.1,2.4,2.4c0,1.3-1.1,2.4-2.4,2.4C21.5,6.9,20.4,5.9,20.4,4.5z"/>
		<path class="st4" d="M12.2,20.3c1.3,0,2.4,1.1,2.3,2.4c0,1.3-1.1,2.4-2.4,2.4c-1.3,0-2.4-1.1-2.3-2.4
			C9.9,21.3,10.9,20.3,12.2,20.3z"/>
		<path class="st4" d="M35.9,22.5c0,1.3-1.1,2.4-2.4,2.3c-1.3,0-2.4-1.1-2.4-2.4c0-1.3,1.1-2.4,2.4-2.3
			C34.8,20.1,35.9,21.2,35.9,22.5z"/>
		<path class="st4" d="M41.6,14.3c1.3,0,2.3,1.1,2.3,2.4c0,1.3-1.1,2.4-2.4,2.3c-1.3,0-2.3-1.1-2.3-2.4
			C39.2,15.2,40.2,14.2,41.6,14.3z"/>
	</g>
</g>
</svg>
